<?xml version="1.0" encoding="utf-8"?>
<!-- Generator: Adobe Illustrator 13.0.0, SVG Export Plug-In . SVG Version: 6.00 Build 14948)  -->
<!DOCTYPE svg PUBLIC "-//W3C//DTD SVG 1.1 Tiny//EN" "http://www.w3.org/Graphics/SVG/1.1/DTD/svg11-tiny.dtd">
<svg version="1.1" baseProfile="tiny" id="Layer_1" xmlns="http://www.w3.org/2000/svg" xmlns:xlink="http://www.w3.org/1999/xlink"
	 x="0px" y="0px" width="585.707px" height="77.199px" viewBox="0 0 585.707 77.199" xml:space="preserve">
<g>
	<circle fill="#363239" cx="101.686" cy="22.192" r="5.508"/>
	<circle fill="#363239" cx="101.686" cy="55.477" r="5.507"/>
	<path fill="#363239" d="M118.517,29.503c-3.052-7.123-1.357-11.869-1.357-11.869s-9.497,6.104-9.497,20.687
		c0,16.956,9.835,24.42,9.835,24.42s0.339-6.107,2.375-13.566c2.037-7.461,5.426-10.854,5.426-10.854S121.57,36.626,118.517,29.503z
		"/>
	<path fill="#363239" d="M91.446,35.427c6.619,2.351,13.996,2.863,13.996,2.863s-13.084-4.73-15.168-17.697
		c-2.087-12.988,3.65-16.288,2.527-18.54c-1.123-2.249-15.849-5.62-18.54,8.428C71.645,24.149,83.675,32.669,91.446,35.427z"/>
	<path fill="#363239" d="M73.784,36.684c-0.102,0.417-0.161,0.851-0.161,1.299c0,3.041,2.465,5.507,5.505,5.507
		c3.041,0,5.506-2.467,5.506-5.507c0-3.04-2.465-5.507-5.506-5.507c-2.588,0-4.754,1.792-5.342,4.2
		c-0.667-0.502-7.601-5.928-8.968-15.788C63.253,9.604,66.461,3.642,66.461,3.642S61.125,0.19,55.729,4.18
		c-5.397,3.987-4.168,12.955,0.877,19.173C61.442,29.314,72.848,36.13,73.784,36.684z"/>
	<path fill="#363239" d="M50.505,31.212c6.97,3.086,11.138,2.794,12.389,3.065c-2.14-1.194-12.431-7.279-16.729-16.087
		c-4.811-9.858-2.816-14.081-2.816-14.081s-9.036-1.99-11.03,5.75C30.325,17.601,42.293,27.576,50.505,31.212z"/>
	<path fill="#363239" d="M62.894,34.277c0.254,0.142,0.4,0.219,0.4,0.219C63.259,34.389,63.117,34.325,62.894,34.277z"/>
	<path fill="#363239" d="M35.135,33.794c9.942,2.593,22.762,3.754,22.762,3.754s-12.086-3.049-21.354-9.973
		c-9.269-6.922-11.615-13.728-11.615-13.728s-5.616,0.171-6.669,4.995C16.959,24.792,24.184,30.937,35.135,33.794z"/>
	<path fill="#363239" d="M90.273,56.605c2.084-12.966,15.168-17.698,15.168-17.698s-7.377,0.514-13.996,2.864
		c-7.771,2.758-19.801,11.278-17.185,24.945c2.691,14.049,17.417,10.676,18.54,8.428C93.924,72.894,88.187,69.593,90.273,56.605z"/>
	<path fill="#363239" d="M56.606,53.764c-5.045,6.218-6.274,15.187-0.877,19.174c5.396,3.989,10.732,0.539,10.732,0.539
		s-3.208-5.965-1.643-17.248c1.437-10.359,9.034-15.838,9.034-15.838S61.651,47.546,56.606,53.764z"/>
	<path fill="#363239" d="M62.893,42.84c-1.252,0.271-5.42-0.021-12.388,3.063c-8.212,3.638-20.18,13.611-18.187,21.354
		c1.994,7.743,11.03,5.75,11.03,5.75s-1.995-4.223,2.816-14.078C50.463,50.119,60.751,44.035,62.893,42.84z"/>
	<path fill="#363239" d="M63.294,42.621c0,0-0.147,0.076-0.401,0.219C63.117,42.791,63.259,42.729,63.294,42.621z"/>
	<path fill="#363239" d="M57.896,39.569c0,0-12.82,1.159-22.762,3.753c-10.951,2.859-18.175,9.002-16.877,14.951
		c1.053,4.824,6.669,4.994,6.669,4.994s2.347-6.805,11.615-13.727C45.811,42.619,57.896,39.569,57.896,39.569z"/>
	<path fill="#363239" d="M17.483,35.533C6.807,31.777,4.928,29.547,4.928,29.547S0,32.831,0,37.995c0,5.164,3.404,8.097,3.404,8.097
		s3.979-2.073,14.08-4.459c9.95-2.348,24.897-2.458,26.282-2.463C42.39,39.172,27.653,39.112,17.483,35.533z"/>
	<path fill="#363239" d="M43.766,39.17c0.069,0,0.116,0,0.116,0S43.834,39.169,43.766,39.17z"/>
	<circle fill="#363239" cx="484.021" cy="22.192" r="5.508"/>
	<circle fill="#363239" cx="484.021" cy="55.477" r="5.507"/>
	<path fill="#363239" d="M460.067,25.432c2.372-10.173-1.356-13.563-1.356-13.563s-12.209,8.817-45.785,17.974
		c-22.75,6.203-65.58,7.426-90.838,7.569c-0.137-3.369-2.905-6.06-6.309-6.06c-3.398,0-6.162,2.685-6.304,6.049
		c-3.429-0.026-5.815-0.065-6.856-0.084c0-0.041,0.006-0.081,0.006-0.122c0-5.706-4.625-10.328-10.327-10.328
		c-5.705,0-10.329,4.623-10.329,10.328c0,0.048,0.006,0.093,0.007,0.141c-1.717,0.027-4.667,0.065-8.553,0.083
		c-0.134-3.372-2.901-6.066-6.307-6.066c-3.396,0-6.158,2.681-6.304,6.04c-25.522-0.218-66.104-1.57-88.031-7.549
		c-33.576-9.157-45.784-17.974-45.784-17.974s-3.731,3.39-1.358,13.563c2.374,10.174,7.462,12.551,7.462,12.551
		s-4.407,3.73-6.442,12.548c-2.036,8.816-0.34,12.209-0.34,12.209s17.296-7.799,46.802-14.583
		c19.501-4.483,61.509-7.78,87.763-9.502c0.475,3.022,3.081,5.335,6.234,5.335c3.422,0,6.2-2.72,6.309-6.116
		c3.887-0.229,6.835-0.39,8.554-0.481c0.107,5.611,4.681,10.128,10.318,10.128c5.655,0,10.243-4.549,10.319-10.187
		c1.042,0.054,3.432,0.181,6.847,0.377c0.022,3.471,2.841,6.279,6.315,6.279c3.218,0,5.868-2.404,6.265-5.515
		c25.972,1.665,70.339,5.036,90.544,9.682c29.506,6.784,46.802,14.583,46.802,14.583s1.695-3.393-0.339-12.209
		c-2.036-8.818-6.443-12.548-6.443-12.548S457.695,35.606,460.067,25.432z"/>
	<path fill="#363239" d="M468.548,17.634c0,0,1.693,4.747-1.357,11.869c-3.052,7.123-6.784,8.817-6.784,8.817
		s3.393,3.393,5.428,10.854c2.035,7.459,2.374,13.566,2.374,13.566s9.835-7.464,9.835-24.42
		C478.043,23.737,468.548,17.634,468.548,17.634z"/>
	<path fill="#363239" d="M495.434,20.594c-2.082,12.966-15.168,17.697-15.168,17.697s7.377-0.513,13.997-2.863
		c7.77-2.758,19.802-11.278,17.183-24.945c-2.69-14.048-17.414-10.677-18.539-8.428C491.783,4.306,497.521,7.606,495.434,20.594z"/>
	<path fill="#363239" d="M511.922,36.673c-0.589-2.407-2.755-4.197-5.342-4.197c-3.04,0-5.507,2.467-5.507,5.507
		c0,3.041,2.467,5.507,5.507,5.507c3.039,0,5.506-2.467,5.506-5.507c0-0.449-0.061-0.882-0.162-1.3
		c0.951-0.562,12.347-7.374,17.178-13.331c5.044-6.218,6.273-15.186,0.877-19.173c-5.398-3.989-10.732-0.538-10.732-0.538
		s3.209,5.962,1.643,17.246C519.523,30.73,512.611,36.155,511.922,36.673z"/>
	<path fill="#363239" d="M522.414,34.496c0,0,0.146-0.078,0.4-0.219C522.591,34.325,522.449,34.389,522.414,34.496z"/>
	<path fill="#363239" d="M522.814,34.277c1.252-0.271,5.421,0.021,12.387-3.065c8.213-3.636,20.182-13.611,18.188-21.353
		c-1.994-7.741-11.029-5.75-11.029-5.75s1.995,4.223-2.815,14.081C535.242,26.998,524.955,33.082,522.814,34.277z"/>
	<path fill="#363239" d="M527.81,37.548c0,0,12.819-1.161,22.763-3.754c10.951-2.858,18.176-9.002,16.877-14.952
		c-1.053-4.824-6.668-4.995-6.668-4.995s-2.348,6.806-11.616,13.728C539.898,34.499,527.81,37.548,527.81,37.548z"/>
	<path fill="#363239" d="M494.263,41.771c-6.62-2.35-13.997-2.864-13.997-2.864s13.086,4.732,15.168,17.698
		c2.088,12.987-3.65,16.288-2.527,18.539c1.125,2.248,15.849,5.621,18.539-8.428C514.064,53.05,502.032,44.529,494.263,41.771z"/>
	<path fill="#363239" d="M511.854,40.391c0,0,7.598,5.479,9.035,15.838c1.566,11.283-1.643,17.248-1.643,17.248
		s5.334,3.45,10.732-0.539c5.396-3.987,4.167-12.956-0.877-19.174S511.854,40.391,511.854,40.391z"/>
	<path fill="#363239" d="M535.201,45.903c-6.963-3.083-11.133-2.793-12.386-3.063c2.142,1.196,12.428,7.279,16.729,16.09
		c4.811,9.855,2.815,14.078,2.815,14.078s9.035,1.993,11.029-5.75S543.414,49.541,535.201,45.903z"/>
	<path fill="#363239" d="M522.815,42.84c-0.255-0.143-0.401-0.219-0.401-0.219C522.449,42.729,522.592,42.791,522.815,42.84z"/>
	<path fill="#363239" d="M550.572,43.322c-9.943-2.594-22.763-3.753-22.763-3.753s12.089,3.05,21.355,9.972
		c9.269,6.922,11.616,13.727,11.616,13.727s5.615-0.17,6.668-4.994C568.748,52.324,561.523,46.182,550.572,43.322z"/>
	<path fill="#363239" d="M580.779,29.547c0,0-1.879,2.229-12.555,5.986c-10.171,3.579-24.906,3.639-26.283,3.637
		c1.387,0.005,16.333,0.115,26.283,2.463c10.102,2.386,14.079,4.459,14.079,4.459s3.403-2.934,3.403-8.097
		C585.707,32.831,580.779,29.547,580.779,29.547z"/>
	<path fill="#363239" d="M541.941,39.17c-0.068,0-0.115,0-0.115,0S541.873,39.17,541.941,39.17z"/>
</g>
</svg>
