<?xml version="1.0" encoding="utf-8"?>
<!-- Generator: Adobe Illustrator 13.0.0, SVG Export Plug-In . SVG Version: 6.00 Build 14948)  -->
<!DOCTYPE svg PUBLIC "-//W3C//DTD SVG 1.1 Tiny//EN" "http://www.w3.org/Graphics/SVG/1.1/DTD/svg11-tiny.dtd">
<svg version="1.1" baseProfile="tiny" id="Layer_1" xmlns="http://www.w3.org/2000/svg" xmlns:xlink="http://www.w3.org/1999/xlink"
	 x="0px" y="0px" width="512.785px" height="113.887px" viewBox="0 0 512.785 113.887" xml:space="preserve">
<g>
	<path fill="#363239" d="M256.442,21.096c0,0,0.761-3.197,2.124-5.788c1.365-2.593,2.319-3.684,2.319-3.684s-1.91-3.683-3.138-6.958
		c-1.228-3.273-1.364-4.229-1.364-4.229L256.442,21.096z"/>
	<path fill="#363239" d="M261.296,19.673c0,0,1.092-5.868,5.594-9.141c4.502-3.274,9.004-3.547,9.004-3.547s-0.677,1.351-1.91,4.776
		c-1.228,3.41-3.274,6.14-6.686,7.231C263.888,20.083,261.296,19.673,261.296,19.673z"/>
	<path fill="#363239" d="M286.126,12.579c0,0-1.91,1.564-4.341,0.238c-2.994-1.634-2.599-8.305,3.795-7.742
		c6.369,0.561,5.928,9.178,0.404,12.383c-6.122,3.55-14.866,3.853-14.866,3.853s4.775-0.137,9.823-2.866
		S286.126,12.579,286.126,12.579z"/>
	<path fill="#363239" d="M257.748,25.95c0,0-1.364,8.321,3.684,13.505c5.048,5.186,14.599,4.641,14.599,4.641
		s-5.185-2.319-10.369-7.777C260.477,30.861,257.748,25.95,257.748,25.95z"/>
	<path fill="#363239" d="M271.265,26.986c0,0,10.482,6.031,21.453,8.682c10.972,2.654,15.096-0.071,14.916-2.284
		c-0.181-2.215-3.203-3.489-9.723-2.798c-5.666,0.604-11.854,0.549-17.859-1.038C274.044,27.961,271.265,26.986,271.265,26.986z"/>
	<path fill="#363239" d="M318.322,24.04c0,0,13.616,0.712,20.056-5.595c6.548-6.413,4.64-15.688-1.091-17.872
		c-5.731-2.182-9.823,2.32-9.823,5.866c0,3.548,2.456,5.458,5.048,5.868c4.766,0.75,6.823-3.412,6.823-3.412
		s0.408,7.914-9.824,11.597s-25.785,3.548-25.785,3.548H318.322z"/>
	<path fill="#363239" d="M340.425,20.219c0,0,1.639,0.137,4.911-4.367c3.275-4.502,7.045-6.127,11.598-6.137
		c6.23-0.015,7.504-2.184,7.504-2.184s-3.107,8.821-9.414,11.46C347.647,22.077,340.425,20.219,340.425,20.219z"/>
	<path fill="#363239" d="M259.358,40.106c0,0,1.878,14.692,4.309,20.659c2.43,5.966,6.076,5.636,7.181,3.757
		c1.105-1.879-0.027-6.482-4.198-10.829C261.401,48.226,259.358,40.106,259.358,40.106z"/>
	<path fill="#363239" d="M256.375,43.861c0,0,1.19,10.074,2.651,19.059c1.492,9.17,2.652,16.902,0.774,20.162
		c-1.743,3.027-6.739,2.209-6.739-4.75c0-6.961,2.099-19.999,2.65-26.185S256.375,43.861,256.375,43.861z"/>
	<path fill="#363239" d="M373.926,27.677c0,1.435-1.164,2.596-2.598,2.596l0,0c-1.435,0-2.597-1.161-2.597-2.596V19.39
		c0-1.433,1.162-2.595,2.597-2.595l0,0c1.434,0,2.598,1.162,2.598,2.595V27.677z"/>
	<path fill="#363239" d="M377.349,18.231v12.482c0,0,29.718-3.917,55.021-5.303c30.269-1.656,47.615-1.545,47.615-1.545
		s-1.856-8.444,3.313-15.136c5.636-7.292,20.109-7.734,25.301,0.442c5.212,8.206,0.774,15.135-3.314,15.688
		c-4.088,0.552-4.642-1.326-4.642-1.326s2.542,1.215,4.531-1.214c1.988-2.431,0.442-6.959-3.756-7.182
		c-4.198-0.22-7.292,4.972-4.862,8.618c2.432,3.646,9.171,4.529,13.368,0.332c4.199-4.199,3.943-13.387-1.878-18.783
		c-6.076-5.633-15.024-6.518-22.979-1.545c-8.868,5.544-8.176,18.009-8.176,18.009s-24.08,0.833-43.421,0.108
		C409.83,20.993,377.349,18.231,377.349,18.231z"/>
	<path fill="#363239" d="M260.352,25.079c0,0,14.031,10.164,36.017,14.584c21.984,4.42,33.696,2.321,41.32-2.208
		c7.623-4.531,12.593-9.062,18.34-9.503c5.745-0.44,9.611,1.88,9.611,1.88s-2.431-0.997-4.53,0.551
		c-2.099,1.548-4.751,6.52-9.061,6.408c-4.308-0.111-5.192-3.205-5.192-3.205s-11.489,8.509-22.317,9.502
		c-10.825,0.995-16.791-0.553-16.791-0.553s11.821,2.1,20.438,11.71c5.753,6.417,4.072,15.285-1.768,17.015
		c-5.965,1.768-11.278-3.285-9.391-8.396c1.878-5.082,8.224-4.514,9.944-1.988c1.657,2.432,0.883,3.313,0.883,3.313
		s0.774-7.182-5.965-12.594c-6.74-5.414-13.147-6.739-13.147-6.739s7.622,3.757,5.854,9.833c-1.767,6.077-9.721,5.968-12.041,2.21
		c-2.318-3.756,0.221-8.286,3.424-8.176c3.205,0.11,4.862,2.541,4.31,5.193s-3.426,3.425-4.972,2.761
		c-1.547-0.661-1.879-1.437-1.879-1.437s1.99,3.535,6.076,2.101c4.088-1.437,3.869-7.182-0.662-10.165
		c-4.529-2.983-15.467-5.746-24.306-8.948c-8.838-3.203-14.914-6.629-14.914-6.629s3.646,3.313,10.274,7.182
		c6.628,3.867,13.497,7.065,14.804,12.595c1.438,6.075-3.203,9.832-7.955,8.507c-5.24-1.463-4.527-7.623-2.099-8.949
		c2.431-1.325,5.856,0.331,5.304,3.534c-0.47,2.722-3.867,1.77-3.867,1.77s4.53,1.877,6.187-1.548
		c1.877-3.878-2.099-7.952-9.169-12.372s-10.386-6.852-15.025-10.165C263.445,28.836,260.352,25.079,260.352,25.079z"/>
	<path fill="#363239" d="M330.673,30.492c0,0,2.075,1.475,0.799,3.791c-1.186,2.15-4.469,2.355-6.384,0.52s-1.935-6.62,2.155-8.182
		c3.868-1.477,8.506,1.203,9.016,5.067c0.56,4.229-2.074,7.423-3.91,8.379c-1.836,0.957-2.514,1.157-2.514,1.157l-3.072,0.16
		c0,0,5.821-1.404,6.703-5.666C334.385,31.287,330.673,30.492,330.673,30.492z"/>
	<path fill="#363239" d="M338.939,46.531c0,0,0.518-1.74-1.421-2.56c-1.798-0.759-3.897,0.528-4.189,2.619
		c-0.292,2.088,2.05,5.086,5.371,4.047c3.146-0.982,4.529-4.854,3.14-7.603c-1.531-3.024-4.95-3.613-6.567-3.308
		c-1.619,0.306-2.139,0.514-2.139,0.514l-1.999,1.413c0,0,4.208-1.841,6.976,0.239C341.234,44.243,338.939,46.531,338.939,46.531z"
		/>
	<path fill="#363239" d="M294.468,71.232c0,0-1.063,1.471-2.894,0.437c-1.699-0.962-1.96-3.41-0.482-4.917
		c1.476-1.507,5.28-1.483,6.484,1.784c1.143,3.092-1.077,6.344-4.108,7.125c-3.283,0.847-6.691-1.569-7.435-3.037
		c-0.746-1.467-0.093-2.155-0.093-2.155l-0.098-2.444c0,0,1.108,4.458,4.445,5.382C294.057,74.447,294.468,71.232,294.468,71.232z"
		/>
	<path fill="#363239" d="M218.229,71.232c0,0,1.063,1.471,2.895,0.437c1.698-0.962,1.959-3.41,0.482-4.917s-5.28-1.483-6.484,1.784
		c-1.142,3.092,1.078,6.344,4.107,7.125c3.284,0.847,6.692-1.569,7.437-3.037c0.745-1.467,0.09-2.155,0.09-2.155l0.1-2.444
		c0,0-1.108,4.458-4.446,5.382C218.64,74.447,218.229,71.232,218.229,71.232z"/>
	<path fill="#363239" d="M173.83,46.531c0,0-0.517-1.74,1.42-2.56c1.799-0.759,3.897,0.528,4.19,2.619
		c0.292,2.088-2.05,5.086-5.372,4.047c-3.144-0.982-4.528-4.854-3.138-7.603c1.531-3.024,4.95-3.613,6.566-3.308
		c1.618,0.306,2.14,0.514,2.14,0.514l1.997,1.413c0,0-4.207-1.841-6.976,0.239C171.534,44.243,173.83,46.531,173.83,46.531z"/>
	<path fill="#363239" d="M307.917,41.575c0,0,6.625,0.837,9.969-1.446c3.346-2.285,2.991-6.467,0.418-7.85
		c-2.572-1.382-5.66,0.162-5.981,2.991c-0.322,2.83,2.38,3.86,3.858,3.539c1.48-0.323,1.737-0.933,1.737-0.933
		s-0.935,1.639-5.726,2.604c-4.791,0.966-10.387,0.13-10.387,0.13L307.917,41.575z"/>
	<path fill="#363239" d="M268.03,46.237c0,0,1.656,1.241,4.557,3.811c2.901,2.568,11.948,11.021,13.425,18.312
		c1.491,7.374-3.066,12.927-9.446,11.436s-6.712-9.282-1.989-11.188c3.725-1.503,7.623,1.905,6.132,5.387
		c-1.286,3-4.392,2.071-4.392,2.071s4.723,2.402,6.463-3.314c1.739-5.717-3.562-14.416-8.286-19.969
		C270.961,48.632,268.03,46.237,268.03,46.237z"/>
	<polygon fill="#363239" points="256.099,23.533 366.965,23.368 366.965,25.687 	"/>
	<path fill="#363239" d="M263.97,71.1c0,0,3.974,3.11,7.945,10.193c3.976,7.083,2.766,14.943-2.59,16.931
		c-4.872,1.812-10.441-1.186-10.539-6.392c-0.087-4.666,4.491-7.171,7.688-5.528c3.197,1.642,2.505,6.394-0.605,6.996
		c-2.978,0.58-4.146-1.987-4.146-1.987s0.296,4.145,5.478,4.145c5.184,0,6.443-7.08,3.852-13.04
		C268.462,76.456,263.97,71.1,263.97,71.1z"/>
	<path fill="#363239" d="M256.409,21.174c-0.811-3.209-0.803-3.23-2.19-5.867c-1.363-2.593-2.319-3.684-2.319-3.684
		s1.911-3.683,3.139-6.958c1.228-3.273,1.363-4.229,1.363-4.229L256.409,21.174z"/>
	<path fill="#363239" d="M251.49,19.673c0,0-1.091-5.868-5.594-9.141c-4.503-3.274-9.004-3.547-9.004-3.547s0.677,1.351,1.91,4.776
		c1.228,3.41,3.274,6.14,6.686,7.231C248.898,20.083,251.49,19.673,251.49,19.673z"/>
	<path fill="#363239" d="M226.659,12.579c0,0,1.911,1.564,4.342,0.238c2.994-1.634,2.598-8.305-3.796-7.742
		c-6.369,0.561-5.927,9.178-0.402,12.383c6.121,3.55,14.864,3.853,14.864,3.853s-4.774-0.137-9.822-2.866
		C226.796,15.716,226.659,12.579,226.659,12.579z"/>
	<path fill="#363239" d="M255.038,25.95c0,0,1.363,8.321-3.684,13.505c-5.049,5.186-14.6,4.641-14.6,4.641s5.186-2.319,10.369-7.777
		C252.309,30.861,255.038,25.95,255.038,25.95z"/>
	<path fill="#363239" d="M244.843,26.954c0,0-10.754,5.531-21.837,7.665c-11.084,2.135-15.076-0.779-14.792-2.982
		c0.284-2.202,3.361-3.335,9.842-2.338c5.633,0.867,11.815,1.104,17.89-0.199C242.021,27.796,244.843,26.954,244.843,26.954z"/>
	<path fill="#363239" d="M194.462,24.04c0,0-13.615,0.712-20.055-5.595c-6.549-6.413-4.639-15.688,1.091-17.872
		c5.73-2.182,9.823,2.32,9.823,5.866c0,3.548-2.455,5.458-5.048,5.868c-4.765,0.75-6.821-3.412-6.821-3.412
		s-0.409,7.914,9.823,11.597c10.231,3.683,25.785,3.548,25.785,3.548H194.462z"/>
	<path fill="#363239" d="M172.36,20.219c0,0-1.988,0.373-4.911-4.367c-2.827-4.582-7.468-5.742-11.597-6.137
		c-6.389-0.614-7.504-2.184-7.504-2.184s3.111,8.487,9.414,11.46C164.993,22.402,172.36,20.219,172.36,20.219z"/>
	<path fill="#363239" d="M253.428,40.106c0,0-1.879,14.692-4.309,20.659c-2.432,5.966-6.075,5.636-7.182,3.757
		c-1.104-1.879,0.581-6.587,4.198-10.829C251.79,47.064,253.428,40.106,253.428,40.106z"/>
	<path fill="#363239" d="M138.861,27.677c0,1.435,1.162,2.596,2.596,2.596l0,0c1.434,0,2.596-1.161,2.596-2.596V19.39
		c0-1.433-1.162-2.595-2.596-2.595l0,0c-1.434,0-2.596,1.162-2.596,2.595V27.677z"/>
	<path fill="#363239" d="M135.436,18.231v12.482c0,0-29.715-3.917-55.018-5.303c-30.271-1.656-47.617-1.545-47.617-1.545
		s1.857-8.444-3.314-15.136C23.852,1.438,9.379,0.995,4.187,9.171c-5.211,8.206-0.773,15.135,3.314,15.688s4.64-1.326,4.64-1.326
		s-2.54,1.215-4.53-1.214c-1.988-2.431-0.442-6.959,3.756-7.182c4.199-0.22,7.292,4.972,4.862,8.618
		c-2.43,3.646-9.17,4.529-13.369,0.332C-1.337,19.888-1.081,10.7,4.739,5.304c6.077-5.633,15.026-6.518,22.98-1.545
		c8.869,5.544,8.175,18.009,8.175,18.009s24.079,0.833,43.418,0.108C102.955,20.993,135.436,18.231,135.436,18.231z"/>
	<path fill="#363239" d="M252.434,25.079c0,0-14.03,10.164-36.017,14.584c-21.984,4.42-33.696,2.321-41.319-2.208
		c-7.623-4.531-12.594-9.062-18.339-9.503c-5.745-0.44-9.611,1.88-9.611,1.88s2.43-0.997,4.529,0.551
		c2.099,1.548,4.751,6.52,9.06,6.408s5.191-3.205,5.191-3.205s11.49,8.509,22.317,9.502c10.827,0.995,16.793-0.553,16.793-0.553
		s-11.822,2.1-20.438,11.71c-5.753,6.417-4.07,15.285,1.768,17.015c5.966,1.768,11.279-3.285,9.39-8.396
		c-1.877-5.082-8.221-4.514-9.942-1.988c-1.657,2.432-0.884,3.313-0.884,3.313s-0.772-7.182,5.966-12.594
		c6.739-5.414,13.146-6.739,13.146-6.739s-7.622,3.757-5.854,9.833c1.767,6.077,9.722,5.968,12.042,2.21
		c2.32-3.756-0.221-8.286-3.425-8.176s-4.86,2.541-4.309,5.193c0.553,2.652,3.425,3.425,4.972,2.761
		c1.546-0.661,1.878-1.437,1.878-1.437s-1.989,3.535-6.077,2.101c-4.087-1.437-3.867-7.182,0.663-10.165s15.467-5.746,24.306-8.948
		c8.839-3.203,14.916-6.629,14.916-6.629s-3.647,3.313-10.276,7.182c-6.628,3.867-13.496,7.065-14.803,12.595
		c-1.437,6.075,3.203,9.832,7.954,8.507c5.239-1.463,4.528-7.623,2.099-8.949c-2.431-1.325-5.855,0.331-5.304,3.534
		c0.47,2.722,3.867,1.77,3.867,1.77s-4.529,1.877-6.188-1.548c-1.876-3.878,2.101-7.952,9.172-12.372
		c7.069-4.42,10.384-6.852,15.024-10.165C249.34,28.836,252.434,25.079,252.434,25.079z"/>
	<path fill="#363239" d="M182.112,30.492c0,0-2.074,1.475-0.798,3.791c1.185,2.15,4.468,2.355,6.384,0.52s1.936-6.62-2.154-8.182
		c-3.87-1.477-8.507,1.203-9.018,5.067c-0.559,4.229,2.075,7.423,3.91,8.379c1.836,0.957,2.514,1.157,2.514,1.157l3.072,0.16
		c0,0-5.819-1.404-6.702-5.666C178.401,31.287,182.112,30.492,182.112,30.492z"/>
	<path fill="#363239" d="M204.87,41.575c0,0-6.625,0.837-9.971-1.446c-3.345-2.285-2.99-6.467-0.418-7.85
		c2.573-1.382,5.661,0.162,5.982,2.991c0.321,2.83-2.381,3.86-3.859,3.539c-1.479-0.323-1.737-0.933-1.737-0.933
		s0.934,1.639,5.726,2.604c4.791,0.966,10.389,0.13,10.389,0.13L204.87,41.575z"/>
	<path fill="#363239" d="M244.756,46.237c0,0-1.657,1.241-4.558,3.811c-2.9,2.568-11.948,11.021-13.424,18.312
		c-1.491,7.374,3.066,12.927,9.447,11.436c6.379-1.491,6.71-9.282,1.987-11.188c-3.724-1.503-7.623,1.905-6.131,5.387
		c1.285,3,4.391,2.071,4.391,2.071s-4.723,2.402-6.462-3.314c-1.74-5.717,3.562-14.416,8.285-19.969
		C241.825,48.632,244.756,46.237,244.756,46.237z"/>
	<polygon fill="#363239" points="256.687,23.533 145.821,23.368 145.821,25.687 	"/>
	<path fill="#363239" d="M248.815,71.1c0,0-3.973,3.11-7.946,10.193s-2.765,14.943,2.592,16.931
		c4.872,1.812,10.44-1.186,10.538-6.392c0.087-4.666-4.492-7.171-7.688-5.528c-3.195,1.642-2.505,6.394,0.606,6.996
		c2.977,0.58,4.146-1.987,4.146-1.987s-0.296,4.145-5.479,4.145s-6.442-7.08-3.852-13.04C244.324,76.456,248.815,71.1,248.815,71.1z
		"/>
	<circle fill="#363239" cx="256.473" cy="23.602" r="1.808"/>
	<circle fill="#363239" cx="267.313" cy="23.602" r="2.663"/>
	<circle fill="#363239" cx="285.884" cy="23.696" r="2.733"/>
	<circle fill="#363239" cx="278.593" cy="48.002" r="2.512"/>
	<circle fill="#363239" cx="256.647" cy="97.412" r="2.512"/>
	<circle fill="#363239" cx="275.61" cy="63.357" r="1.959"/>
	<circle fill="#363239" cx="236.5" cy="63.357" r="1.959"/>
	<circle fill="#363239" cx="264.55" cy="80.983" r="1.407"/>
	<circle fill="#363239" cx="256.485" cy="91.258" r="1.407"/>
	<circle fill="#363239" cx="248.751" cy="80.983" r="1.407"/>
	<path fill="#363239" d="M226.448,78.662c0,0.927-0.748,1.673-1.671,1.673s-1.671-0.746-1.671-1.673
		c0-0.922,0.748-1.668,1.671-1.668S226.448,77.74,226.448,78.662z"/>
	<circle fill="#363239" cx="288.082" cy="78.221" r="1.671"/>
	<circle fill="#363239" cx="234.611" cy="48.002" r="2.512"/>
	<circle fill="#363239" cx="338.683" cy="24.226" r="2.733"/>
	<circle fill="#363239" cx="298.156" cy="23.886" r="3.642"/>
	<circle fill="#363239" cx="276.109" cy="23.886" r="1.38"/>
	<circle fill="#363239" cx="309.155" cy="23.886" r="1.996"/>
	<circle fill="#363239" cx="364.136" cy="24.44" r="3.137"/>
	<circle fill="#363239" cx="245.658" cy="23.602" r="2.663"/>
	<circle fill="#363239" cx="227.087" cy="23.696" r="2.733"/>
	<circle fill="#363239" cx="174.289" cy="24.226" r="2.733"/>
	<circle fill="#363239" cx="214.815" cy="23.886" r="3.641"/>
	<circle fill="#363239" cx="236.862" cy="23.886" r="1.379"/>
	<circle fill="#363239" cx="203.817" cy="23.886" r="1.997"/>
	<circle fill="#363239" cx="148.835" cy="24.44" r="3.139"/>
	<path fill="#363239" d="M319.867,44.738c0,0,1.952,0.226,5.616,0.208c3.683-0.014,6.475,1.609,5.512,3.952
		c-0.729,1.768-3.849,1.562-5.928-0.104C322.827,47.004,319.867,44.738,319.867,44.738z"/>
	<path fill="#363239" d="M192.906,44.738c0,0-1.952,0.226-5.616,0.208c-3.683-0.014-6.475,1.609-5.512,3.952
		c0.729,1.768,3.849,1.562,5.928-0.104C189.946,47.004,192.906,44.738,192.906,44.738z"/>
	<path fill="#363239" d="M255.062,100.757c0,0,0.457,0.726,1.918,0.726c1.364,0,1.706-0.853,1.706-0.853l2.02,3.744l-3.726,9.513
		l-3.795-9.592L255.062,100.757z"/>
</g>
</svg>
