<?xml version="1.0" encoding="utf-8"?>
<!-- Generator: Adobe Illustrator 13.0.0, SVG Export Plug-In . SVG Version: 6.00 Build 14948)  -->
<!DOCTYPE svg PUBLIC "-//W3C//DTD SVG 1.1 Tiny//EN" "http://www.w3.org/Graphics/SVG/1.1/DTD/svg11-tiny.dtd">
<svg version="1.1" baseProfile="tiny" id="Layer_1" xmlns="http://www.w3.org/2000/svg" xmlns:xlink="http://www.w3.org/1999/xlink"
	 x="0px" y="0px" width="356.153px" height="92.28px" viewBox="0 0 356.153 92.28" xml:space="preserve">
<g>
	<g>
		<path d="M172.95,56.33c0-0.893,0.724-1.617,1.617-1.617h8.341c0.894,0,1.618,0.725,1.618,1.617l0,0
			c0,0.893-0.725,1.617-1.618,1.617h-8.341C173.674,57.947,172.95,57.222,172.95,56.33L172.95,56.33z"/>
		<path d="M128.351,34.795c0,0-1.531,3.064,1.192,5.788c2.723,2.725,9.873,1.702,9.532-4.766c-0.34-6.469-9.873-8.341-14.64-2.384
			c-4.767,5.958-4.597,18.896,8.001,24.343c12.598,5.446,23.832,1.701,27.406-0.512c3.575-2.213,3.575-2.213,3.575-2.213
			s-5.788,3.916-10.895,2.895s-5.788-8-11.235-9.021c-5.448-1.021-8.342,1.531-11.235-0.171s-1.702-3.745-1.702-3.745
			s-1.191,1.192-1.021,3.745c0.17,2.554,1.19,4.255,1.19,4.255s-6.128-5.276-4.767-11.746
			C125.117,34.795,128.351,34.795,128.351,34.795z"/>
		<path d="M170.057,53.009c0,0-7.2,15.34-22.641,16.683c-15.66,1.362-28.924-9.736-40.343-25.363
			c-12.938-17.705-18.406-27.621-29.449-30.3c-12.116-2.938-19.86,6.048-21.789,13.618c-2.213,8.681,3.428,12.343,7.33,9.973
			c4.559-2.77,6.394-15.576-6.035-22.21c-11.799-6.299-25.999,0.839-30.426,4.924c-3.715,3.429-3.212,4.078-3.212,4.078
			s1.821,2.159,0.189,5.357c-1.452,2.849-5.06,3.517-6.837,5.157c-1.986,1.834-2.374,3.615-2.374,3.615S16.776,25.54,26.138,18.22
			C35.5,10.9,44.784,8.572,55.509,11.806c10.724,3.233,14.925,15.405,12.368,22.585c-1.986,5.577-5.806,6.875-9.489,5.851
			c-3.073-0.854-6.478-6.156-4.136-14.077c2.229-7.536,7.589-15.533,19.202-15.075c15.649,0.618,26.3,19.96,33.449,29.153
			c6.147,7.903,16.85,24.171,33.533,26.043c14.935,1.678,23.321-5.615,26.556-9.531C170.227,52.839,170.057,53.009,170.057,53.009z"
			/>
		<path d="M181.613,52.201h-7.384c0,0,1.695-3.227,2.679-6.345c0.985-3.117,0.985-3.774,0.985-3.774s-0.109,1.095,1.312,4.376
			s2.789,5.743,2.789,5.743H181.613z"/>
		<path d="M159.46,46.621c0,0,2.297,0.055,3.282-3.007c0.984-3.063-1.806-7.166-6.181-6.51s-5.64,4.528-4.93,7.7
			c0.711,3.174,4.687,6.315,10.563,5.7c6.501-0.682,12.975-5.151,14.057-15.04c1.151-10.522-6.31-20.021-16.853-22.694
			c-10.543-2.674-23.759-1.299-36.441,4.965C110.276,24,89.802,36.454,79.311,42.055c-10.492,5.603-22.41,10.797-32.29,10.187
			c-9.881-0.611-13.548-7.233-12.938-12.122c0.611-4.89,2.445-5.807,2.445-5.807s-1.223,2.24,1.833,3.973
			c3.056,1.732,7.029,0,7.334-3.769c0.306-3.769-3.973-7.638-9.473-5.602c-5.501,2.036-7.636,8.07-6.213,13.853
			c1.529,6.213,8.314,12.383,19.761,11.307c11.918-1.121,25.975-7.844,34.532-12.529c8.557-4.685,27.706-15.483,33.513-18.539
			c5.806-3.056,21.061-10,33.817-8.658c13.548,1.425,19.85,8.649,21.29,16.298c1.323,7.028-1.793,11.929-4.889,14.057
			C163.144,48.065,159.46,46.621,159.46,46.621z"/>
		<path d="M178.415,67.752c0,0-3.107,4.613-2.275,7.954c0.705,2.831,4.084,2.625,4.532-0.555
			C181.12,71.971,178.415,67.752,178.415,67.752z"/>
		<path d="M168.766,36.322c0,0,1.6-8.396-3.466-14.13c-5.066-5.733-17.197-7.398-30.794-3.466
			c-13.599,3.932-39.992,20.329-48.991,25.529c-8.999,5.199-23.129,12.863-32.061,13.797c-8.932,0.934-13.531-1.599-15.797-2.666
			s-4.199,1.133-1,3.132c3.2,2,11.865,3.799,22.264,1.267c10.398-2.531,29.461-14.797,37.993-20.062
			c8.532-5.265,18.663-10.796,25.129-13.796s15.463-6.133,19.729-6.667c4.267-0.533,4.733,0,4.733,0s0.066,3.732,2.666,5.533
			c2.6,1.8,5.065,1.664,6.932,3.266c1.866,1.601,1.6,3.332,1.6,3.332s1.602-1.665,1.001-5.064c-0.602-3.399-3.268-5.731-3.468-5.731
			c-0.199,0,3.819-1.474,5.399,3.266c1.467,4.398,2.733,6.465,5.2,8.198C168.301,33.79,168.766,36.322,168.766,36.322z"/>
		<path d="M166.163,11.121c0,0-10.949-7.091-25.257-3.732c-14.31,3.358-39.939,19.535-51.013,26.254
			C78.819,40.361,62.893,48.324,53.685,49.07c-9.208,0.745-12.691-4.604-12.691-4.604s2.257,1.46,4.906-0.373
			c1.844-1.277,4.482-2.648,8.781-2.24c5.01,0.477,9.757,1.148,17.046-1.119c7.59-2.362,33.844-18.286,41.558-23.639
			c6.838-4.744,16.673-14.434,24.885-16.549c8.212-2.115,13.686,2.613,13.686,2.613s4.853-2.488,9.083,0
			C165.168,5.645,166.163,11.121,166.163,11.121z"/>
		<circle cx="178.432" cy="64.935" r="1.855"/>
		<circle cx="121.5" cy="29.64" r="2.069"/>
		<circle cx="89.904" cy="26.775" r="2.069"/>
		<circle cx="115.013" cy="32.633" r="1.626"/>
		<circle cx="86.034" cy="22.497" r="1.626"/>
		<circle cx="109.436" cy="35.614" r="1.245"/>
		<circle cx="82.163" cy="18.627" r="1.245"/>
		<path d="M14.272,11.271c0,0-0.111-1.809-2.898-1.696c-2.735,0.11-4.229,2.922-2.899,5.36c1.312,2.406,4.922,2.68,6.946,0.602
			c2.595-2.666,1.476-7.985-2.844-9.789C7.833,3.766,2.683,5.498,0.713,10.302c-2.402,5.861,1.412,12.089,9.165,13.574
			c6.439,1.231,10.824-0.845,12.848-1.938c2.023-1.094,2.593-1.917,2.593-1.917l3.589-3.363c0,0-4.519,3.035-9.058,4.512
			c-4.539,1.477-10.867,1.274-14.477-1.843c-3.61-3.118-3.049-8.758-0.524-10.834c2.291-1.885,5.595-1.378,7.508-0.066
			C14.011,9.558,14.272,11.271,14.272,11.271z"/>
	</g>
	<g>
		<path d="M164.269,77.012c1.988-0.305,3.25-1.434,4.043-2.586c-0.188,0.711-0.285,1.466-0.167,2.155
			c0.376,2.182,0.64,4.167,5.235,8.764c4.172,4.17,4.708,6.923,4.708,6.923l0.012,0.012c0,0,0.479-2.655,4.649-6.825
			c4.597-4.597,4.555-6.796,5.05-8.952c0.169-0.737,0.055-1.594-0.159-2.386c0.773,1.252,2.079,2.563,4.244,2.896
			c4.427,0.681,6.639-2.553,5.788-5.106c-0.851-2.553-5.106-3.064-5.957-0.511c-1.073,3.217,1.531,4.085,1.531,4.085
			s-3.064-0.682-3.404-4.256c-0.34-3.573-0.17-6.297-3.575-9.191c-3.222-2.738-8.439-2.577-8.439-2.577v0.011
			c-0.475-0.01-4.895-0.022-7.94,2.566c-3.404,2.895-3.235,5.618-3.575,9.191c-0.34,3.574-3.404,4.256-3.404,4.256
			s2.604-0.868,1.531-4.085c-0.85-2.554-5.106-2.042-5.957,0.511C157.631,74.459,159.843,77.693,164.269,77.012z M171.76,71.055
			c0.401-7.951,5.884-10.104,6.067-10.173l0,0c0,0,6.244,1.866,6.567,10.173c0.255,6.543-6.154,11.096-6.345,11.229
			C177.878,82.165,171.428,77.605,171.76,71.055z"/>
		<path d="M227.803,34.795c0,0,1.531,3.064-1.191,5.788c-2.724,2.725-9.873,1.702-9.533-4.766c0.341-6.469,9.873-8.341,14.64-2.384
			c4.767,5.958,4.597,18.896-8,24.343c-12.598,5.446-23.832,1.701-27.407-0.512c-3.574-2.213-3.574-2.213-3.574-2.213
			s5.788,3.916,10.894,2.895c5.107-1.021,5.788-8,11.235-9.021c5.448-1.021,8.342,1.531,11.235-0.171s1.702-3.745,1.702-3.745
			s1.191,1.192,1.021,3.745c-0.171,2.554-1.191,4.255-1.191,4.255s6.128-5.276,4.767-11.746
			C231.037,34.795,227.803,34.795,227.803,34.795z"/>
		<path d="M186.097,53.009c0,0,7.2,15.34,22.641,16.683c15.661,1.362,28.924-9.736,40.343-25.363
			c12.938-17.705,18.407-27.621,29.449-30.3c12.116-2.938,19.86,6.048,21.79,13.618c2.212,8.681-3.429,12.343-7.331,9.973
			c-4.558-2.77-6.394-15.576,6.036-22.21c11.799-6.299,25.998,0.839,30.426,4.924c3.715,3.429,3.212,4.078,3.212,4.078
			s-1.821,2.159-0.189,5.357c1.452,2.849,5.06,3.517,6.837,5.157c1.986,1.834,2.375,3.615,2.375,3.615s-2.307-13.001-11.669-20.321
			c-9.362-7.319-18.646-9.647-29.37-6.414c-10.725,3.233-14.925,15.405-12.369,22.585c1.986,5.577,5.807,6.875,9.49,5.851
			c3.072-0.854,6.478-6.156,4.135-14.077c-2.229-7.536-7.589-15.533-19.201-15.075c-15.65,0.618-26.3,19.96-33.45,29.153
			c-6.146,7.903-16.85,24.171-33.532,26.043c-14.935,1.678-23.322-5.615-26.557-9.531C185.927,52.839,186.097,53.009,186.097,53.009
			z"/>
		<path d="M196.693,46.621c0,0-2.297,0.055-3.282-3.007c-0.984-3.063,1.805-7.166,6.181-6.51s5.64,4.528,4.93,7.7
			c-0.711,3.174-4.686,6.315-10.563,5.7c-6.501-0.682-12.975-5.151-14.056-15.04c-1.152-10.522,6.31-20.021,16.853-22.694
			c10.543-2.674,23.759-1.299,36.44,4.965c12.683,6.265,33.156,18.718,43.648,24.319c10.491,5.603,22.409,10.797,32.29,10.187
			c9.881-0.611,13.547-7.233,12.937-12.122c-0.611-4.89-2.445-5.807-2.445-5.807s1.223,2.24-1.833,3.973
			c-3.057,1.732-7.029,0-7.334-3.769c-0.307-3.769,3.973-7.638,9.473-5.602c5.501,2.036,7.636,8.07,6.214,13.853
			c-1.528,6.213-8.314,12.383-19.761,11.307c-11.919-1.121-25.976-7.844-34.532-12.529c-8.557-4.685-27.706-15.483-33.513-18.539
			c-5.806-3.056-21.061-10-33.817-8.658c-13.548,1.425-19.849,8.649-21.29,16.298c-1.324,7.028,1.793,11.929,4.89,14.057
			C193.011,48.065,196.693,46.621,196.693,46.621z"/>
		<path d="M187.388,36.322c0,0-1.599-8.396,3.467-14.13s17.196-7.398,30.794-3.466c13.598,3.932,39.992,20.329,48.99,25.529
			c8.999,5.199,23.13,12.863,32.062,13.797s13.531-1.599,15.798-2.666c2.266-1.067,4.198,1.133,0.999,3.132
			c-3.2,2-11.865,3.799-22.263,1.267c-10.398-2.531-29.462-14.797-37.993-20.062c-8.532-5.265-18.664-10.796-25.13-13.796
			s-15.463-6.133-19.729-6.667c-4.267-0.533-4.732,0-4.732,0s-0.067,3.732-2.666,5.533c-2.6,1.8-5.066,1.664-6.933,3.266
			c-1.866,1.601-1.6,3.332-1.6,3.332s-1.601-1.665-1-5.064s3.267-5.731,3.467-5.731c0.199,0-3.819-1.474-5.399,3.266
			c-1.467,4.398-2.733,6.465-5.199,8.198C187.854,33.79,187.388,36.322,187.388,36.322z"/>
		<path d="M189.99,11.121c0,0,10.948-7.091,25.258-3.732c14.31,3.358,39.938,19.535,51.013,26.254s27,14.682,36.208,15.428
			c9.208,0.745,12.69-4.604,12.69-4.604s-2.256,1.46-4.905-0.373c-1.844-1.277-4.481-2.648-8.78-2.24
			c-5.011,0.477-9.758,1.148-17.047-1.119c-7.59-2.362-33.844-18.286-41.558-23.639c-6.838-4.744-16.672-14.434-24.884-16.549
			c-8.212-2.115-13.687,2.613-13.687,2.613s-4.853-2.488-9.083,0C190.985,5.645,189.99,11.121,189.99,11.121z"/>
		<circle cx="234.653" cy="29.64" r="2.069"/>
		<circle cx="266.25" cy="26.775" r="2.069"/>
		<circle cx="241.141" cy="32.633" r="1.626"/>
		<circle cx="270.121" cy="22.497" r="1.626"/>
		<circle cx="246.718" cy="35.614" r="1.244"/>
		<circle cx="273.991" cy="18.627" r="1.244"/>
		<path d="M341.882,11.271c0,0,0.109-1.809,2.898-1.696c2.733,0.11,4.229,2.922,2.898,5.36c-1.313,2.406-4.923,2.68-6.945,0.602
			c-2.596-2.666-1.477-7.985,2.844-9.789c4.744-1.981,9.894-0.249,11.862,4.555c2.403,5.861-1.411,12.089-9.165,13.574
			c-6.438,1.231-10.823-0.845-12.848-1.938c-2.022-1.094-2.593-1.917-2.593-1.917l-3.589-3.363c0,0,4.518,3.035,9.058,4.512
			c4.54,1.477,10.868,1.274,14.478-1.843c3.609-3.118,3.05-8.758,0.524-10.834c-2.292-1.885-5.596-1.378-7.509-0.066
			C342.144,9.558,341.882,11.271,341.882,11.271z"/>
	</g>
</g>
</svg>
