<?xml version="1.0" encoding="utf-8"?>
<!-- Generator: Adobe Illustrator 13.0.0, SVG Export Plug-In . SVG Version: 6.00 Build 14948)  -->
<!DOCTYPE svg PUBLIC "-//W3C//DTD SVG 1.1 Tiny//EN" "http://www.w3.org/Graphics/SVG/1.1/DTD/svg11-tiny.dtd">
<svg version="1.1" baseProfile="tiny" id="Layer_1" xmlns="http://www.w3.org/2000/svg" xmlns:xlink="http://www.w3.org/1999/xlink"
	 x="0px" y="0px" width="21.438px" height="15.5px" viewBox="0 0 21.438 15.5" xml:space="preserve">
<g>
	<circle cx="11.167" cy="5.801" r="1.6"/>
</g>
<path d="M20.459,7.689c0.145-2.615-1.381-4.287-3.852-5.377c-2.471-1.092-5.232-1.455-5.232-1.455l2.107,0.074
	c0,0,4.141-0.582,6.178,1.6c2.033,2.18,2.324,5.523,1.09,7.193"/>
<path d="M20.75,9.725c-1.236,1.672-3.562,2.18-5.014,1.018c-1.455-1.162-0.945-3.416,0.727-3.926
	c1.67-0.506,3.051,0.871,2.832,2.328c-0.217,1.451-1.598,1.379-1.598,1.379s2.615-0.219,2.762-2.834"/>
<g>
	<path d="M8.042,0.932c0,0-4.144-0.582-6.178,1.6c-2.035,2.18-2.325,5.523-1.09,7.193c1.235,1.672,3.561,2.18,5.015,1.018
		C7.241,9.58,6.732,7.326,5.062,6.816C3.391,6.311,2.01,7.688,2.227,9.145c0.219,1.451,1.6,1.379,1.6,1.379S1.21,10.305,1.065,7.689
		c-0.147-2.615,1.38-4.287,3.851-5.377c2.472-1.092,5.232-1.455,5.232-1.455L8.042,0.932z"/>
</g>
<line x1="0.02" y1="11.477" x2="21.516" y2="11.477"/>
<polyline points="21.516,12.049 0.02,12.049 0.02,10.902 0.02,10.902 21.516,10.902 "/>
<line x1="21.49" y1="0.58" x2="0.02" y2="0.58"/>
<polyline points="21.49,1.152 0.02,1.152 0.02,0.008 0.02,0.008 21.49,0.008 "/>
<polyline points="21.49,15.473 0.024,15.473 0.024,14.33 0.024,14.33 21.49,14.33 "/>
</svg>
