<?xml version="1.0" encoding="utf-8"?>
<!-- Generator: Adobe Illustrator 13.0.0, SVG Export Plug-In . SVG Version: 6.00 Build 14948)  -->
<!DOCTYPE svg PUBLIC "-//W3C//DTD SVG 1.1 Tiny//EN" "http://www.w3.org/Graphics/SVG/1.1/DTD/svg11-tiny.dtd">
<svg version="1.1" baseProfile="tiny" id="Layer_1" xmlns="http://www.w3.org/2000/svg" xmlns:xlink="http://www.w3.org/1999/xlink"
	 x="0px" y="0px" width="175px" height="175px" viewBox="-0.123 -0.062 175 175" xml:space="preserve">
<g>
	<path d="M99.391,19.064l9.436-9.726H93.438c0,0,2.324,0.288,4.646,2.759C100.408,14.566,99.391,19.064,99.391,19.064z
		 M17.794,16.891c5.082-4.5,9.292-5.811,9.292-5.811h-15.97v16.266C11.116,27.346,12.712,21.389,17.794,16.891z M88.711,87.546
		L98.768,97.86c0,0-0.844-1.472-1.459-4.521c-0.48-2.387-0.32-4.199-0.32-4.199s-0.896,0.17-2.901-0.146
		C91.326,88.559,88.711,87.546,88.711,87.546z M58.388,44.496c1.889-1.393-0.222-3.953-2.484-2.057
		c-1.244,1.045-3.71,2.468-3.71,2.468S56.499,45.887,58.388,44.496z M17.504,23.277c0,0,0,0,2.469,0.438
		c2.467,0.434,5.189,1.777,5.189,1.777s-0.736-1.65-1.051-3.993c-0.327-2.435-0.364-4.101-0.364-4.101s-2.468,0.07-4.21,1.959
		C17.794,21.244,17.504,23.277,17.504,23.277z M76.741,66.253c-2.323,0.581-5.664,1.888-5.664,1.888s4.21,1.89,6.969,1.019
		C80.805,68.287,79.064,65.672,76.741,66.253z M75.724,61.391c-3.048,0.361-5.227,3.992-5.227,3.992s3.486,0.581,5.809-0.871
		C78.627,63.059,77.455,61.184,75.724,61.391z M93.512,52.17c0.434-1.232-1.527-2.613-4.721-1.888
		c-3.196,0.726-7.116,2.612-7.116,2.612s1.306-0.289,4.936,0.146C90.242,53.477,93.074,53.403,93.512,52.17z M87.409,48.541
		c0,0,1.817-0.291,4.649-0.22c2.83,0.071,5.808-0.941,5.591-2.541c-0.218-1.595-2.902-1.74-5.519-0.288
		C89.912,46.725,87.409,48.541,87.409,48.541z M98.012,40.698c-0.438-1.306-2.613-1.017-4.428,0.292
		c-1.816,1.306-3.557,3.63-3.557,3.63s1.739-0.8,4.063-1.308C96.414,42.807,98.447,42.006,98.012,40.698z M115.434,22.696
		c1.307,1.308,4.355,1.019,4.719-1.597c0.363-2.613-1.815-2.541-1.815-2.541s0.293-0.072,1.307,0.217
		c1.021,0.289,3.777,2.251,3.414,6.68c-0.362,4.43-5.442,8.13-9.364,5.662c-3.92-2.469-2.902-7.186-3.121-7.26
		c-0.217-0.073-4.271,2.796-6.306,7.586c-1.149,2.713-1.674,6.154-1.364,9.398c-3.146,2.312-5.021,6.426-4.599,10.891
		c0.679,7.162,6.533,9.074,6.533,9.074l-3.731,3.836c-4.515-1.28-9.518,0.623-10.425,5.021c-0.942,4.574,2.759,7.84,6.459,6.75
		c3.703-1.088,4.359-5.009,2.688-6.968c-0.308-0.359-0.607-0.604-0.896-0.769l2.457-2.396c3.031,1.32,5.575,4.729,5.48,9.406
		c-0.062,3.022-1.871,5.394-4.354,6.771c-0.808-1.689-2.062-3.245-4.068-4.158c-3.011-1.367-7.015-0.961-10.233-0.584
		c-1.941-3.842-1.312-7.545-1.312-7.545s-3.412,0.871-7.402,0.797c-3.994-0.07-5.881-1.017-5.881-1.017l1.452,1.744
		c0,0,1.671,0.435,4.864,0.579c3.192,0.146,5.153-0.146,5.153-0.146s0.073,0.871,0.508,2.978c0.135,0.648,0.477,1.656,1.065,2.787
		c-0.456,0.05-0.888,0.092-1.283,0.117c-3.341,0.217-4.79-1.091-4.79-1.091l2.394,2.25c0,0,0.582,0.218,1.96,0.218
		c0.584,0,1.394-0.104,2.462-0.229c1.454,2.231,3.827,4.595,7.413,5.537c2.678,0.702,5.191,0.452,7.315-0.459
		c0.108,0.284,0.212,0.582,0.308,0.893c1.453,4.718-0.145,11.759,2.033,14.954c1.645,2.413,4.891,2.042,5.736,0.073
		c0.871-2.033-1.09-3.849-2.76-3.269c-1.648,0.574-1.742,2.979-0.219,3.34c1.524,0.363,1.67-1.16,1.67-1.16s0.508,1.596-0.943,1.887
		c-1.451,0.289-3.049-0.945-3.484-3.413c-0.436-2.467-0.145-7.259-0.58-10.161c-0.16-1.066-0.4-2.332-0.838-3.596
		c2.043-1.127,3.645-2.9,4.539-5.047c2.268-5.428,0.043-11.293-5.057-13.578l4.84-4.717c0,0-5.59-1.161-7.332-5.952
		s-0.219-9.001,3.049-11.906c0.018-0.016,0.039-0.028,0.057-0.044c0.361,1.854,1.018,3.582,2.025,4.993
		c3.182,4.457,9.906,5.077,12,0.567c1.889-4.063-2.23-9.071-8.182-9.205c-1.62-0.034-3.135,0.313-4.485,0.963
		c-0.185-1.428-0.163-2.914,0.108-4.389c1.018-5.519,5.082-9.509,5.082-9.509s-0.291,0.798,0.653,3.191
		c0.943,2.396,4.572,4.792,8.638,3.268s6.535-7.04,4.647-11.397c-1.889-4.354-6.024-4.936-7.916-3.557
		C113.684,18.962,114.127,21.389,115.434,22.696z M91.334,81.651c-0.992-0.839-1.764-1.741-2.374-2.658
		c1.219-0.118,2.688-0.226,4.478-0.253c3.776-0.062,6.461,1.123,8.1,4.191C98.299,84.305,94.249,84.111,91.334,81.651z
		 M99.962,65.818l-2.583,2.656c-0.461,0.133-0.748,0.393-0.748,0.393s0.508-0.51,1.744,1.016c1.232,1.523,0.145,5.661-3.412,4.791
		c-3.559-0.871-2.904-6.969,1.598-8.64C97.646,65.633,98.814,65.579,99.962,65.818z M115.361,43.53
		c2.033,3.121-1.088,6.823-5.229,5.011c-2.596-1.138-4.503-3.818-5.314-7.021C108.373,39.971,113.639,40.887,115.361,43.53z
		 M98.229,58.342c-0.881,0-1.598,0.715-1.598,1.596c0,0.884,0.717,1.599,1.598,1.599c0.883,0,1.598-0.715,1.598-1.599
		C99.826,59.057,99.111,58.342,98.229,58.342z M70.933,41.207c0,0.885,0.715,1.6,1.597,1.6s1.597-0.715,1.597-1.6
		c0-0.881-0.715-1.595-1.597-1.595S70.933,40.326,70.933,41.207z M77.093,9.393c-0.882,0-1.597,0.717-1.597,1.6
		s0.715,1.598,1.597,1.598s1.597-0.715,1.597-1.598S77.974,9.393,77.093,9.393z M111.369,35.328c0-0.882-0.715-1.598-1.599-1.598
		c-0.883,0-1.598,0.716-1.598,1.598c0,0.881,0.715,1.598,1.598,1.598C110.654,36.926,111.369,36.209,111.369,35.328z M96.125,53.547
		c-0.643,0-1.164,0.521-1.164,1.163c0,0.64,0.521,1.163,1.164,1.163c0.639,0,1.16-0.523,1.16-1.163
		C97.285,54.068,96.764,53.547,96.125,53.547z M131.162,22.822c-0.523,0-0.949,0.428-0.949,0.953c0,0.523,0.426,0.949,0.949,0.949
		c0.527,0,0.953-0.426,0.953-0.949C132.115,23.25,131.689,22.822,131.162,22.822z M68.754,45.637c0,0.643,0.521,1.162,1.163,1.162
		c0.641,0,1.161-0.521,1.161-1.162c0-0.643-0.52-1.16-1.161-1.16C69.276,44.475,68.754,44.994,68.754,45.637z M80.007,35.328
		c0,0.643,0.521,1.162,1.162,1.162c0.639,0,1.159-0.521,1.159-1.162c0-0.643-0.521-1.161-1.159-1.161
		C80.528,34.167,80.007,34.686,80.007,35.328z M43.711,32.061c0,0.643,0.52,1.162,1.162,1.162c0.642,0,1.162-0.521,1.162-1.162
		c0-0.641-0.52-1.162-1.162-1.162C44.231,30.898,43.711,31.42,43.711,32.061z M49.372,32.715c0,0.641,0.521,1.161,1.162,1.161
		s1.162-0.521,1.162-1.161c0-0.642-0.52-1.162-1.162-1.162S49.372,32.073,49.372,32.715z M57.067,31.046
		c0.642,0,1.162-0.522,1.162-1.161c0-0.644-0.521-1.162-1.162-1.162s-1.161,0.52-1.161,1.162
		C55.906,30.523,56.426,31.046,57.067,31.046z M60.843,22.913c0-0.64-0.52-1.16-1.162-1.16c-0.641,0-1.161,0.521-1.161,1.16
		c0,0.644,0.521,1.162,1.161,1.162C60.323,24.075,60.843,23.557,60.843,22.913z M57.653,9.195c-0.554,0-1.003,0.451-1.003,1.004
		c0,0.554,0.449,1.004,1.003,1.004s1.002-0.45,1.002-1.004C58.655,9.646,58.207,9.195,57.653,9.195z M61.814,9.648
		c0,0.568,0.462,1.031,1.031,1.031c0.568,0,1.029-0.463,1.029-1.031c0-0.567-0.461-1.029-1.029-1.029
		C62.276,8.619,61.814,9.081,61.814,9.648z M66.377,10.025c0,0.656,0.53,1.188,1.188,1.188c0.655,0,1.188-0.531,1.188-1.188
		c0-0.655-0.532-1.189-1.188-1.189C66.907,8.836,66.377,9.37,66.377,10.025z M70.781,10.473c0,0.656,0.532,1.188,1.188,1.188
		c0.656,0,1.188-0.531,1.188-1.188c0-0.654-0.532-1.188-1.188-1.188C71.313,9.285,70.781,9.817,70.781,10.473z M95.615,51.225
		c0.358,0,0.653-0.293,0.653-0.651c0-0.361-0.295-0.654-0.653-0.654c-0.361,0-0.652,0.293-0.652,0.654
		C94.963,50.932,95.254,51.225,95.615,51.225z M65.78,47.74c0,0.359,0.292,0.652,0.653,0.652c0.361,0,0.653-0.293,0.653-0.652
		c0-0.36-0.292-0.65-0.653-0.65C66.072,47.09,65.78,47.38,65.78,47.74z M79.363,77.141c0-1.367-1.109-2.477-2.477-2.477
		s-2.478,1.107-2.478,2.477c0,1.367,1.109,2.478,2.478,2.478C78.254,79.618,79.363,78.51,79.363,77.141z M131.986,29.085
		c0,0,0.217,0.653,0,2.179c-0.221,1.523-1.092,3.558-0.727,5.518c0.361,1.96,3.631,1.96,3.631-1.598
		C134.891,31.627,131.986,29.085,131.986,29.085z M141.93,28.068c2.688,0.436,3.195-2.032,2.033-2.832
		c-1.162-0.799-2.615-0.289-4.574-0.145c-1.959,0.144-2.539-0.146-2.539-0.146S139.246,27.633,141.93,28.068z M134.338,28.102
		c0.474-0.277,0.795-0.787,0.795-1.373c0-0.885-0.715-1.598-1.598-1.598s-1.599,0.713-1.599,1.598c0,0.881,0.716,1.598,1.599,1.598
		c0.211,0,0.414-0.043,0.6-0.119c0.275,0.432,1.952,3.193,2.354,7.121c0.435,4.284,0.869,7.457,2.611,9.146
		c2.324,2.252,5.332,1.004,5.59-1.307c0.291-2.615-2.535-3.416-3.774-2.251c-1.16,1.088-0.509,2.902,0.727,3.122
		c0.357,0.062,0.609,0.061,0.8,0.031c-0.572,0.277-1.568,0.516-2.687-0.323c-1.742-1.308-2.252-4.646-2.613-8.058
		c-0.362-3.411-1.524-5.735-2.032-6.461c-0.406-0.578-0.798-0.914-0.944-1.032c0.032-0.015,0.062-0.035,0.096-0.052
		c0.175,0.174,0.479,0.447,0.944,0.726c0.729,0.442,3.039,1.405,6.34,1.53c3.303,0.123,6.545,0.394,7.914,1.982
		c0.876,1.018,0.717,1.986,0.488,2.555c0.015-0.183-0.002-0.424-0.084-0.76c-0.293-1.173-2.08-1.683-3.049-0.494
		c-1.037,1.271-0.08,3.933,2.409,3.479c2.201-0.396,3.203-3.371,0.89-5.455c-1.736-1.563-4.816-1.774-8.959-1.909
		C137.71,29.684,135.119,28.502,134.338,28.102z M150.352,40.77c-1.887-2.248-5.371-2.248-5.371-2.248s1.232,4.719,3.338,5.59
		C150.425,44.982,152.24,43.023,150.352,40.77z M142.076,33.148c-1.308-1.379-4.865-2.104-4.865-2.104s1.816,5.372,4.068,5.444
		C143.527,36.562,143.383,34.529,142.076,33.148z M154.854,34.674c1.752,0.104,1.379-1.379,1.379-1.379s4.355,6.604-2.322,13.067
		c-6.375,6.165-13.866,3.267-14.737,2.903c-0.871-0.364-1.308-1.162-1.308-1.162s1.308-0.289,1.019-1.596
		c-0.291-1.31-2.502-1.388-2.832,0.144c-0.437,2.034,2.178,4.866,9.582,4.647c8.283-0.244,13.344-6.75,12.994-13.722
		c-0.289-5.81-3.123-6.17-4.063-5.59C153.16,32.852,153.619,34.604,154.854,34.674z M156.014,50.936
		c0,0.723,0.584,1.307,1.309,1.307c0.722,0,1.306-0.584,1.306-1.307s-0.584-1.308-1.306-1.308
		C156.598,49.629,156.014,50.215,156.014,50.936z M159.5,46.145c0,0.722,0.584,1.307,1.307,1.307c0.721,0,1.307-0.585,1.307-1.307
		c0-0.724-0.586-1.308-1.307-1.308C160.084,44.838,159.5,45.422,159.5,46.145z M161.096,40.555c0,0.722,0.584,1.308,1.307,1.308
		c0.724,0,1.308-0.586,1.308-1.308c0-0.72-0.584-1.307-1.308-1.307C161.68,39.248,161.096,39.835,161.096,40.555z M160.877,34.749
		c0,0.722,0.586,1.306,1.309,1.306c0.721,0,1.307-0.584,1.307-1.306c0-0.724-0.586-1.308-1.307-1.308
		C161.463,33.441,160.877,34.025,160.877,34.749z M123.674,34.79c0.721,0,1.305-0.585,1.305-1.304c0-0.725-0.584-1.309-1.305-1.309
		c-0.725,0-1.309,0.584-1.309,1.309C122.365,34.205,122.949,34.79,123.674,34.79z M121.191,26.75c0-0.724-0.586-1.307-1.307-1.307
		c-0.723,0-1.307,0.582-1.307,1.307c0,0.721,0.584,1.305,1.307,1.305C120.605,28.055,121.191,27.471,121.191,26.75z M126.461,27.863
		c-0.578,0-1.043,0.468-1.043,1.044c0,0.575,0.465,1.043,1.043,1.043c0.574,0,1.045-0.468,1.045-1.043
		C127.506,28.331,127.035,27.863,126.461,27.863z M114.998,28.801c0,0.578,0.469,1.045,1.045,1.045c0.578,0,1.043-0.467,1.043-1.045
		c0-0.576-0.465-1.043-1.043-1.043C115.467,27.758,114.998,28.225,114.998,28.801z M126.777,23.023
		c-0.442,0-0.801,0.356-0.801,0.801c0,0.441,0.357,0.801,0.801,0.801c0.441,0,0.801-0.359,0.801-0.801
		C127.578,23.381,127.219,23.023,126.777,23.023z M113.018,25.087c-0.441,0-0.801,0.356-0.801,0.8c0,0.441,0.359,0.801,0.801,0.801
		c0.442,0,0.801-0.358,0.801-0.801C113.818,25.443,113.459,25.087,113.018,25.087z M160.006,28.723
		c-0.721,0-1.307,0.586-1.307,1.308s0.586,1.307,1.307,1.307c0.723,0,1.307-0.585,1.307-1.307S160.729,28.723,160.006,28.723z
		 M151.295,53.693c0,0.722,0.586,1.307,1.309,1.307c0.721,0,1.305-0.585,1.305-1.307c0-0.721-0.584-1.305-1.305-1.305
		C151.881,52.389,151.295,52.973,151.295,53.693z M147.014,54.057c-0.723,0-1.309,0.586-1.309,1.307
		c0,0.723,0.586,1.307,1.309,1.307c0.721,0,1.305-0.584,1.305-1.307C148.318,54.643,147.734,54.057,147.014,54.057z M139.898,55.146
		c0,0.723,0.586,1.306,1.308,1.306c0.721,0,1.307-0.583,1.307-1.306s-0.586-1.309-1.307-1.309
		C140.484,53.838,139.898,54.424,139.898,55.146z M136.631,52.753c0-0.726-0.584-1.308-1.307-1.308
		c-0.724,0-1.308,0.582-1.308,1.308c0,0.72,0.584,1.304,1.308,1.304C136.047,54.057,136.631,53.473,136.631,52.753z M125.705,19.152
		c0,0.721,0.586,1.307,1.307,1.307c0.225,0,0.424-0.07,0.607-0.17c0.654,0.938,1.521,2.627,1.826,5.312
		c0.383,3.395-1.207,8.229-3.484,10.598c-3.703,3.85-6.971,1.962-6.971,1.962s1.524,0.071,1.744-1.744
		c0.217-1.813-2.326-3.411-3.994-1.524c-1.668,1.89-0.58,6.317,4.862,5.736c5.445-0.58,6.896-7.188,6.896-7.188
		s-1.671,8.64,0.217,11.904c1.89,3.269,5.375,2.688,6.463,1.09s0.22-4.354-2.033-4.14c-2.252,0.22-2.104,2.687-1.231,3.413
		c0.871,0.727,1.812,0.217,1.812,0.217s-1.448,1.09-3.338-0.217c-1.889-1.308-1.672-4.938-1.233-9.146
		c0.436-4.209,1.307-8.493,0.436-12.123c-0.469-1.953-1.318-3.336-1.952-4.161c0.226-0.127,0.41-0.312,0.527-0.542
		c0.991,0.88,3.636,2.805,8.394,3.47c4.115,0.574,11.18-0.364,14.881,0.144c3.703,0.511,4.285,2.326,4.139,3.195
		c-0.143,0.872-1.159,1.016-1.159,1.016s1.233-0.724,0.146-1.959c-1.09-1.234-2.978-0.291-2.902,1.235
		c0.07,1.522,1.521,2.976,3.844,2.031c2.324-0.944,2.389-4.458-0.068-6.097c-2.182-1.454-9.147-0.727-11.691-0.438
		c-2.538,0.292-8.129,0.22-11.178-0.798c-2.104-0.702-3.603-1.498-4.34-1.93c0.055-0.144,0.092-0.293,0.092-0.453
		c0-0.721-0.584-1.307-1.307-1.307C126.291,17.848,125.705,18.432,125.705,19.152z M137.211,19.064
		c5.373-0.141,21.256,0.238,26.934,0.727c6.752,0.583,6.752,2.398,6.752,2.398s-2.104-0.801-3.703,1.158
		c-1.598,1.961-0.58,5.52,2.178,6.099c2.759,0.583,5.664-1.813,5.445-5.226c-0.252-3.93-3.412-5.951-10.09-5.951
		c-6.682,0-36.443,0-36.443,0l1.019,0.795C129.301,19.064,131.842,19.213,137.211,19.064z M46.978,11.301c0,0,0,0-0.363,0.726
		s-1.67,0.799-3.122,3.122c-1.452,2.32,0,4.717,0,4.717s3.267-2.686,3.993-4.792C48.211,12.971,46.978,11.301,46.978,11.301z
		 M48.783,13.689c0,0,2.617,0.299,3.963-1.271c1.347-1.57,0.824-3.965,0.824-3.965s-0.3,1.048-2.319,2.171
		C49.232,11.744,48.783,13.689,48.783,13.689z M9.35,93.438v15.39l9.728-9.437c0,0-4.501,1.017-6.968-1.306
		C9.641,95.762,9.35,93.438,9.35,93.438z M98.717,97.811l-9.916-10.153c0,0,1.02,2.612,1.455,5.371
		c0.316,2.008,0.146,2.903,0.146,2.903s2.022-0.125,4.233,0.42C97.461,97.053,98.717,97.811,98.717,97.811z M69.168,78.045
		c0.87-2.758-1.017-6.97-1.017-6.97s-1.306,3.34-1.887,5.662C65.683,79.061,68.297,80.809,69.168,78.045z M61.401,75.721
		c-0.207,1.73,1.669,2.903,3.122,0.582c1.451-2.322,0.871-5.809,0.871-5.809S61.763,72.671,61.401,75.721z M52.181,93.51
		c1.234-0.435,1.307-3.266,0.871-6.895s-0.145-4.934-0.145-4.934s-1.888,3.916-2.614,7.108
		C49.567,91.985,50.947,93.947,52.181,93.51z M45.793,97.646c1.597,0.221,2.613-2.758,2.541-5.588
		c-0.073-2.832,0.218-4.644,0.218-4.644s-1.815,2.495-3.048,4.714C44.051,94.744,44.196,97.432,45.793,97.646z M41.002,93.582
		c-1.307,1.814-1.597,3.994-0.291,4.43c1.307,0.435,2.104-1.599,2.614-3.92c0.507-2.324,1.306-4.064,1.306-4.064
		S42.308,91.768,41.002,93.582z M84.702,94.818c-0.831-3.163-2.768-5.383-4.743-6.86c0.167-1.571,0.338-2.681,0.338-3.43
		c0-1.378-0.218-1.958-0.218-1.958l-2.25-2.401c0,0,1.307,1.457,1.089,4.796c-0.042,0.639-0.123,1.363-0.215,2.146
		c-1.444-0.867-2.785-1.348-3.584-1.514c-2.104-0.436-2.975-0.508-2.975-0.508s0.291-1.959,0.145-5.158
		c-0.145-3.194-0.581-4.863-0.581-4.863l-1.742-1.452c0,0,0.942,1.889,1.016,5.882c0.072,3.995-0.799,7.408-0.799,7.408
		s4.235-0.715,8.341,1.759c-0.335,3.048-0.564,6.618,0.684,9.364c0.812,1.787,2.134,2.974,3.604,3.783
		c-1.299,2.836-3.816,4.988-7.113,5.056c-4.677,0.096-8.085-2.449-9.406-5.479l2.396-2.457c0.164,0.289,0.409,0.59,0.768,0.896
		c1.96,1.67,5.881,1.017,6.968-2.685c1.09-3.703-2.177-7.405-6.75-6.463c-4.4,0.908-6.304,5.912-5.021,10.428l-3.835,3.729
		c0,0-2.041-6.242-9.201-6.92c-4.602-0.436-8.637,1.747-10.821,5.184c-3.058-0.41-6.323,0.061-9.182,1.272
		c-4.791,2.032-7.819,5.981-7.746,6.2c0.072,0.217,4.792-0.799,7.259,3.122c2.468,3.92-1.234,9.002-5.662,9.364
		c-4.428,0.362-6.387-2.396-6.679-3.412c-0.291-1.016-0.218-1.307-0.218-1.307s-0.073,2.178,2.541,1.813
		c2.613-0.362,2.904-3.411,1.597-4.718c-1.307-1.307-3.735-1.75-5.226,0.289c-1.38,1.889-0.799,6.026,3.557,7.914
		c4.355,1.887,9.872-0.58,11.396-4.646c1.524-4.066-0.871-7.695-3.266-8.639c-2.396-0.943-3.195-0.652-3.195-0.652
		s3.992-4.066,9.51-5.083c1.526-0.281,3.065-0.293,4.537-0.087c-0.609,1.371-0.95,2.883-0.95,4.479
		c0,6.365,4.979,10.057,9.044,8.168c4.508-2.094,2.139-9.476-1.589-11.988c-1.253-0.844-2.665-1.434-4.155-1.797
		c0.077-0.099,0.146-0.205,0.228-0.297c2.902-3.267,7.113-4.791,11.904-3.05c4.791,1.743,5.952,7.333,5.952,7.333l4.717-4.838
		c2.287,5.098,8.151,7.322,13.576,5.055c2.359-0.985,4.271-2.824,5.365-5.17c1.447,0.574,2.937,0.866,4.167,1.051
		c2.906,0.435,7.697,0.146,10.166,0.582c2.47,0.436,3.703,2.03,3.41,3.483c-0.289,1.452-1.885,0.943-1.885,0.943
		s1.525-0.146,1.162-1.669c-0.363-1.525-2.768-1.43-3.34,0.217c-0.58,1.669,1.23,3.629,3.268,2.758
		c1.969-0.844,2.34-4.089-0.074-5.732c-3.192-2.179-10.233-0.582-14.957-2.033c-0.549-0.17-1.055-0.361-1.525-0.571
		C85.193,99.477,85.33,97.213,84.702,94.818z M79.645,93.018c0.021-1.328,0.087-2.467,0.167-3.473
		c0.633,0.501,1.252,1.092,1.839,1.788c2.269,2.687,2.609,6.341,1.577,9.433C80.612,99.105,79.589,96.536,79.645,93.018z
		 M66.046,96.561c1.671-4.502,7.769-5.155,8.639-1.599c0.87,3.558-3.266,4.646-4.791,3.412c-1.525-1.233-1.016-1.741-1.016-1.741
		s-0.261,0.288-0.395,0.752l-2.653,2.578C65.591,98.814,65.644,97.645,66.046,96.561z M48.551,110.135
		c1.815,4.137-1.888,7.26-5.009,5.228c-2.646-1.724-3.561-6.989-2.01-10.544C44.733,105.631,47.413,107.539,48.551,110.135z
		 M58.351,98.229c0,0.883,0.716,1.599,1.598,1.598c0.883,0,1.598-0.715,1.598-1.598c0-0.881-0.715-1.596-1.598-1.596
		C59.067,96.633,58.351,97.348,58.351,98.229z M41.22,74.125c0.881,0,1.596-0.717,1.596-1.598c0-0.883-0.714-1.596-1.596-1.596
		c-0.883,0-1.598,0.713-1.598,1.596C39.622,73.408,40.337,74.125,41.22,74.125z M12.6,77.09c0-0.883-0.715-1.598-1.597-1.598
		c-0.882,0.001-1.597,0.715-1.597,1.598s0.714,1.598,1.597,1.598C11.886,78.688,12.6,77.973,12.6,77.09z M35.339,108.174
		c-0.882,0-1.597,0.715-1.597,1.598c0,0.882,0.715,1.597,1.597,1.597c0.883,0.001,1.597-0.714,1.597-1.597
		S36.221,108.174,35.339,108.174z M54.721,94.961c-0.641,0.001-1.161,0.521-1.161,1.162c0,0.643,0.52,1.163,1.161,1.163
		c0.642,0,1.162-0.521,1.162-1.163C55.883,95.482,55.363,94.962,54.721,94.961z M80.015,80.531c0,0.643,0.52,1.166,1.162,1.166
		c0.639,0,1.16-0.523,1.16-1.166c0-0.645-0.521-1.167-1.16-1.167C80.534,79.364,80.015,79.889,80.015,80.531z M73.199,74.18
		c0.642,0,1.162-0.519,1.162-1.16c0-0.641-0.521-1.162-1.162-1.162c-0.643,0-1.162,0.521-1.162,1.162S72.556,74.18,73.199,74.18z
		 M83.666,83.68c0,0.644,0.52,1.162,1.162,1.162c0.641,0,1.161-0.52,1.161-1.162c0-0.641-0.52-1.16-1.161-1.162
		C84.186,82.52,83.666,83.039,83.666,83.68z M102.49,100.623c0-0.641-0.523-1.161-1.162-1.162c-0.644,0.001-1.16,0.521-1.16,1.164
		c0,0.641,0.518,1.16,1.16,1.16C101.969,101.785,102.49,101.266,102.49,100.623z M23.786,130.212c-0.526,0-0.952,0.427-0.952,0.951
		c0,0.526,0.426,0.951,0.952,0.951c0.524,0,0.95-0.425,0.95-0.951C24.737,130.639,24.311,130.212,23.786,130.212z M46.809,69.913
		c0-0.64-0.521-1.161-1.162-1.161c-0.642,0-1.161,0.521-1.161,1.161c0,0.644,0.52,1.162,1.161,1.162
		C46.289,71.075,46.809,70.557,46.809,69.913z M34.178,81.172c-0.001,0.645,0.519,1.161,1.161,1.161
		c0.641,0,1.161-0.519,1.161-1.161c0-0.645-0.52-1.167-1.161-1.167C34.697,80.005,34.177,80.527,34.178,81.172z M33.234,44.869
		c0-0.643-0.52-1.163-1.161-1.163c-0.642,0-1.162,0.521-1.162,1.163s0.52,1.16,1.161,1.162
		C32.714,46.029,33.234,45.512,33.234,44.869z M33.887,50.531c0-0.641-0.519-1.162-1.161-1.162c-0.642,0-1.161,0.521-1.161,1.162
		c0,0.643,0.52,1.162,1.161,1.162C33.368,51.693,33.887,51.174,33.887,50.531z M55.457,57.26c0,0.768,0.623,1.391,1.393,1.391
		c0.767,0,1.39-0.623,1.39-1.391c0-0.77-0.623-1.391-1.39-1.391C56.08,55.868,55.457,56.49,55.457,57.26z M28.733,57.064
		c0,0.643,0.521,1.162,1.163,1.162c0.64,0,1.161-0.521,1.161-1.162c0-0.641-0.521-1.163-1.162-1.163
		C29.254,55.901,28.733,56.424,28.733,57.064z M21.764,59.68c0,0.642,0.521,1.16,1.162,1.16s1.162-0.52,1.162-1.16
		c0-0.642-0.52-1.162-1.162-1.162C22.284,58.516,21.764,59.037,21.764,59.68z M11.213,57.648c0-0.555-0.449-1.002-1.003-1.002
		c-0.552,0-1.003,0.447-1.003,1.004c0,0.552,0.451,1.002,1.003,1.002C10.764,58.652,11.213,58.202,11.213,57.648z M10.691,62.84
		c0-0.566-0.461-1.027-1.03-1.029c-0.569,0.002-1.03,0.463-1.03,1.029c0.001,0.57,0.461,1.031,1.03,1.031
		C10.23,63.871,10.691,63.41,10.691,62.84z M11.224,67.562c0-0.657-0.533-1.188-1.188-1.188c-0.655,0-1.188,0.531-1.188,1.188
		c0,0.654,0.533,1.188,1.188,1.188C10.692,68.75,11.224,68.219,11.224,67.562z M11.672,71.965c0.001-0.654-0.532-1.187-1.188-1.187
		c-0.656,0-1.188,0.53-1.188,1.187c0,0.657,0.532,1.191,1.188,1.191C11.14,73.156,11.673,72.622,11.672,71.965z M51.238,95.616
		c0-0.36-0.292-0.653-0.654-0.653c-0.361,0-0.653,0.293-0.652,0.653c0,0.36,0.291,0.653,0.652,0.653
		C50.945,96.27,51.238,95.977,51.238,95.616z M87.452,86.957c0.363,0.002,0.654-0.291,0.654-0.65c0-0.362-0.291-0.654-0.654-0.654
		c-0.362,0-0.653,0.294-0.653,0.654C86.799,86.666,87.09,86.957,87.452,86.957z M71.095,70.344c0-0.363-0.293-0.654-0.653-0.654
		c-0.361,0-0.655,0.293-0.654,0.654c0,0.359,0.293,0.652,0.654,0.652C70.802,70.996,71.095,70.703,71.095,70.344z M98.883,98.415
		c0,0.36,0.293,0.653,0.652,0.653c0.36,0.001,0.654-0.293,0.654-0.653c0-0.362-0.294-0.653-0.654-0.653
		C99.176,97.762,98.883,98.055,98.883,98.415z M102.439,102.844c0,0.36,0.291,0.652,0.654,0.652c0.361,0,0.654-0.292,0.654-0.652
		c0-0.361-0.293-0.654-0.654-0.654C102.73,102.189,102.439,102.482,102.439,102.844z M48.406,66.43c0-0.36-0.292-0.653-0.653-0.653
		c-0.36,0-0.653,0.293-0.653,0.653c0,0.359,0.293,0.652,0.653,0.652C48.113,67.082,48.406,66.789,48.406,66.43z M34.903,116.74
		c-1.887,1.669-0.29,4.211,1.524,3.994c1.815-0.219,1.743-1.742,1.743-1.742s1.888,3.266-1.959,6.969
		c-2.368,2.278-7.205,3.866-10.599,3.483c-2.686-0.304-4.376-1.171-5.312-1.824c0.099-0.185,0.17-0.386,0.17-0.61
		c0-0.72-0.585-1.305-1.307-1.305c-0.722,0-1.306,0.585-1.306,1.307c0,0.721,0.584,1.305,1.306,1.305
		c0.161,0,0.311-0.037,0.453-0.092c0.432,0.738,1.229,2.235,1.93,4.34c1.016,3.05,1.089,8.639,0.798,11.181
		c-0.29,2.539-1.016,9.51,0.436,11.687c1.641,2.459,5.154,2.396,6.098,0.074c0.944-2.324-0.508-3.775-2.033-3.848
		c-1.525-0.073-2.469,1.812-1.234,2.902c1.234,1.091,1.959-0.145,1.959-0.145s-0.145,1.016-1.016,1.161s-2.686-0.437-3.194-4.138
		c-0.51-3.703,0.429-10.769-0.145-14.883c-0.665-4.758-2.59-7.401-3.471-8.394c0.231-0.118,0.415-0.302,0.542-0.526
		c0.826,0.633,2.208,1.482,4.162,1.951c3.63,0.872,7.914,0,12.123-0.435c4.211-0.437,7.841-0.653,9.147,1.233
		c1.307,1.889,0.218,3.34,0.218,3.34s0.509-0.944-0.218-1.816c-0.726-0.87-3.193-1.016-3.411,1.234
		c-0.218,2.25,2.541,3.123,4.138,2.033s2.178-4.574-1.089-6.461c-3.267-1.888-11.905-0.218-11.905-0.218s6.606-1.452,7.187-6.896
		C41.219,116.159,36.791,115.071,34.903,116.74z M35.194,134.891c3.557,0,3.557-3.268,1.597-3.631s-3.992,0.508-5.517,0.727
		c-1.524,0.217-2.178,0-2.178,0S31.637,134.891,35.194,134.891z M28.079,141.93c-0.435-2.686-3.121-5.08-3.121-5.08
		s0.29,0.58,0.145,2.541c-0.145,1.961-0.653,3.412,0.146,4.572C26.046,145.125,28.516,144.616,28.079,141.93z M37.177,149.223
		c0.449-2.492-2.212-3.446-3.479-2.41c-1.188,0.969-0.68,2.757,0.492,3.047c0.34,0.084,0.583,0.1,0.766,0.084
		c-0.567,0.229-1.54,0.394-2.562-0.486c-1.588-1.371-1.857-4.613-1.981-7.915c-0.125-3.303-1.089-5.608-1.53-6.342
		c-0.279-0.462-0.554-0.769-0.728-0.942c0.017-0.031,0.038-0.062,0.052-0.096c0.118,0.148,0.457,0.54,1.033,0.943
		c0.727,0.509,3.049,1.67,6.461,2.033c3.412,0.363,6.752,0.871,8.058,2.613c0.836,1.116,0.601,2.11,0.324,2.684
		c0.028-0.188,0.029-0.44-0.034-0.797c-0.218-1.232-2.032-1.888-3.122-0.726c-1.163,1.24-0.362,4.065,2.25,3.774
		c2.31-0.256,3.559-3.267,1.308-5.588c-1.688-1.744-4.865-2.18-9.147-2.615c-3.927-0.398-6.688-2.076-7.121-2.352
		c0.075-0.187,0.118-0.388,0.118-0.6c0-0.881-0.715-1.598-1.597-1.598c-0.883,0-1.597,0.717-1.597,1.598
		c0,0.883,0.715,1.598,1.597,1.598c0.587,0,1.096-0.32,1.373-0.794c0.399,0.782,1.583,3.371,1.697,6.812
		c0.136,4.145,0.347,7.224,1.91,8.959C33.805,152.426,36.778,151.424,37.177,149.223z M40.784,150.352
		c2.25,1.888,4.21,0.072,3.339-2.032c-0.871-2.106-5.59-3.341-5.59-3.341S38.533,148.463,40.784,150.352z M31.057,137.212
		c0,0,0.726,3.558,2.105,4.864c1.378,1.307,3.41,1.452,3.338-0.798C36.428,139.028,31.057,137.212,31.057,137.212z M46.664,136.051
		c-1.533,0.328-1.451,2.541-0.145,2.832c1.306,0.291,1.597-1.018,1.597-1.018s0.798,0.436,1.162,1.307
		c0.363,0.871,3.26,8.364-2.905,14.736c-6.46,6.68-13.067,2.324-13.067,2.324s1.482,0.373,1.38-1.381
		c-0.072-1.233-1.823-1.69-2.685-0.289c-0.582,0.945-0.218,3.774,5.588,4.065c6.971,0.349,13.478-4.71,13.721-12.993
		C51.528,138.229,48.697,135.615,46.664,136.051z M49.641,157.32c0,0.722,0.584,1.308,1.307,1.308c0.72,0,1.306-0.585,1.306-1.308
		c0-0.721-0.584-1.305-1.306-1.305C50.225,156.016,49.641,156.6,49.641,157.32z M44.849,160.805c0,0.723,0.584,1.308,1.307,1.308
		s1.306-0.584,1.306-1.308c0-0.721-0.583-1.306-1.306-1.306S44.849,160.084,44.849,160.805z M40.567,161.096
		c-0.722,0-1.307,0.584-1.307,1.307s0.585,1.306,1.307,1.306c0.72,0,1.307-0.583,1.307-1.306
		C41.873,161.68,41.287,161.096,40.567,161.096z M36.065,162.184c0-0.722-0.584-1.306-1.305-1.306c-0.722,0-1.308,0.583-1.308,1.306
		s0.585,1.307,1.306,1.307C35.48,163.49,36.065,162.904,36.065,162.184z M33.495,122.366c-0.721,0-1.307,0.585-1.306,1.306
		c0,0.723,0.586,1.307,1.307,1.307c0.721,0,1.306-0.584,1.306-1.307C34.802,122.951,34.218,122.366,33.495,122.366z M26.761,121.191
		c0.721,0,1.306-0.586,1.306-1.307c0-0.722-0.585-1.307-1.306-1.307c-0.723,0-1.306,0.585-1.308,1.307
		C25.454,120.605,26.039,121.191,26.761,121.191z M29.962,126.461c0-0.576-0.467-1.044-1.043-1.044
		c-0.578,0-1.043,0.468-1.043,1.044c-0.001,0.577,0.467,1.043,1.043,1.043C29.494,127.504,29.962,127.038,29.962,126.461z
		 M28.813,117.087c0.576,0,1.042-0.466,1.042-1.043c0-0.575-0.466-1.043-1.042-1.043c-0.576,0-1.044,0.468-1.044,1.043
		C27.769,116.62,28.237,117.087,28.813,117.087z M23.835,125.975c-0.442,0-0.801,0.359-0.801,0.801s0.358,0.802,0.802,0.802
		c0.441,0,0.8-0.358,0.8-0.802C24.635,126.334,24.276,125.975,23.835,125.975z M26.698,113.016c0-0.44-0.358-0.799-0.8-0.799
		s-0.801,0.358-0.801,0.799c0,0.442,0.359,0.801,0.801,0.801S26.698,113.458,26.698,113.016z M28.733,160.006
		c0,0.721,0.585,1.307,1.308,1.307c0.721,0,1.305-0.586,1.305-1.307c0-0.722-0.584-1.306-1.305-1.306
		C29.318,158.701,28.733,159.284,28.733,160.006z M52.398,152.602c0,0.722,0.586,1.307,1.307,1.307c0.721,0,1.307-0.585,1.307-1.307
		s-0.586-1.307-1.307-1.307C52.984,151.295,52.398,151.88,52.398,152.602z M54.07,147.012c0,0.724,0.584,1.307,1.306,1.307
		c0.721,0.001,1.307-0.583,1.307-1.307c0-0.722-0.584-1.306-1.307-1.306C54.654,145.706,54.07,146.291,54.07,147.012z
		 M53.851,141.204c0.001,0.724,0.585,1.308,1.308,1.308c0.72,0,1.305-0.586,1.305-1.308s-0.584-1.306-1.305-1.308
		C54.436,139.896,53.851,140.48,53.851,141.204z M51.455,135.325c0,0.722,0.585,1.306,1.307,1.306c0.721,0,1.307-0.584,1.307-1.306
		s-0.586-1.308-1.307-1.308C52.04,134.018,51.455,134.604,51.455,135.325z M19.804,164.145c-0.489-5.68-0.872-21.562-0.725-26.934
		c0.145-5.371,0-7.912,0-7.912l-0.8-1.017c0,0,0,29.763,0,36.442c0,6.678,2.024,9.838,5.953,10.09
		c3.412,0.218,5.808-2.687,5.227-5.444s-4.139-3.774-6.098-2.179c-1.96,1.598-1.162,3.703-1.162,3.703
		S20.385,170.896,19.804,164.145z M19.877,43.49c0,0-2.396-1.451-4.719,0c-2.322,1.453-2.395,2.758-3.121,3.121
		c-0.726,0.361-0.726,0.361-0.726,0.361s1.67,1.233,3.775,0.51C17.191,46.755,19.877,43.49,19.877,43.49z M61.585,60.174
		l53.503-53.287c0.084-0.08,0.129-0.193,0.129-0.306c0-0.058-0.012-0.114-0.035-0.167c-0.066-0.163-0.225-0.27-0.398-0.27H6.604
		c-0.127,0-0.26,0.07-0.343,0.164C6.194,6.391,6.156,6.49,6.156,6.594v108.188c0,0.176,0.107,0.335,0.27,0.4
		c0.163,0.068,0.351,0.031,0.475-0.094l53.285-53.505L61.585,60.174z M58.888,59.326c-0.675,0.459-2.935,1.854-6.218,2.52
		c0.383-4.015-0.403-8.1-2.446-11.629c3.516,2.032,7.58,2.819,11.579,2.446c-0.885,4.049-2.92,6.657-2.92,6.657L58.888,59.326z
		 M29.315,49.299c-1.234-2.759-4.938-2.688-5.953-0.801c-1.017,1.887,0.436,3.559,1.887,3.63c1.452,0.072,1.743-1.305,1.743-1.305
		s0.653,1.594-0.799,2.757c-1.451,1.161-4.864,0.579-5.372-3.193c-0.507-3.774,3.122-7.332,7.55-8.203
		c1.934-0.381,4.339-0.512,6.864-0.199c0.588,3.105,0.583,6.475-0.113,9.927c-1.517,7.515-6.243,12.485-12.559,11.615
		c-5.908-0.814-8.784-5.663-7.623-10.744c1.162-5.081,5.735-7.259,5.735-7.259s-0.798,0.652-1.016,2.611
		c-0.218,1.963,0.872,6.244,4.717,7.115C28.225,56.12,30.548,52.057,29.315,49.299z M39.791,41.787
		c-0.217-1.697-0.446-2.604-0.488-2.762c0.097,0.037,0.871,0.328,2.436,0.611c0.45,1.334,1.048,2.631,1.783,3.877
		C42.321,42.807,41.073,42.23,39.791,41.787z M48.501,23.348c-1.887,1.019-1.958,4.722,0.799,5.955
		c2.758,1.231,6.824-1.09,5.952-4.938c-0.871-3.848-5.155-4.936-7.115-4.719c-1.959,0.218-2.612,1.019-2.612,1.019
		s2.178-4.571,7.259-5.735c5.081-1.162,9.929,1.715,10.743,7.623c0.871,6.314-4.102,11.043-11.614,12.559
		c-3.453,0.697-6.822,0.701-9.928,0.113c-0.312-2.525-0.181-4.932,0.199-6.865c0.871-4.428,4.429-8.057,8.204-7.551
		c3.775,0.508,4.355,3.922,3.193,5.373c-1.161,1.451-2.758,0.797-2.758,0.797s1.379-0.289,1.307-1.741
		C52.058,23.784,50.388,22.333,48.501,23.348z M40.854,35.967c0.088,0.59,0.209,1.176,0.347,1.758
		c-2.369-0.492-4.063-1.023-4.271-1.09l-0.032-0.031c0,0,0.005,0.019,0.006,0.022c-0.002-0.001-0.016-0.005-0.016-0.005l0.02,0.02
		c0.054,0.201,0.548,2.055,0.987,4.597c-0.636-0.154-1.275-0.289-1.918-0.386c-0.746-3.219-2.064-6.373-4.114-8.994
		C34.486,33.904,37.637,35.223,40.854,35.967z M47.833,42.447l-0.006,0.007c-0.012,0.011-0.026,0.019-0.038,0.03l-2.134,2.133
		c-1.133-1.486-1.972-3.107-2.571-4.771c1.343,0.18,3.058,0.322,5.199,0.349c6.316,0.069,10.962-2.181,10.962-2.181
		s2.323,2.758,2.904,9.584c0.116,1.361,0.05,2.643-0.121,3.826c-5.481,0.479-10.503-1.408-13.951-4.291l2.22-2.221
		c0.679-0.68,0.679-1.784,0-2.465C49.616,41.768,48.514,41.768,47.833,42.447z M44.624,45.648l-2.172,2.171
		c-0.681,0.681-0.681,1.786,0,2.466c0.607,0.605,1.547,0.667,2.227,0.193c0.099-0.064,0.193-0.141,0.28-0.228l2.181-2.182
		c2.891,3.452,4.781,8.487,4.294,13.983c-1.177,0.154-2.456,0.209-3.827,0.094c-6.824-0.582-9.582-2.905-9.582-2.905
		s2.249-4.646,2.178-10.962c-0.024-2.086-0.132-3.801-0.265-5.169C41.571,43.708,43.163,44.535,44.624,45.648z M61.625,58.904
		c0.665-1.391,1.459-3.557,1.873-6.469c2.679-0.473,5.27-1.469,7.594-2.959L61.625,58.904z M30.112,75.576
		c-2.105,1.018-4.282,1.018-4.282,1.018s10.346,4.525,18.321-0.145L7.028,113.727L7.027,7.016h106.7L76.448,44.143
		c4.667-7.974,0.147-18.322,0.147-18.322s0,2.177-1.016,4.279c-1.016,2.107-2.541,4.431-1.96,6.463
		c0.582,2.031,3.702,2.105,3.702,2.105s-1.087,8.202-9.944,11.542c-1.254,0.474-2.501,0.793-3.734,1.005
		c0.122-1.277,0.173-2.671,0.104-4.199c-0.364-7.912-3.92-11.181-3.92-11.181s-4.066,2.325-10.019,2.687
		c-2.447,0.149-5.06-0.146-7.296-0.545c-0.149-0.584-0.279-1.166-0.377-1.746c3.425,0.635,6.849,0.658,9.706,0.261
		c6.751-0.945,12.632-5.154,12.923-11.616c0.014-0.322,0.013-0.63,0.01-0.936c0.133,0.959,0.212,2.219,0.135,3.84
		C64.69,32.354,63.602,37,66.724,37.941c3.121,0.945,5.517-2.105,4.428-4.646s-4.066-1.959-4.501-0.146
		c-0.436,1.816,1.018,2.324,1.018,2.324s-1.38,0-1.888-1.453c-0.509-1.449,0-3.627,0-7.549c0-3.021-1.333-6.119-1.947-7.387
		c-1.086-2.558-2.862-3.951-4.006-4.592c-0.987-0.553-1.45-0.691-1.676-0.709c0.899-0.219,4.622-0.875,9.661,1.58
		c4.585,2.234,7.332,4.72,11.905,6.751c4.572,2.032,7.766,3.994,7.766,6.315c0,1.988-2.708,2.486-3.489,2.59
		c0.097-0.022,0.234-0.061,0.439-0.121c0.726-0.219,2.07-1.194,1.451-3.051c-0.508-1.522-2.976-2.104-4.282-0.504
		c-1.306,1.594-0.29,4.135,1.959,4.57c2.25,0.438,5.375-1.234,4.938-4.57c-0.234-1.803-1.672-3.029-2.947-3.781
		c0.56,0.142,1.237,0.255,2.074,0.295c3.053,0.146,6.102-1.088,6.684-4.719c0.578-3.631-1.889-5.662-4.283-5.734
		c-2.399-0.072-4.504,2.031-3.707,4.5s4.503,1.959,5.013,0.074c0.508-1.887-0.945-2.471-0.945-2.471s2.541-0.289,2.758,2.76
		c0.221,3.047-2.322,5.226-6.68,4.572c-3.894-0.582-10.017-4.428-10.017-4.428s3.412,1.309,5.878-0.582
		c2.468-1.889,1.888-5.152,0.29-6.171c-1.594-1.015-2.974,1.019-2.031,2.181c0.945,1.161,1.885,0.071,1.885,0.071
		s0.437,0.87-1.085,1.741c-1.525,0.871-5.351-0.693-13.213-2.321c-8.057-1.672-18.221-1.091-23.593,6.604
		c-1.658,2.375-2.805,5.104-3.423,7.968c-0.032-0.286-0.062-0.64-0.062-0.998c0-0.8-0.436-3.05-3.267-4.574
		c-2.831-1.524-5.009,0.438-4.429,2.396c0.582,1.961,2.903,2.033,3.485,0.508c0.581-1.522-0.798-2.104-0.798-2.104
		s2.468-0.437,3.92,1.67c1.452,2.104,0.653,5.516,0.653,5.516l0.173-0.543c-0.222,1.709-0.272,3.447-0.096,5.176
		c-3.505-0.865-6.625-2.506-9.079-4.775c-0.189-0.176-0.361-0.355-0.539-0.537l1.16-1.158c0.505-0.508,0.505-1.324,0-1.83
		c-0.505-0.504-1.323-0.504-1.828,0l-0.998,0.998c-2.798-4.021-2.936-8.547-1.207-11.41c2.105-3.485,6.243-2.469,7.332-1.381
		c1.089,1.088,1.089,1.525,1.089,1.525s-0.727-0.945-1.816-0.146c-1.089,0.798-1.017,3.555,1.38,3.702
		c2.395,0.146,3.709-3.606,1.089-5.881c-2.759-2.396-7.042-1.889-9.438,0.871c-2.077,2.392-2.837,8.438,0.734,13.553l-0.131,0.132
		c-5.113-3.567-11.157-2.808-13.548-0.731c-2.759,2.396-3.267,6.68-0.872,9.438c2.276,2.62,6.026,1.305,5.881-1.089
		c-0.146-2.397-2.903-2.469-3.703-1.383c-0.797,1.092,0.146,1.818,0.146,1.818s-0.436,0-1.525-1.09s-2.105-5.229,1.378-7.332
		c2.862-1.73,7.387-1.594,11.406,1.203l-1.162,1.16c-0.504,0.504-0.504,1.324,0,1.83c0.505,0.504,1.324,0.504,1.829,0l1.326-1.325
		c0.181,0.178,0.363,0.351,0.54,0.542c2.271,2.455,3.911,5.574,4.776,9.078c-1.726-0.174-3.46-0.125-5.167,0.097l0.537-0.172
		c0,0-3.413,0.798-5.518-0.654c-2.105-1.452-1.668-3.92-1.668-3.92s0.579,1.38,2.104,0.798c1.525-0.58,1.452-2.902-0.507-3.48
		c-1.961-0.584-3.921,1.594-2.397,4.426s3.775,3.268,4.573,3.268c0.358,0,0.712,0.028,0.998,0.062
		c-2.862,0.618-5.591,1.764-7.966,3.421c-7.696,5.374-8.275,15.536-6.607,23.597c1.63,7.858,3.194,11.687,2.323,13.214
		c-0.87,1.525-1.742,1.092-1.742,1.092s1.09-0.942-0.072-1.89c-1.161-0.948-3.193,0.437-2.177,2.035
		c1.016,1.597,4.283,2.177,6.17-0.292c1.887-2.475,0.581-5.885,0.581-5.885s3.844,6.132,4.427,10.021
		c0.654,4.354-1.523,6.896-4.573,6.678c-3.048-0.217-2.758-2.758-2.758-2.758s0.581,1.451,2.468,0.942
		c1.887-0.507,2.396-4.209-0.072-5.006c-2.468-0.797-4.573,1.304-4.501,3.702c0.072,2.394,2.104,4.861,5.734,4.281
		c3.63-0.58,4.864-3.631,4.719-6.679c-0.04-0.838-0.154-1.515-0.294-2.075c0.751,1.274,1.978,2.711,3.779,2.946
		c3.338,0.435,5.009-2.683,4.573-4.933c-0.435-2.25-2.976-3.272-4.573-1.959c-1.598,1.304-1.017,3.773,0.508,4.281
		c1.854,0.619,2.83-0.729,3.049-1.451c0.06-0.2,0.097-0.336,0.12-0.435c-0.105,0.791-0.606,3.48-2.588,3.48
		c-2.322,0-4.283-3.193-6.314-7.772c-2.033-4.572-4.518-7.318-6.752-11.904c-2.455-5.037-1.799-8.758-1.582-9.657
		c0.018,0.226,0.159,0.688,0.709,1.672c0.641,1.146,2.034,2.921,4.593,4.007c1.266,0.613,4.366,1.945,7.386,1.945
		c3.92,0,6.098-0.51,7.55,0c1.452,0.509,1.452,1.889,1.452,1.889s-0.508-1.451-2.322-1.016c-1.816,0.434-2.396,3.41,0.144,4.5
		c2.541,1.088,5.59-1.309,4.647-4.428c-0.944-3.123-5.59-2.033-10.163-1.816c-1.619,0.076-2.877-0.002-3.835-0.135
		c0.304,0.002,0.609,0.004,0.93-0.01c6.461-0.289,10.672-6.171,11.615-12.923c0.399-2.854,0.376-6.278-0.258-9.704
		c0.618,0.104,1.241,0.243,1.863,0.405c0.335,2.263,0.574,4.867,0.428,7.269c-0.363,5.951-2.687,10.017-2.687,10.017
		s3.268,3.56,11.18,3.919c1.533,0.07,2.925,0.025,4.197-0.087c-0.211,1.228-0.531,2.47-1.002,3.719
		c-3.34,8.854-11.543,9.945-11.543,9.945s-0.074-3.122-2.106-3.703C34.54,73.036,32.218,74.561,30.112,75.576z M49.487,71.092
		c1.487-2.315,2.482-4.9,2.957-7.57c2.847-0.379,4.952-1.109,6.303-1.728L49.487,71.092z M13.7,48.78c0,0-1.944,0.448-3.066,2.468
		s-2.169,2.318-2.169,2.318s2.394,0.523,3.964-0.822C13.999,51.398,13.7,48.78,13.7,48.78z M53.265,55.461l2.278,0.266l-0.291-2.395
		l-2.794-0.654L53.265,55.461z M51.759,47.762c0,0,2.467,1.894,4.433,1.822c1.966-0.07,1.536-2.502-0.573-2.181
		S51.759,47.762,51.759,47.762z M44.37,52.018c0,0-1.525,2.401-2.622,3.602c-1.991,2.178,0.476,4.396,1.948,2.566
		C45.166,56.362,44.37,52.018,44.37,52.018z M48.874,56.212c0.155-1.962-1.632-4.506-1.632-4.506s-0.11,1.746-0.524,3.84
		C46.306,57.641,48.718,58.174,48.874,56.212z M126.945,0.201l-0.217,0.002H-0.199l0.009,125.598h1.156L0.958,1.36h125.987V0.201
		L126.945,0.201z M5.082,125.842l9.051-8.947l-0.011,8.914l1.156,0.002l0.012-10.061l18.209-18.002
		c-0.354,0.596-0.475,1.157-0.411,1.932c0.146,1.742,2.323,2.687,3.703,1.742c1.379-0.941,1.089-3.048,0.146-3.701
		c-0.944-0.654-2.105,0.146-2.105,0.146l20.936-21.65c-0.356,0.727-0.667,1.502-0.899,2.336c-1.743,6.248,1.161,13.07,6.533,13.506
		c5.066,0.41,6.387-4.936,4.21-7.258c-2.178-2.32-5.299-0.798-5.59,1.525c-0.291,2.32,1.597,2.756,1.597,2.756s0,0-1.161-0.291
		c-1.161-0.29-4.646-3.482-4.209-9.875c0.151-2.214,0.951-4.068,1.926-5.562l6.183-6.111c0.152,1.421,1.34,2.531,2.801,2.531
		c1.563,0,2.831-1.269,2.831-2.832c0-1.449-1.094-2.631-2.499-2.797l6.381-6.31c1.398-0.823,3.085-1.468,5.049-1.603
		c6.385-0.434,9.582,3.051,9.873,4.212s0.291,1.161,0.291,1.161s-0.436-1.889-2.761-1.598c-2.323,0.289-3.849,3.412-1.525,5.59
		c2.324,2.178,7.673,0.857,7.263-4.209c-0.436-5.373-7.263-8.276-13.504-6.535c-0.833,0.231-1.608,0.541-2.334,0.897l21.645-20.933
		c0,0-0.797,1.16-0.146,2.104c0.656,0.945,2.761,1.235,3.703-0.145c0.942-1.381,0-3.557-1.742-3.703
		c-0.287-0.023-0.539-0.014-0.78,0.014l17.645-17.443l9.461,0.013l0.002-1.156l-8.296-0.01l8.642-8.542l-0.75-0.875L3.27,125.826
		L5.082,125.842z"/>
</g>
<polyline fill="none" stroke="#000000" points="119.975,11.543 126.434,4.876 126.476,15.648 "/>
<line fill="none" stroke="#000000" stroke-width="1.1" x1="14.843" y1="125.285" x2="4.801" y2="125.285"/>
</svg>
