<?xml version="1.0" encoding="utf-8"?>
<!-- Generator: Adobe Illustrator 13.0.0, SVG Export Plug-In . SVG Version: 6.00 Build 14948)  -->
<!DOCTYPE svg PUBLIC "-//W3C//DTD SVG 1.1 Tiny//EN" "http://www.w3.org/Graphics/SVG/1.1/DTD/svg11-tiny.dtd">
<svg version="1.1" baseProfile="tiny" id="Layer_1" xmlns="http://www.w3.org/2000/svg" xmlns:xlink="http://www.w3.org/1999/xlink"
	 x="0px" y="0px" width="175px" height="175px" viewBox="-0.123 -0.062 175 175" xml:space="preserve">
<g>
	<path d="M18.865,75.438L9.14,66.002v15.389c0,0,0.288-2.324,2.759-4.646C14.367,74.42,18.865,75.438,18.865,75.438z
		 M16.691,157.034c-4.5-5.082-5.811-9.292-5.811-9.292v15.971h16.266C27.146,163.713,21.189,162.116,16.691,157.034z M87.347,86.117
		l10.314-10.057c0,0-1.472,0.844-4.521,1.459c-2.387,0.48-4.199,0.32-4.199,0.32s0.17,0.896-0.146,2.901
		C88.359,83.502,87.347,86.117,87.347,86.117z M44.297,116.44c-1.393-1.89-3.953,0.222-2.057,2.483
		c1.045,1.244,2.468,3.711,2.468,3.711S45.688,118.329,44.297,116.44z M23.078,157.324c0,0,0,0,0.438-2.469
		c0.434-2.467,1.777-5.189,1.777-5.189s-1.65,0.736-3.993,1.051c-2.435,0.328-4.101,0.365-4.101,0.365s0.07,2.467,1.959,4.209
		C21.045,157.034,23.078,157.324,23.078,157.324z M66.054,98.088c0.581,2.322,1.888,5.664,1.888,5.664s1.89-4.211,1.019-6.97
		C68.088,94.023,65.473,95.764,66.054,98.088z M61.191,99.104c0.361,3.048,3.992,5.228,3.992,5.228s0.581-3.486-0.871-5.81
		C62.859,96.201,60.984,97.373,61.191,99.104z M51.971,81.316c-1.232-0.434-2.613,1.527-1.888,4.721
		c0.726,3.196,2.612,7.116,2.612,7.116s-0.289-1.306,0.146-4.937S53.204,81.754,51.971,81.316z M48.342,87.419
		c0,0-0.291-1.817-0.22-4.649c0.071-2.83-0.941-5.808-2.541-5.591c-1.595,0.218-1.74,2.902-0.288,5.519
		C46.525,84.916,48.342,87.419,48.342,87.419z M40.499,76.816c-1.306,0.438-1.017,2.613,0.292,4.428
		c1.306,1.816,3.63,3.557,3.63,3.557s-0.8-1.739-1.308-4.063C42.607,78.414,41.807,76.381,40.499,76.816z M22.497,59.395
		c1.308-1.307,1.019-4.355-1.597-4.719c-2.613-0.363-2.541,1.815-2.541,1.815s-0.072-0.293,0.217-1.307
		c0.289-1.021,2.251-3.777,6.68-3.414c4.43,0.362,8.13,5.442,5.662,9.364c-2.469,3.92-7.186,2.902-7.26,3.121
		c-0.073,0.217,2.796,4.271,7.586,6.306c2.713,1.149,6.154,1.674,9.398,1.364c2.312,3.146,6.426,5.021,10.891,4.599
		c7.162-0.679,9.074-6.533,9.074-6.533l3.836,3.731c-1.28,4.515,0.623,9.518,5.021,10.425c4.574,0.942,7.84-2.759,6.75-6.459
		c-1.088-3.703-5.009-4.359-6.968-2.688c-0.359,0.308-0.604,0.607-0.769,0.896l-2.396-2.457c1.32-3.031,4.729-5.575,9.406-5.48
		c3.022,0.062,5.394,1.871,6.771,4.354c-1.689,0.808-3.245,2.062-4.158,4.068c-1.367,3.011-0.961,7.015-0.584,10.233
		c-3.842,1.94-7.545,1.312-7.545,1.312s0.871,3.412,0.797,7.402c-0.07,3.994-1.017,5.881-1.017,5.881l1.744-1.451
		c0,0,0.435-1.672,0.579-4.864c0.146-3.192-0.146-5.153-0.146-5.153s0.871-0.072,2.978-0.508c0.648-0.135,1.656-0.477,2.787-1.064
		c0.05,0.455,0.092,0.887,0.117,1.282c0.217,3.341-1.091,4.79-1.091,4.79l2.25-2.395c0,0,0.218-0.582,0.218-1.959
		c0-0.584-0.104-1.395-0.229-2.462c2.231-1.454,4.595-3.827,5.537-7.413c0.702-2.678,0.452-5.191-0.459-7.315
		c0.284-0.108,0.582-0.212,0.893-0.308c4.718-1.453,11.759,0.145,14.954-2.033c2.413-1.645,2.042-4.891,0.073-5.736
		c-2.033-0.871-3.849,1.09-3.269,2.76c0.574,1.648,2.979,1.742,3.34,0.219c0.363-1.524-1.16-1.67-1.16-1.67s1.596-0.508,1.887,0.943
		c0.289,1.451-0.945,3.049-3.413,3.484c-2.467,0.436-7.259,0.145-10.161,0.58c-1.066,0.16-2.332,0.4-3.596,0.838
		c-1.127-2.043-2.9-3.645-5.047-4.539c-5.428-2.268-11.293-0.043-13.578,5.057l-4.717-4.84c0,0-1.161,5.59-5.952,7.332
		s-9.001,0.219-11.906-3.049c-0.016-0.018-0.028-0.039-0.044-0.057c1.854-0.361,3.582-1.018,4.993-2.025
		c4.457-3.182,5.077-9.906,0.567-12c-4.063-1.889-9.071,2.23-9.205,8.182c-0.034,1.62,0.313,3.135,0.963,4.485
		c-1.428,0.185-2.914,0.163-4.389-0.108c-5.519-1.018-9.509-5.082-9.509-5.082s0.798,0.291,3.191-0.653
		c2.396-0.943,4.792-4.572,3.268-8.638s-7.04-6.535-11.397-4.647c-4.354,1.889-4.936,6.024-3.557,7.916
		C18.763,61.145,21.189,60.701,22.497,59.395z M81.452,83.494c-0.839,0.992-1.741,1.764-2.658,2.374
		c-0.118-1.219-0.226-2.688-0.253-4.478c-0.062-3.776,1.123-6.461,4.191-8.1C84.105,76.529,83.912,80.579,81.452,83.494z
		 M65.619,74.866l2.656,2.583c0.133,0.461,0.393,0.748,0.393,0.748s-0.51-0.508,1.016-1.744c1.523-1.232,5.661-0.145,4.791,3.412
		c-0.871,3.559-6.969,2.904-8.64-1.598C65.434,77.183,65.38,76.014,65.619,74.866z M43.331,59.467
		c3.121-2.033,6.823,1.088,5.011,5.229c-1.138,2.596-3.818,4.503-7.021,5.314C39.771,66.455,40.688,61.189,43.331,59.467z
		 M58.143,76.6c0,0.881,0.715,1.598,1.596,1.598c0.884,0,1.599-0.717,1.599-1.598c0-0.883-0.715-1.598-1.599-1.598
		C58.857,75.002,58.143,75.717,58.143,76.6z M41.008,103.896c0.885,0,1.6-0.716,1.6-1.597c0-0.883-0.715-1.598-1.6-1.598
		c-0.881,0-1.595,0.715-1.595,1.598C39.413,103.18,40.127,103.896,41.008,103.896z M9.193,97.735c0,0.882,0.717,1.597,1.6,1.597
		s1.598-0.715,1.598-1.597s-0.715-1.597-1.598-1.597S9.193,96.854,9.193,97.735z M35.129,63.459c-0.882,0-1.598,0.715-1.598,1.599
		c0,0.883,0.716,1.598,1.598,1.598c0.881,0,1.598-0.715,1.598-1.598C36.727,64.174,36.01,63.459,35.129,63.459z M53.348,78.703
		c0,0.643,0.521,1.164,1.163,1.164c0.64,0,1.163-0.521,1.163-1.164c0-0.639-0.523-1.16-1.163-1.16
		C53.869,77.543,53.348,78.064,53.348,78.703z M22.623,43.666c0,0.523,0.428,0.949,0.953,0.949c0.523,0,0.949-0.426,0.949-0.949
		c0-0.527-0.426-0.953-0.949-0.953C23.051,42.713,22.623,43.139,22.623,43.666z M45.438,106.074c0.643,0,1.162-0.521,1.162-1.163
		c0-0.641-0.521-1.161-1.162-1.161c-0.643,0-1.16,0.521-1.16,1.161C44.275,105.553,44.795,106.074,45.438,106.074z M35.129,94.821
		c0.643,0,1.162-0.521,1.162-1.162c0-0.639-0.521-1.159-1.162-1.159c-0.643,0-1.161,0.521-1.161,1.159
		C33.968,94.301,34.486,94.821,35.129,94.821z M31.861,131.117c0.643,0,1.162-0.52,1.162-1.162c0-0.642-0.521-1.162-1.162-1.162
		c-0.641,0-1.162,0.521-1.162,1.162C30.699,130.598,31.221,131.117,31.861,131.117z M32.516,125.457
		c0.641,0,1.161-0.521,1.161-1.162c0-0.642-0.521-1.162-1.161-1.162c-0.642,0-1.162,0.52-1.162,1.162
		C31.354,124.937,31.874,125.457,32.516,125.457z M30.847,117.762c0-0.643-0.522-1.162-1.161-1.162
		c-0.644,0-1.162,0.521-1.162,1.162c0,0.641,0.52,1.16,1.162,1.16C30.324,118.922,30.847,118.402,30.847,117.762z M22.714,113.985
		c-0.64,0-1.16,0.521-1.16,1.162c0,0.641,0.521,1.161,1.16,1.161c0.644,0,1.162-0.521,1.162-1.161
		C23.876,114.506,23.357,113.985,22.714,113.985z M8.996,117.176c0,0.554,0.451,1.002,1.004,1.002c0.554,0,1.004-0.448,1.004-1.002
		c0-0.555-0.45-1.002-1.004-1.002C9.447,116.174,8.996,116.621,8.996,117.176z M9.449,113.014c0.568,0,1.031-0.461,1.031-1.03
		c0-0.567-0.463-1.029-1.031-1.029c-0.567,0-1.029,0.462-1.029,1.029C8.42,112.553,8.882,113.014,9.449,113.014z M9.826,108.451
		c0.656,0,1.188-0.529,1.188-1.188c0-0.655-0.531-1.188-1.188-1.188c-0.655,0-1.189,0.532-1.189,1.188
		C8.637,107.922,9.171,108.451,9.826,108.451z M10.273,104.047c0.656,0,1.188-0.531,1.188-1.188s-0.531-1.188-1.188-1.188
		c-0.654,0-1.188,0.531-1.188,1.188S9.618,104.047,10.273,104.047z M51.025,79.213c0-0.358-0.293-0.653-0.651-0.653
		c-0.361,0-0.654,0.295-0.654,0.653c0,0.361,0.293,0.652,0.654,0.652C50.732,79.865,51.025,79.574,51.025,79.213z M47.541,109.049
		c0.359,0,0.652-0.293,0.652-0.653c0-0.361-0.293-0.653-0.652-0.653c-0.36,0-0.65,0.292-0.65,0.653
		C46.891,108.756,47.181,109.049,47.541,109.049z M76.941,95.465c-1.367,0-2.477,1.109-2.477,2.478s1.107,2.478,2.477,2.478
		c1.367,0,2.478-1.108,2.478-2.478C79.419,96.574,78.311,95.465,76.941,95.465z M28.886,42.842c0,0,0.653-0.217,2.179,0
		c1.523,0.221,3.558,1.092,5.518,0.727c1.96-0.361,1.96-3.631-1.598-3.631C31.428,39.938,28.886,42.842,28.886,42.842z
		 M27.869,32.898c0.436-2.688-2.032-3.195-2.832-2.033c-0.799,1.162-0.289,2.615-0.145,4.574c0.144,1.959-0.146,2.539-0.146,2.539
		S27.434,35.582,27.869,32.898z M27.902,40.49c-0.277-0.474-0.787-0.795-1.373-0.795c-0.885,0-1.598,0.715-1.598,1.598
		s0.713,1.599,1.598,1.599c0.881,0,1.598-0.716,1.598-1.599c0-0.211-0.043-0.414-0.119-0.6c0.432-0.275,3.193-1.952,7.121-2.354
		c4.284-0.435,7.457-0.869,9.146-2.611c2.252-2.324,1.004-5.332-1.307-5.59c-2.615-0.291-3.416,2.535-2.251,3.774
		c1.088,1.16,2.902,0.509,3.122-0.727c0.062-0.357,0.061-0.609,0.031-0.8c0.277,0.572,0.516,1.568-0.323,2.687
		c-1.308,1.742-4.646,2.252-8.058,2.613c-3.411,0.362-5.735,1.524-6.461,2.032c-0.578,0.406-0.914,0.798-1.032,0.944
		c-0.015-0.032-0.035-0.062-0.052-0.096c0.174-0.175,0.447-0.479,0.726-0.944c0.442-0.729,1.405-3.039,1.53-6.34
		c0.123-3.303,0.394-6.545,1.982-7.914c1.018-0.876,1.986-0.717,2.555-0.488c-0.183-0.015-0.424,0.002-0.76,0.084
		c-1.173,0.293-1.683,2.08-0.494,3.049c1.271,1.037,3.933,0.08,3.479-2.409c-0.396-2.201-3.371-3.203-5.455-0.89
		c-1.563,1.736-1.774,4.816-1.909,8.959C29.484,37.118,28.303,39.709,27.902,40.49z M40.57,24.477
		c-2.248,1.887-2.248,5.371-2.248,5.371s4.719-1.232,5.59-3.338C44.783,24.403,42.824,22.588,40.57,24.477z M32.949,32.752
		c-1.379,1.308-2.104,4.865-2.104,4.865s5.372-1.816,5.444-4.068C36.363,31.301,34.33,31.445,32.949,32.752z M34.475,19.975
		c0.104-1.752-1.379-1.379-1.379-1.379s6.604-4.355,13.067,2.322c6.165,6.375,3.267,13.866,2.903,14.737
		c-0.364,0.871-1.162,1.308-1.162,1.308s-0.289-1.308-1.596-1.019c-1.31,0.291-1.388,2.502,0.144,2.832
		c2.034,0.437,4.866-2.178,4.647-9.582c-0.244-8.283-6.75-13.344-13.722-12.994c-5.81,0.289-6.17,3.123-5.59,4.063
		C32.652,21.668,34.404,21.209,34.475,19.975z M50.736,18.814c0.723,0,1.307-0.584,1.307-1.309c0-0.722-0.584-1.306-1.307-1.306
		s-1.308,0.584-1.308,1.306C49.43,18.23,50.016,18.814,50.736,18.814z M45.945,15.328c0.722,0,1.307-0.584,1.307-1.307
		c0-0.721-0.585-1.307-1.307-1.307c-0.724,0-1.308,0.586-1.308,1.307C44.639,14.744,45.223,15.328,45.945,15.328z M40.355,13.732
		c0.722,0,1.308-0.584,1.308-1.307c0-0.724-0.586-1.308-1.308-1.308c-0.72,0-1.307,0.584-1.307,1.308
		C39.049,13.148,39.636,13.732,40.355,13.732z M34.55,13.951c0.722,0,1.306-0.586,1.306-1.309c0-0.721-0.584-1.307-1.306-1.307
		c-0.724,0-1.308,0.586-1.308,1.307C33.242,13.365,33.826,13.951,34.55,13.951z M34.591,51.154c0-0.721-0.585-1.305-1.304-1.305
		c-0.725,0-1.309,0.584-1.309,1.305c0,0.725,0.584,1.309,1.309,1.309C34.006,52.463,34.591,51.879,34.591,51.154z M26.551,53.637
		c-0.724,0-1.307,0.586-1.307,1.307c0,0.723,0.582,1.307,1.307,1.307c0.721,0,1.305-0.584,1.305-1.307
		C27.855,54.223,27.271,53.637,26.551,53.637z M27.664,48.367c0,0.578,0.468,1.043,1.044,1.043c0.575,0,1.043-0.465,1.043-1.043
		c0-0.574-0.468-1.045-1.043-1.045C28.132,47.322,27.664,47.793,27.664,48.367z M28.602,59.83c0.578,0,1.045-0.469,1.045-1.045
		c0-0.578-0.467-1.043-1.045-1.043c-0.576,0-1.043,0.465-1.043,1.043C27.559,59.361,28.025,59.83,28.602,59.83z M22.824,48.051
		c0,0.442,0.356,0.801,0.801,0.801c0.441,0,0.801-0.357,0.801-0.801c0-0.441-0.359-0.801-0.801-0.801
		C23.182,47.25,22.824,47.609,22.824,48.051z M24.888,61.811c0,0.441,0.356,0.801,0.8,0.801c0.441,0,0.801-0.359,0.801-0.801
		c0-0.442-0.358-0.801-0.801-0.801C25.244,61.01,24.888,61.369,24.888,61.811z M28.523,14.822c0,0.721,0.586,1.307,1.308,1.307
		s1.307-0.586,1.307-1.307c0-0.723-0.585-1.307-1.307-1.307S28.523,14.1,28.523,14.822z M53.494,23.533
		c0.722,0,1.307-0.586,1.307-1.309c0-0.721-0.585-1.305-1.307-1.305c-0.721,0-1.305,0.584-1.305,1.305
		C52.189,22.947,52.773,23.533,53.494,23.533z M53.857,27.814c0,0.723,0.586,1.309,1.307,1.309c0.723,0,1.307-0.586,1.307-1.309
		c0-0.721-0.584-1.305-1.307-1.305C54.443,26.51,53.857,27.094,53.857,27.814z M54.947,34.93c0.723,0,1.306-0.586,1.306-1.308
		c0-0.721-0.583-1.307-1.306-1.307s-1.309,0.586-1.309,1.307C53.639,34.344,54.225,34.93,54.947,34.93z M52.554,38.197
		c-0.726,0-1.308,0.584-1.308,1.307c0,0.724,0.582,1.308,1.308,1.308c0.72,0,1.304-0.584,1.304-1.308
		C53.857,38.781,53.273,38.197,52.554,38.197z M18.953,49.123c0.721,0,1.307-0.586,1.307-1.307c0-0.225-0.07-0.424-0.17-0.607
		c0.938-0.654,2.627-1.521,5.312-1.826C28.797,45,33.632,46.59,36,48.867c3.85,3.703,1.962,6.971,1.962,6.971
		s0.071-1.524-1.744-1.744c-1.813-0.217-3.411,2.326-1.524,3.994c1.89,1.668,6.317,0.58,5.736-4.862
		c-0.58-5.445-7.188-6.896-7.188-6.896s8.64,1.671,11.904-0.217c3.269-1.89,2.688-5.375,1.09-6.463s-4.354-0.22-4.14,2.033
		c0.22,2.252,2.687,2.104,3.413,1.231c0.727-0.871,0.217-1.812,0.217-1.812s1.09,1.448-0.217,3.338
		c-1.308,1.889-4.938,1.672-9.146,1.233c-4.209-0.436-8.493-1.307-12.123-0.436c-1.953,0.469-3.336,1.318-4.161,1.952
		c-0.127-0.226-0.312-0.41-0.542-0.527c0.88-0.991,2.805-3.636,3.47-8.394c0.574-4.115-0.364-11.18,0.144-14.881
		c0.511-3.703,2.326-4.285,3.195-4.139c0.872,0.143,1.016,1.159,1.016,1.159s-0.724-1.233-1.959-0.146
		c-1.234,1.09-0.291,2.978,1.235,2.902c1.522-0.07,2.976-1.521,2.031-3.844c-0.944-2.324-4.458-2.389-6.097,0.068
		c-1.454,2.182-0.727,9.147-0.438,11.691c0.292,2.538,0.22,8.129-0.798,11.178c-0.702,2.104-1.498,3.603-1.93,4.34
		c-0.144-0.055-0.293-0.092-0.453-0.092c-0.721,0-1.307,0.584-1.307,1.307C17.648,48.537,18.232,49.123,18.953,49.123z
		 M18.865,37.617c-0.141-5.373,0.238-21.256,0.727-26.934c0.583-6.752,2.398-6.752,2.398-6.752s-0.801,2.104,1.158,3.703
		c1.961,1.598,5.52,0.58,6.099-2.178c0.583-2.759-1.813-5.664-5.226-5.445c-3.93,0.252-5.951,3.412-5.951,10.09
		c0,6.682,0,36.443,0,36.443l0.795-1.019C18.865,45.527,19.014,42.986,18.865,37.617z M11.102,127.851c0,0,0,0,0.726,0.362
		c0.726,0.363,0.799,1.67,3.122,3.123c2.32,1.451,4.717,0,4.717,0s-2.686-3.268-4.792-3.994
		C12.771,126.617,11.102,127.851,11.102,127.851z M13.49,126.045c0,0,0.299-2.617-1.271-3.963c-1.57-1.347-3.965-0.824-3.965-0.824
		s1.048,0.301,2.171,2.319C11.545,125.596,13.49,126.045,13.49,126.045z M93.238,165.479h15.39l-9.437-9.729
		c0,0,1.017,4.502-1.306,6.969C95.562,165.188,93.238,165.479,93.238,165.479z M97.611,76.111l-10.153,9.916
		c0,0,2.612-1.02,5.371-1.455c2.008-0.316,2.903-0.146,2.903-0.146s-0.125-2.022,0.42-4.233
		C96.854,77.367,97.611,76.111,97.611,76.111z M77.846,105.66c-2.758-0.869-6.97,1.018-6.97,1.018s3.34,1.306,5.662,1.887
		C78.861,109.146,80.609,106.531,77.846,105.66z M75.521,113.428c1.73,0.207,2.903-1.67,0.582-3.123
		c-2.322-1.45-5.809-0.87-5.809-0.87S72.472,113.065,75.521,113.428z M93.311,122.647c-0.435-1.234-3.266-1.308-6.895-0.871
		s-4.934,0.146-4.934,0.146s3.916,1.888,7.108,2.613C91.786,125.262,93.748,123.881,93.311,122.647z M97.447,129.035
		c0.221-1.597-2.758-2.613-5.588-2.541c-2.832,0.073-4.644-0.218-4.644-0.218s2.495,1.815,4.714,3.048
		C94.545,130.777,97.232,130.633,97.447,129.035z M93.383,133.826c1.814,1.307,3.994,1.598,4.43,0.291
		c0.435-1.307-1.599-2.104-3.92-2.613c-2.324-0.508-4.064-1.307-4.064-1.307S91.568,132.521,93.383,133.826z M94.619,90.127
		c-3.163,0.83-5.383,2.768-6.86,4.742c-1.571-0.167-2.681-0.338-3.43-0.338c-1.378,0-1.958,0.219-1.958,0.219L79.97,97
		c0,0,1.457-1.308,4.796-1.09c0.639,0.042,1.363,0.123,2.146,0.215c-0.867,1.444-1.348,2.785-1.514,3.584
		c-0.436,2.104-0.508,2.976-0.508,2.976s-1.959-0.291-5.158-0.146c-3.194,0.146-4.863,0.581-4.863,0.581l-1.452,1.742
		c0,0,1.889-0.942,5.882-1.017c3.995-0.071,7.408,0.8,7.408,0.8s-0.715-4.235,1.759-8.341c3.048,0.334,6.618,0.563,9.364-0.685
		c1.787-0.812,2.974-2.134,3.783-3.604c2.836,1.299,4.988,3.816,5.056,7.113c0.096,4.676-2.449,8.084-5.479,9.405l-2.457-2.396
		c0.289-0.164,0.59-0.409,0.896-0.769c1.67-1.96,1.017-5.881-2.685-6.968c-3.703-1.09-7.405,2.177-6.463,6.75
		c0.908,4.4,5.912,6.305,10.428,5.021l3.729,3.834c0,0-6.242,2.041-6.92,9.201c-0.436,4.603,1.747,8.637,5.184,10.821
		c-0.41,3.058,0.061,6.323,1.272,9.183c2.032,4.791,5.981,7.818,6.2,7.746c0.217-0.072-0.799-4.793,3.122-7.26
		c3.92-2.468,9.002,1.234,9.364,5.662s-2.396,6.387-3.412,6.68c-1.016,0.291-1.307,0.217-1.307,0.217s2.178,0.074,1.813-2.541
		c-0.362-2.612-3.411-2.903-4.718-1.597c-1.307,1.308-1.75,3.735,0.289,5.226c1.889,1.381,6.026,0.8,7.914-3.557
		c1.887-4.354-0.58-9.871-4.646-11.396s-7.695,0.87-8.639,3.266s-0.652,3.195-0.652,3.195s-4.066-3.992-5.083-9.511
		c-0.281-1.525-0.293-3.064-0.087-4.536c1.371,0.608,2.883,0.95,4.479,0.95c6.365,0,10.057-4.979,8.168-9.045
		c-2.094-4.508-9.476-2.139-11.988,1.59c-0.844,1.252-1.434,2.664-1.797,4.154c-0.099-0.076-0.205-0.146-0.297-0.228
		c-3.267-2.902-4.791-7.113-3.05-11.904c1.743-4.791,7.333-5.952,7.333-5.952l-4.838-4.717c5.098-2.287,7.322-8.15,5.055-13.576
		c-0.985-2.359-2.824-4.271-5.17-5.365c0.574-1.446,0.866-2.937,1.051-4.166c0.435-2.906,0.146-7.697,0.582-10.166
		c0.436-2.47,2.03-3.703,3.483-3.41c1.452,0.289,0.943,1.885,0.943,1.885s-0.146-1.525-1.669-1.162
		c-1.525,0.363-1.43,2.768,0.217,3.34c1.669,0.58,3.629-1.23,2.758-3.268c-0.844-1.969-4.089-2.34-5.732,0.074
		c-2.179,3.192-0.582,10.233-2.033,14.957c-0.17,0.549-0.361,1.055-0.571,1.524C99.277,89.635,97.014,89.498,94.619,90.127z
		 M92.818,95.184c-1.328-0.021-2.467-0.088-3.473-0.167c0.501-0.634,1.092-1.253,1.788-1.839c2.687-2.27,6.341-2.609,9.433-1.577
		C98.906,94.217,96.337,95.239,92.818,95.184z M96.361,108.782c-4.502-1.671-5.155-7.769-1.599-8.639
		c3.558-0.87,4.646,3.266,3.412,4.791c-1.233,1.524-1.741,1.016-1.741,1.016s0.288,0.261,0.752,0.396l2.578,2.652
		C98.615,109.237,97.445,109.185,96.361,108.782z M109.936,126.277c4.137-1.814,7.26,1.889,5.228,5.009
		c-1.724,2.646-6.989,3.562-10.544,2.011C105.432,130.096,107.34,127.416,109.936,126.277z M98.029,116.478
		c0.883,0,1.599-0.716,1.598-1.599c0-0.883-0.715-1.598-1.598-1.598c-0.881,0-1.596,0.715-1.596,1.598
		S97.148,116.478,98.029,116.478z M73.926,133.608c0-0.881-0.717-1.597-1.598-1.597c-0.883,0-1.596,0.715-1.596,1.597
		c0,0.883,0.713,1.599,1.596,1.599C73.209,135.207,73.926,134.491,73.926,133.608z M76.891,162.229
		c-0.883,0-1.598,0.715-1.598,1.597c0.001,0.882,0.715,1.597,1.598,1.597s1.598-0.713,1.598-1.597
		C78.488,162.942,77.773,162.229,76.891,162.229z M107.975,139.489c0,0.882,0.715,1.597,1.598,1.597
		c0.882,0,1.597-0.715,1.597-1.597c0.001-0.883-0.714-1.597-1.597-1.597S107.975,138.607,107.975,139.489z M94.762,120.107
		c0.001,0.641,0.521,1.161,1.162,1.161c0.643,0,1.163-0.521,1.163-1.161c0-0.643-0.521-1.162-1.163-1.162
		C95.283,118.945,94.763,119.465,94.762,120.107z M80.332,94.813c0.643,0,1.166-0.521,1.166-1.162c0-0.64-0.523-1.16-1.166-1.16
		c-0.645,0-1.167,0.521-1.167,1.16C79.165,94.295,79.689,94.813,80.332,94.813z M73.98,101.629c0-0.642-0.519-1.162-1.16-1.162
		c-0.641,0-1.162,0.521-1.162,1.162c0,0.644,0.521,1.162,1.162,1.162S73.98,102.272,73.98,101.629z M83.48,91.162
		c0.644,0,1.162-0.52,1.162-1.162c0-0.641-0.52-1.16-1.162-1.16c-0.641,0-1.16,0.52-1.162,1.16
		C82.32,90.643,82.84,91.162,83.48,91.162z M100.424,72.338c-0.641,0-1.161,0.523-1.162,1.162c0.001,0.644,0.521,1.16,1.164,1.16
		c0.641,0,1.16-0.518,1.16-1.16C101.586,72.859,101.066,72.338,100.424,72.338z M130.013,151.043c0,0.525,0.427,0.951,0.951,0.951
		c0.526,0,0.951-0.426,0.951-0.951c0-0.524-0.425-0.951-0.951-0.951C130.439,150.092,130.013,150.518,130.013,151.043z
		 M69.714,128.02c-0.64,0-1.161,0.521-1.161,1.162c0,0.642,0.521,1.16,1.161,1.16c0.644,0,1.162-0.52,1.162-1.16
		C70.876,128.539,70.357,128.02,69.714,128.02z M80.973,140.65c0.645,0.001,1.161-0.52,1.161-1.161s-0.519-1.161-1.161-1.161
		c-0.645,0-1.167,0.52-1.167,1.161S80.328,140.651,80.973,140.65z M44.67,141.594c-0.643,0-1.163,0.521-1.163,1.162
		s0.521,1.162,1.163,1.162s1.16-0.521,1.162-1.162C45.83,142.114,45.312,141.594,44.67,141.594z M50.332,140.941
		c-0.641,0-1.162,0.52-1.162,1.161s0.521,1.161,1.162,1.161c0.643,0,1.162-0.521,1.162-1.161
		C51.494,141.461,50.975,140.941,50.332,140.941z M57.061,119.371c0.768,0,1.391-0.623,1.391-1.393c0-0.768-0.623-1.391-1.391-1.391
		c-0.77,0-1.391,0.623-1.391,1.391C55.669,118.748,56.291,119.371,57.061,119.371z M56.865,146.096c0.643,0,1.162-0.521,1.162-1.163
		c0-0.64-0.521-1.161-1.162-1.161c-0.641,0-1.163,0.521-1.163,1.162S56.225,146.096,56.865,146.096z M59.48,153.064
		c0.642,0,1.16-0.521,1.16-1.162s-0.52-1.162-1.16-1.162c-0.642,0-1.162,0.52-1.162,1.162
		C58.316,152.545,58.838,153.064,59.48,153.064z M57.449,163.615c-0.555,0-1.002,0.449-1.002,1.003c0,0.552,0.447,1.003,1.004,1.003
		c0.552,0,1.002-0.451,1.002-1.003C58.453,164.064,58.003,163.615,57.449,163.615z M62.641,164.137
		c-0.566,0-1.027,0.461-1.029,1.031c0.002,0.568,0.463,1.029,1.029,1.029c0.57-0.001,1.031-0.461,1.031-1.029
		C63.672,164.598,63.211,164.137,62.641,164.137z M67.363,163.604c-0.657,0-1.188,0.532-1.188,1.188
		c0,0.654,0.531,1.188,1.188,1.188c0.654,0,1.188-0.533,1.188-1.188C68.551,164.137,68.02,163.604,67.363,163.604z M71.766,163.156
		c-0.654-0.001-1.187,0.532-1.187,1.188c0,0.656,0.53,1.188,1.187,1.188c0.657,0,1.191-0.532,1.191-1.188
		C72.957,163.688,72.423,163.155,71.766,163.156z M95.417,123.59c-0.36,0-0.653,0.293-0.653,0.654s0.293,0.653,0.653,0.652
		c0.36,0,0.653-0.291,0.653-0.652S95.777,123.59,95.417,123.59z M86.758,87.376c0.002-0.363-0.291-0.654-0.65-0.654
		c-0.362,0-0.654,0.291-0.654,0.654c0,0.362,0.294,0.653,0.654,0.653C86.467,88.029,86.758,87.738,86.758,87.376z M70.145,103.733
		c-0.363,0-0.654,0.293-0.654,0.653s0.293,0.654,0.654,0.654c0.359,0,0.652-0.294,0.652-0.654S70.504,103.733,70.145,103.733z
		 M98.216,75.945c0.36,0,0.653-0.293,0.653-0.652c0.001-0.36-0.293-0.654-0.653-0.654c-0.362,0-0.653,0.294-0.653,0.654
		C97.562,75.652,97.855,75.945,98.216,75.945z M102.645,72.389c0.36,0,0.652-0.291,0.652-0.654c0-0.361-0.292-0.654-0.652-0.654
		c-0.361,0-0.654,0.293-0.654,0.654C101.99,72.098,102.283,72.389,102.645,72.389z M66.23,126.422c-0.36,0-0.653,0.293-0.653,0.653
		s0.293,0.653,0.653,0.653c0.359,0,0.652-0.293,0.652-0.653S66.59,126.422,66.23,126.422z M116.541,139.926
		c1.669,1.887,4.211,0.289,3.994-1.524c-0.219-1.815-1.742-1.743-1.742-1.743s3.266-1.888,6.969,1.959
		c2.278,2.368,3.866,7.205,3.483,10.6c-0.304,2.686-1.171,4.375-1.824,5.312c-0.185-0.099-0.386-0.17-0.61-0.17
		c-0.72,0-1.305,0.585-1.305,1.308c0,0.721,0.585,1.305,1.307,1.305c0.721,0,1.305-0.584,1.305-1.305
		c0-0.162-0.037-0.312-0.092-0.453c0.738-0.433,2.235-1.229,4.34-1.931c3.05-1.016,8.639-1.089,11.181-0.798
		c2.539,0.29,9.51,1.016,11.687-0.436c2.459-1.642,2.396-5.154,0.074-6.099c-2.324-0.944-3.775,0.509-3.848,2.033
		c-0.073,1.524,1.812,2.469,2.902,1.233c1.091-1.233-0.145-1.959-0.145-1.959s1.016,0.146,1.161,1.017s-0.437,2.687-4.138,3.194
		c-3.703,0.51-10.769-0.43-14.883,0.145c-4.758,0.665-7.401,2.59-8.394,3.471c-0.118-0.23-0.302-0.414-0.526-0.541
		c0.633-0.826,1.482-2.209,1.951-4.162c0.872-3.631,0-7.914-0.435-12.123c-0.437-4.211-0.653-7.842,1.233-9.147
		c1.889-1.308,3.34-0.218,3.34-0.218s-0.944-0.51-1.816,0.218c-0.87,0.726-1.016,3.192,1.234,3.411
		c2.25,0.218,3.123-2.541,2.033-4.139c-1.09-1.597-4.574-2.178-6.461,1.09c-1.888,3.267-0.218,11.904-0.218,11.904
		s-1.452-6.605-6.896-7.187C115.96,133.609,114.872,138.037,116.541,139.926z M134.691,139.635c0-3.558-3.268-3.558-3.631-1.598
		s0.508,3.992,0.727,5.518c0.217,1.523,0,2.178,0,2.178S134.691,143.191,134.691,139.635z M141.73,146.75
		c-2.686,0.435-5.08,3.12-5.08,3.12s0.58-0.29,2.541-0.145c1.961,0.145,3.412,0.653,4.572-0.146
		C144.926,148.782,144.417,146.312,141.73,146.75z M149.023,137.651c-2.492-0.449-3.446,2.212-2.41,3.479
		c0.969,1.188,2.757,0.68,3.047-0.492c0.084-0.34,0.1-0.584,0.084-0.767c0.229,0.567,0.394,1.54-0.486,2.562
		c-1.371,1.588-4.613,1.857-7.915,1.98c-3.303,0.125-5.608,1.09-6.342,1.53c-0.462,0.278-0.769,0.554-0.942,0.728
		c-0.031-0.017-0.062-0.037-0.096-0.052c0.148-0.118,0.54-0.457,0.943-1.032c0.509-0.728,1.67-3.05,2.033-6.461
		c0.363-3.412,0.871-6.752,2.613-8.059c1.116-0.836,2.11-0.602,2.684-0.324c-0.188-0.027-0.44-0.029-0.797,0.034
		c-1.232,0.218-1.888,2.032-0.726,3.122c1.24,1.163,4.065,0.361,3.774-2.25c-0.256-2.311-3.267-3.559-5.588-1.309
		c-1.744,1.688-2.18,4.865-2.615,9.147c-0.398,3.927-2.076,6.688-2.352,7.121c-0.187-0.075-0.388-0.118-0.6-0.118
		c-0.881,0-1.598,0.715-1.598,1.598s0.717,1.597,1.598,1.597c0.883,0,1.598-0.716,1.598-1.597c0-0.588-0.32-1.097-0.794-1.373
		c0.782-0.399,3.371-1.584,6.812-1.697c4.145-0.137,7.224-0.348,8.959-1.91C152.227,141.023,151.225,138.051,149.023,137.651z
		 M150.152,134.045c1.888-2.25,0.072-4.211-2.032-3.34c-2.106,0.871-3.341,5.59-3.341,5.59S148.264,136.295,150.152,134.045z
		 M137.013,143.771c0,0,3.558-0.727,4.864-2.105c1.307-1.378,1.452-3.41-0.798-3.338S137.013,143.771,137.013,143.771z
		 M135.852,128.164c0.328,1.533,2.541,1.451,2.832,0.146s-1.018-1.597-1.018-1.597s0.436-0.799,1.307-1.162s8.364-3.26,14.736,2.904
		c6.68,6.461,2.324,13.067,2.324,13.067s0.373-1.481-1.381-1.38c-1.233,0.072-1.69,1.822-0.289,2.685
		c0.945,0.582,3.774,0.218,4.065-5.588c0.349-6.971-4.71-13.478-12.993-13.721C138.029,123.301,135.416,126.131,135.852,128.164z
		 M157.121,125.188c0.722,0,1.308-0.584,1.308-1.307c0-0.721-0.585-1.307-1.308-1.307c-0.721,0-1.305,0.584-1.305,1.307
		S156.4,125.188,157.121,125.188z M160.605,129.979c0.723,0,1.308-0.584,1.308-1.308c0-0.723-0.584-1.306-1.308-1.306
		c-0.721,0-1.306,0.583-1.306,1.306C159.3,129.396,159.885,129.979,160.605,129.979z M160.896,134.262
		c0,0.722,0.584,1.307,1.307,1.307s1.306-0.585,1.306-1.307c0-0.721-0.583-1.308-1.306-1.308
		C161.48,132.955,160.896,133.541,160.896,134.262z M161.984,138.764c-0.722,0-1.306,0.584-1.306,1.305
		c0,0.723,0.583,1.309,1.306,1.309s1.307-0.586,1.307-1.307C163.291,139.348,162.705,138.764,161.984,138.764z M122.167,141.334
		c0,0.721,0.585,1.307,1.306,1.305c0.723,0,1.307-0.586,1.307-1.307s-0.584-1.306-1.307-1.306
		C122.752,140.026,122.167,140.61,122.167,141.334z M120.992,148.067c0-0.722-0.586-1.306-1.307-1.306
		c-0.722,0-1.307,0.584-1.307,1.306c0,0.724,0.585,1.306,1.307,1.308C120.406,149.375,120.992,148.789,120.992,148.067z
		 M126.262,144.866c-0.576,0-1.044,0.468-1.044,1.043c0,0.578,0.468,1.043,1.044,1.043c0.577,0.001,1.043-0.467,1.043-1.043
		C127.305,145.334,126.839,144.866,126.262,144.866z M116.888,146.016c0-0.576-0.466-1.043-1.043-1.043
		c-0.575,0-1.043,0.467-1.043,1.043s0.468,1.044,1.043,1.044C116.421,147.06,116.888,146.592,116.888,146.016z M125.775,150.993
		c0,0.442,0.359,0.802,0.801,0.802s0.802-0.358,0.802-0.803c0-0.441-0.358-0.8-0.802-0.8
		C126.135,150.193,125.775,150.553,125.775,150.993z M112.816,148.131c-0.44,0-0.799,0.357-0.799,0.799
		c0,0.442,0.358,0.802,0.799,0.802c0.442,0,0.801-0.359,0.801-0.802C113.617,148.488,113.259,148.131,112.816,148.131z
		 M159.807,146.096c0.721,0,1.307-0.586,1.307-1.309c0-0.721-0.586-1.305-1.307-1.305c-0.722,0-1.306,0.584-1.306,1.305
		C158.502,145.51,159.085,146.096,159.807,146.096z M152.402,122.43c0.722,0,1.307-0.586,1.307-1.307s-0.585-1.307-1.307-1.307
		s-1.307,0.586-1.307,1.307S151.681,122.43,152.402,122.43z M146.812,120.758c0.724,0,1.307-0.584,1.307-1.306
		c0.001-0.721-0.583-1.307-1.307-1.307c-0.722,0-1.306,0.584-1.306,1.307C145.507,120.174,146.092,120.758,146.812,120.758z
		 M141.005,120.978c0.724-0.001,1.308-0.585,1.308-1.308c0-0.721-0.586-1.306-1.308-1.306s-1.306,0.584-1.308,1.306
		C139.697,120.393,140.281,120.978,141.005,120.978z M135.126,123.373c0.722,0,1.306-0.585,1.306-1.307
		c0-0.721-0.584-1.307-1.306-1.307s-1.308,0.586-1.308,1.307C133.818,122.788,134.404,123.373,135.126,123.373z M163.945,155.024
		c-5.68,0.489-21.562,0.872-26.934,0.726c-5.371-0.146-7.912,0-7.912,0l-1.017,0.799c0,0,29.763,0,36.442,0
		c6.678,0,9.838-2.023,10.09-5.953c0.218-3.411-2.687-5.808-5.444-5.227s-3.774,4.139-2.179,6.098
		c1.598,1.961,3.703,1.162,3.703,1.162S170.697,154.443,163.945,155.024z M43.291,154.951c0,0-1.451,2.396,0,4.719
		c1.453,2.322,2.758,2.396,3.121,3.121c0.361,0.727,0.361,0.727,0.361,0.727s1.233-1.67,0.51-3.775
		C46.556,157.637,43.291,154.951,43.291,154.951z M59.975,113.243L6.688,59.74c-0.08-0.084-0.193-0.129-0.306-0.129
		c-0.058,0-0.114,0.012-0.167,0.035c-0.163,0.066-0.27,0.225-0.27,0.398v108.18c0,0.127,0.07,0.26,0.164,0.343
		c0.082,0.067,0.182,0.104,0.285,0.104h108.188c0.176,0,0.335-0.106,0.4-0.27c0.068-0.163,0.031-0.352-0.094-0.475l-53.505-53.285
		L59.975,113.243z M59.127,115.94c0.459,0.675,1.854,2.935,2.52,6.218c-4.015-0.383-8.1,0.403-11.629,2.446
		c2.032-3.517,2.819-7.58,2.446-11.579c4.049,0.885,6.657,2.92,6.657,2.92L59.127,115.94z M49.1,145.514
		c-2.759,1.233-2.688,4.938-0.801,5.953c1.887,1.017,3.559-0.437,3.63-1.888c0.072-1.452-1.305-1.743-1.305-1.743
		s1.594-0.652,2.757,0.799c1.161,1.451,0.579,4.865-3.193,5.373c-3.774,0.506-7.332-3.123-8.203-7.551
		c-0.381-1.934-0.512-4.339-0.199-6.863c3.105-0.588,6.475-0.584,9.927,0.113c7.515,1.516,12.485,6.242,11.615,12.559
		c-0.814,5.908-5.663,8.783-10.744,7.623c-5.081-1.162-7.259-5.735-7.259-5.735s0.652,0.798,2.611,1.017
		c1.963,0.217,6.244-0.873,7.115-4.718C55.921,146.604,51.857,144.28,49.1,145.514z M41.588,135.037
		c-1.697,0.217-2.604,0.446-2.762,0.488c0.037-0.098,0.328-0.871,0.611-2.436c1.334-0.451,2.631-1.049,3.877-1.783
		C42.607,132.508,42.031,133.756,41.588,135.037z M23.148,126.327c1.019,1.888,4.722,1.958,5.955-0.799
		c1.231-2.758-1.09-6.824-4.938-5.952c-3.848,0.871-4.936,5.155-4.719,7.115c0.218,1.959,1.019,2.611,1.019,2.611
		s-4.571-2.178-5.735-7.258c-1.162-5.082,1.715-9.93,7.623-10.744c6.314-0.871,11.043,4.103,12.559,11.615
		c0.697,3.452,0.701,6.821,0.113,9.928c-2.525,0.312-4.932,0.181-6.865-0.199c-4.428-0.871-8.057-4.43-7.551-8.204
		c0.508-3.774,3.922-4.354,5.373-3.193s0.797,2.759,0.797,2.759s-0.289-1.379-1.741-1.308
		C23.585,122.771,22.134,124.44,23.148,126.327z M35.768,133.975c0.59-0.088,1.176-0.209,1.758-0.348
		c-0.492,2.369-1.023,4.063-1.09,4.271l-0.031,0.031c0,0,0.019-0.004,0.022-0.006c-0.001,0.002-0.005,0.017-0.005,0.017l0.02-0.021
		c0.201-0.054,2.055-0.548,4.597-0.986c-0.154,0.636-0.289,1.275-0.386,1.918c-3.219,0.746-6.373,2.064-8.994,4.113
		C33.705,140.342,35.023,137.191,35.768,133.975z M42.248,126.995l0.007,0.007c0.011,0.012,0.019,0.025,0.03,0.037l2.133,2.135
		c-1.486,1.133-3.107,1.972-4.771,2.57c0.18-1.343,0.322-3.058,0.349-5.199c0.069-6.315-2.181-10.961-2.181-10.961
		s2.758-2.324,9.584-2.904c1.361-0.116,2.643-0.051,3.826,0.121c0.479,5.48-1.408,10.502-4.291,13.951l-2.221-2.221
		c-0.68-0.679-1.784-0.679-2.465,0C41.568,125.213,41.568,126.314,42.248,126.995z M45.449,130.204l2.171,2.173
		c0.681,0.681,1.786,0.681,2.466,0c0.605-0.607,0.667-1.548,0.193-2.228c-0.064-0.099-0.141-0.192-0.228-0.28l-2.182-2.181
		c3.452-2.892,8.487-4.781,13.983-4.294c0.154,1.177,0.209,2.456,0.094,3.826c-0.582,6.824-2.905,9.582-2.905,9.582
		s-4.646-2.248-10.962-2.178c-2.086,0.024-3.801,0.133-5.169,0.266C43.509,133.258,44.336,131.666,45.449,130.204z M58.705,113.203
		c-1.391-0.665-3.557-1.459-6.469-1.873c-0.473-2.679-1.469-5.27-2.959-7.594L58.705,113.203z M75.377,144.717
		c1.018,2.104,1.018,4.281,1.018,4.281s4.525-10.346-0.145-18.32l37.277,37.123H6.816V61.102l37.127,37.279
		c-7.974-4.668-18.322-0.147-18.322-0.147s2.177,0,4.279,1.017c2.107,1.016,4.431,2.541,6.463,1.959
		c2.031-0.582,2.105-3.701,2.105-3.701s8.202,1.086,11.542,9.943c0.474,1.254,0.793,2.501,1.005,3.734
		c-1.277-0.122-2.671-0.174-4.199-0.104c-7.912,0.363-11.181,3.92-11.181,3.92s2.325,4.065,2.687,10.019
		c0.149,2.446-0.146,5.06-0.545,7.296c-0.584,0.148-1.166,0.279-1.746,0.377c0.635-3.425,0.658-6.85,0.261-9.706
		c-0.945-6.751-5.154-12.632-11.616-12.923c-0.322-0.014-0.63-0.014-0.936-0.01c0.959-0.133,2.219-0.213,3.84-0.135
		c4.574,0.219,9.221,1.307,10.162-1.815c0.945-3.121-2.105-5.517-4.646-4.429c-2.541,1.09-1.959,4.066-0.146,4.502
		c1.816,0.436,2.324-1.019,2.324-1.019s0,1.38-1.453,1.888c-1.449,0.51-3.627,0-7.549,0c-3.021,0-6.119,1.334-7.387,1.947
		c-2.558,1.086-3.951,2.862-4.592,4.006c-0.553,0.987-0.691,1.45-0.709,1.676c-0.219-0.898-0.875-4.621,1.58-9.66
		c2.234-4.586,4.72-7.332,6.751-11.905c2.032-4.572,3.994-7.766,6.315-7.766c1.988,0,2.486,2.708,2.59,3.49
		c-0.022-0.098-0.061-0.234-0.121-0.439c-0.219-0.727-1.194-2.07-3.051-1.451c-1.522,0.508-2.104,2.977-0.504,4.282
		c1.594,1.306,4.135,0.29,4.57-1.959c0.438-2.25-1.234-5.375-4.57-4.938c-1.803,0.234-3.029,1.672-3.781,2.947
		c0.142-0.561,0.255-1.237,0.295-2.074c0.146-3.053-1.088-6.102-4.719-6.684c-3.631-0.578-5.662,1.889-5.734,4.283
		c-0.072,2.399,2.031,4.504,4.5,3.707c2.469-0.798,1.959-4.504,0.074-5.014c-1.887-0.508-2.471,0.945-2.471,0.945
		s-0.289-2.541,2.76-2.758c3.047-0.221,5.226,2.322,4.572,6.68c-0.582,3.895-4.428,10.018-4.428,10.018s1.309-3.412-0.582-5.879
		c-1.889-2.468-5.152-1.888-6.171-0.289c-1.015,1.594,1.019,2.974,2.181,2.03c1.161-0.944,0.071-1.885,0.071-1.885
		s0.87-0.437,1.741,1.085c0.871,1.525-0.693,5.352-2.321,13.213c-1.672,8.057-1.091,18.221,6.604,23.593
		c2.375,1.658,5.104,2.806,7.968,3.423c-0.286,0.032-0.64,0.062-0.998,0.062c-0.8,0-3.05,0.436-4.574,3.268
		c-1.524,2.83,0.438,5.008,2.396,4.428c1.961-0.582,2.033-2.902,0.508-3.484c-1.522-0.581-2.104,0.798-2.104,0.798
		s-0.437-2.468,1.67-3.92c2.104-1.452,5.516-0.653,5.516-0.653l-0.543-0.173c1.709,0.222,3.447,0.272,5.176,0.097
		c-0.865,3.504-2.506,6.625-4.775,9.078c-0.176,0.189-0.355,0.361-0.537,0.539l-1.158-1.16c-0.508-0.504-1.324-0.504-1.83,0
		c-0.504,0.506-0.504,1.323,0,1.828l0.998,0.998c-4.021,2.799-8.547,2.937-11.41,1.207c-3.485-2.104-2.469-6.242-1.381-7.332
		c1.088-1.089,1.525-1.089,1.525-1.089s-0.945,0.728-0.146,1.816c0.798,1.089,3.555,1.017,3.702-1.38
		c0.146-2.396-3.606-3.709-5.881-1.09c-2.396,2.76-1.889,7.043,0.871,9.438c2.392,2.077,8.438,2.837,13.553-0.733l0.132,0.131
		c-3.567,5.112-2.808,11.156-0.731,13.547c2.396,2.76,6.68,3.268,9.438,0.873c2.62-2.276,1.305-6.026-1.089-5.881
		c-2.397,0.146-2.469,2.902-1.383,3.703c1.092,0.797,1.818-0.146,1.818-0.146s0,0.436-1.09,1.525
		c-1.09,1.088-5.229,2.104-7.332-1.379c-1.73-2.861-1.594-7.387,1.203-11.406l1.16,1.162c0.504,0.504,1.324,0.504,1.83,0
		c0.504-0.504,0.504-1.323,0-1.828l-1.325-1.326c0.178-0.182,0.351-0.363,0.542-0.54c2.455-2.271,5.574-3.911,9.078-4.776
		c-0.174,1.727-0.125,3.46,0.097,5.167l-0.172-0.536c0,0,0.798,3.412-0.654,5.518s-3.92,1.668-3.92,1.668s1.38-0.579,0.798-2.104
		c-0.58-1.525-2.902-1.453-3.48,0.506c-0.584,1.961,1.594,3.922,4.426,2.397s3.268-3.774,3.268-4.573
		c0-0.357,0.028-0.712,0.062-0.998c0.618,2.862,1.764,5.592,3.421,7.967c5.374,7.695,15.536,8.274,23.597,6.606
		c7.858-1.63,11.687-3.194,13.214-2.323c1.525,0.87,1.092,1.742,1.092,1.742s-0.942-1.09-1.89,0.072
		c-0.948,1.16,0.437,3.193,2.035,2.177c1.597-1.017,2.177-4.282-0.292-6.17c-2.475-1.887-5.885-0.581-5.885-0.581
		s6.132-3.844,10.021-4.427c4.354-0.654,6.896,1.522,6.678,4.573c-0.217,3.048-2.758,2.758-2.758,2.758s1.451-0.581,0.942-2.469
		c-0.507-1.887-4.209-2.396-5.006,0.072c-0.797,2.469,1.304,4.573,3.702,4.501c2.394-0.071,4.861-2.104,4.281-5.733
		c-0.58-3.631-3.631-4.864-6.679-4.719c-0.838,0.039-1.515,0.153-2.075,0.293c1.274-0.75,2.711-1.978,2.946-3.778
		c0.435-3.339-2.683-5.009-4.933-4.573s-3.272,2.977-1.959,4.573c1.304,1.598,3.773,1.017,4.281-0.509
		c0.619-1.854-0.729-2.83-1.451-3.049c-0.2-0.06-0.336-0.097-0.435-0.119c0.791,0.104,3.48,0.605,3.48,2.588
		c0,2.322-3.193,4.283-7.772,6.313c-4.572,2.033-7.318,4.519-11.904,6.752c-5.037,2.455-8.758,1.8-9.657,1.582
		c0.226-0.018,0.688-0.159,1.672-0.709c1.146-0.641,2.921-2.034,4.007-4.593c0.613-1.266,1.945-4.366,1.945-7.387
		c0-3.92-0.51-6.098,0-7.549c0.509-1.453,1.889-1.453,1.889-1.453s-1.451,0.509-1.016,2.322c0.434,1.816,3.41,2.396,4.5-0.144
		c1.088-2.541-1.309-5.59-4.428-4.647c-3.123,0.944-2.033,5.59-1.816,10.163c0.076,1.619-0.002,2.878-0.135,3.835
		c0.002-0.304,0.004-0.609-0.01-0.93c-0.289-6.461-6.171-10.672-12.923-11.615c-2.854-0.398-6.278-0.376-9.704,0.258
		c0.104-0.617,0.243-1.24,0.405-1.862c2.263-0.335,4.867-0.574,7.269-0.429c5.951,0.363,10.017,2.688,10.017,2.688
		s3.56-3.268,3.919-11.18c0.07-1.533,0.025-2.926-0.087-4.197c1.228,0.211,2.47,0.531,3.719,1.002
		c8.854,3.34,9.945,11.543,9.945,11.543s-3.122,0.074-3.703,2.105C72.837,140.288,74.361,142.61,75.377,144.717z M70.893,125.342
		c-2.315-1.487-4.9-2.482-7.57-2.957c-0.379-2.848-1.109-4.952-1.728-6.303L70.893,125.342z M48.581,161.129
		c0,0,0.448,1.943,2.468,3.065s2.318,2.169,2.318,2.169s0.523-2.395-0.822-3.964C51.199,160.829,48.581,161.129,48.581,161.129z
		 M55.262,121.563l0.266-2.278l-2.395,0.291l-0.654,2.794L55.262,121.563z M47.562,123.069c0,0,1.894-2.467,1.822-4.433
		c-0.07-1.967-2.502-1.536-2.181,0.572C47.525,121.318,47.562,123.069,47.562,123.069z M51.818,130.459c0,0,2.401,1.524,3.602,2.621
		c2.178,1.991,4.396-0.476,2.566-1.947C56.163,129.662,51.818,130.459,51.818,130.459z M56.013,125.954
		c-1.962-0.155-4.506,1.632-4.506,1.632s1.746,0.11,3.84,0.524C57.441,128.522,57.975,126.11,56.013,125.954z M0.002,47.883
		L0.004,48.1v126.928l125.598-0.009v-1.156L1.161,173.87V47.883H0.002L0.002,47.883z M125.643,169.746l-8.947-9.051l8.914,0.012
		l0.002-1.156l-10.061-0.013l-18.002-18.209c0.596,0.354,1.157,0.476,1.932,0.411c1.742-0.146,2.687-2.322,1.742-3.703
		c-0.941-1.379-3.048-1.089-3.701-0.146c-0.654,0.944,0.146,2.105,0.146,2.105l-21.65-20.936c0.727,0.356,1.502,0.667,2.336,0.899
		c6.248,1.742,13.07-1.162,13.506-6.533c0.41-5.066-4.936-6.387-7.258-4.211c-2.32,2.179-0.798,5.3,1.525,5.59
		c2.32,0.291,2.756-1.596,2.756-1.596s0,0-0.291,1.16c-0.29,1.161-3.482,4.646-9.875,4.209c-2.214-0.15-4.068-0.951-5.562-1.926
		l-6.111-6.184c1.421-0.151,2.531-1.34,2.531-2.801c0-1.562-1.269-2.83-2.832-2.83c-1.449,0-2.631,1.094-2.797,2.498l-6.31-6.381
		c-0.823-1.397-1.468-3.085-1.603-5.049c-0.434-6.385,3.051-9.582,4.212-9.873s1.161-0.291,1.161-0.291s-1.889,0.436-1.598,2.762
		c0.289,2.322,3.412,3.849,5.59,1.524c2.178-2.324,0.857-7.673-4.209-7.263c-5.373,0.436-8.276,7.263-6.535,13.504
		c0.231,0.833,0.541,1.607,0.897,2.334L34.619,76.961c0,0,1.16,0.797,2.104,0.146c0.945-0.656,1.235-2.761-0.145-3.703
		c-1.381-0.942-3.557,0-3.703,1.742c-0.023,0.287-0.014,0.539,0.014,0.78L15.445,58.281l0.013-9.461l-1.156-0.002l-0.01,8.296
		L5.75,48.473l-0.875,0.75l120.752,122.336L125.643,169.746z"/>
</g>
<polyline fill="none" stroke="#000000" points="11.344,54.854 4.677,48.395 15.449,48.353 "/>
<line fill="none" stroke="#000000" stroke-width="1.1" x1="125.086" y1="159.985" x2="125.086" y2="170.027"/>
</svg>
