<?xml version="1.0" encoding="utf-8"?>
<!-- Generator: Adobe Illustrator 13.0.0, SVG Export Plug-In . SVG Version: 6.00 Build 14948)  -->
<!DOCTYPE svg PUBLIC "-//W3C//DTD SVG 1.1 Tiny//EN" "http://www.w3.org/Graphics/SVG/1.1/DTD/svg11-tiny.dtd">
<svg version="1.1" baseProfile="tiny" id="Layer_1" xmlns="http://www.w3.org/2000/svg" xmlns:xlink="http://www.w3.org/1999/xlink"
	 x="0px" y="0px" width="290.119px" height="143.459px" viewBox="0 0 290.119 143.459" xml:space="preserve">
<g>
	<path fill="#363239" d="M140.651,91.164c0.062-0.225,0.096-0.348,0.096-0.348l-1.724-1.724c0,0-1.098,3.056-4.781,7.367
		c-3.685,4.311-7.68,6.111-7.68,6.111s-0.079,1.569,1.253,2.979c1.333,1.412,5.48,2.199,8.303-2.427
		C138.578,99.088,140.232,92.694,140.651,91.164z"/>
	<path fill="#363239" d="M119.43,93.009c0,0-0.078,1.021,1.176,2.745c1.253,1.723,5.408,3.056,9.638-0.316
		c4.23-3.368,7.132-9.481,7.132-9.481l-2.194-1.722c0,0-2.273,2.509-6.896,5.642C123.663,93.006,119.43,93.009,119.43,93.009z"/>
	<path fill="#363239" d="M115.434,83.84c0.077,1.413,1.958,4.545,8.15,3.764c6.19-0.783,10.11-5.174,10.11-5.174l-17.869-0.705
		C115.825,81.724,115.356,82.429,115.434,83.84z"/>
	<path fill="#363239" d="M116.922,101.317c-6.019-11.248-5.879-21.628-5.879-21.628h-5.408c0,0,1.458,12.121,8.167,23.48
		c6.683,11.319,19.941,20.238,23.248,24.798c3.043,4.197,3.587,6.64,3.679,7.526c-0.241-0.799-1.533-2.304-4.059-2.043
		c-3.056,0.313-4.934,3.999-3.133,7.446c1.802,3.447,8.194,3.685,10.188-0.941c1.959-4.547-0.414-9.503-5.195-14.596
		C134.016,120.553,123.423,113.468,116.922,101.317z"/>
	<circle fill="#363239" cx="102.575" cy="44.032" r="3.056"/>
	<circle fill="#363239" cx="104.143" cy="32.825" r="1.726"/>
	<circle fill="#363239" cx="110.96" cy="17.307" r="2.509"/>
	<circle fill="#363239" cx="121.619" cy="12.763" r="2.821"/>
	<path fill="#363239" d="M39.678,20.951c0,0,2.049-2.646,2.049-6.484c0-3.293-1.033-4.498-3.058-6.469
		c-2.025-1.972-1.867-4.577-1.867-4.577s-2.771,4.529-2.079,9.432C35.417,17.754,39.678,20.951,39.678,20.951z"/>
	<path fill="#363239" d="M144.925,55.001h-0.029c0,0-0.467,4.624-3.993,11.049c-3.543,6.457-6.191,9.169-6.191,9.169
		s4.465,3.528,7.288,7.21c2.823,3.684,3.043,4.78,3.043,4.78s0.203-1.096,3.025-4.78c2.823-3.682,7.288-7.21,7.288-7.21
		s-2.648-2.712-6.192-9.169C145.639,59.625,144.925,55.001,144.925,55.001z"/>
	<path fill="#363239" d="M140.12,117.853c3.37,2.899,5.05,3.996,5.05,3.996l0.041,0.032c0,0,1.366-1.129,4.738-4.028
		c3.37-2.9,5.173-5.486,5.173-5.486s-2.508-2.114-5.094-7.602c-2.585-5.487-3.45-11.913-3.45-11.913h-1.441h-0.203h-1.443
		c0,0-0.863,6.426-3.45,11.913c-2.584,5.488-5.094,7.602-5.094,7.602S136.75,114.953,140.12,117.853z"/>
	<path fill="#363239" d="M162.253,105.549c1.332-1.41,1.253-2.979,1.253-2.979s-3.995-1.8-7.679-6.111
		c-3.684-4.311-4.782-7.367-4.782-7.367l-1.724,1.724c0,0,0.033,0.123,0.095,0.348c0.42,1.531,2.073,7.924,4.534,11.959
		C156.774,107.748,160.921,106.961,162.253,105.549z"/>
	<path fill="#363239" d="M154.886,84.234l-2.194,1.722c0,0,2.901,6.113,7.132,9.481c4.23,3.372,8.386,2.039,9.639,0.316
		c1.252-1.724,1.175-2.745,1.175-2.745s-4.232-0.002-8.856-3.133C157.159,86.743,154.886,84.234,154.886,84.234z"/>
	<path fill="#363239" d="M174.636,83.84c0.076-1.411-0.392-2.116-0.392-2.116l-17.869,0.705c0,0,3.92,4.392,10.11,5.174
		C172.677,88.385,174.559,85.252,174.636,83.84z"/>
	<path fill="#363239" d="M173.147,101.317c-6.502,12.151-16.96,19.412-21.474,24.219c-4.781,5.096-7.287,9.873-5.329,14.42
		c1.993,4.626,8.387,4.389,10.188,0.941c1.8-3.447-0.078-7.133-3.134-7.446c-2.865-0.295-4.147,1.684-4.102,2.322
		c-0.093-0.487-0.233-2.674,3.18-7.384c3.306-4.561,16.907-13.949,23.569-25.267c6.691-11.371,8.388-23.434,8.388-23.434h-5.409
		C179.025,79.689,179.165,90.069,173.147,101.317z M149.323,135.881c0,0-0.013-0.037-0.026-0.108
		C149.3,135.815,149.309,135.851,149.323,135.881z"/>
	<circle fill="#363239" cx="187.494" cy="44.032" r="3.056"/>
	<circle fill="#363239" cx="145.153" cy="126.203" r="3.056"/>
	<circle fill="#363239" cx="185.925" cy="32.825" r="1.726"/>
	<circle fill="#363239" cx="184.034" cy="24.897" r="1.726"/>
	<circle fill="#363239" cx="106.256" cy="24.896" r="1.726"/>
	<circle fill="#363239" cx="179.108" cy="17.307" r="2.509"/>
	<circle fill="#363239" cx="165.217" cy="51.709" r="2.508"/>
	<circle fill="#363239" cx="126.956" cy="51.71" r="2.508"/>
	<circle fill="#363239" cx="213.126" cy="38.633" r="3.056"/>
	<circle fill="#363239" cx="203.844" cy="34.485" r="2.509"/>
	<circle fill="#363239" cx="197.186" cy="26.747" r="1.968"/>
	<circle fill="#363239" cx="194.125" cy="18.291" r="1.608"/>
	<circle fill="#363239" cx="76.359" cy="38.633" r="3.055"/>
	<circle fill="#363239" cx="85.641" cy="34.485" r="2.509"/>
	<circle fill="#363239" cx="92.301" cy="26.747" r="1.968"/>
	<circle fill="#363239" cx="95.361" cy="18.291" r="1.608"/>
	<circle fill="#363239" cx="168.45" cy="12.762" r="2.821"/>
	<path fill="#363239" d="M145.025,29.542h0.019c0,0,5.132-4.355,8.4-9.332c3.228-4.918,4.201-9.8,4.201-9.8
		s-4.199-1.244-8.089-3.113c-3.89-1.865-4.511-2.489-4.511-2.489h-0.019c0,0-0.621,0.624-4.511,2.489
		c-3.89,1.869-8.089,3.113-8.089,3.113s0.974,4.882,4.201,9.8C139.893,25.186,145.025,29.542,145.025,29.542z"/>
	<path fill="#363239" d="M203.28,50.931c-6.459-3.8-13.183,0-15.284,2.462c-0.709,0.832-1.175,1.527-1.486,2.089
		c-1.774-4.41-5.92-7.061-10.698-6.204c-5.765,1.035-6.481,7.401-4.545,10.424c1.958,3.056,6.424,3.213,8.307,1.41
		c1.881-1.803,1.646-3.762,1.646-3.762s3.84,5.329-1.097,11.598c-4.938,6.271-15.766,4.158-20.455-0.079
		c-6.505-5.876-7.288-10.029-7.288-10.029s3.212,6.425,8.777,7.603c5.564,1.175,7.679-2.976,6.661-5.174
		c-1.018-2.195-3.683-2.27-4.859-1.096c-1.176,1.174-0.94,3.447,0.392,4.31c0.82,0.529,1.519,0.466,1.937,0.338
		c-0.761,0.275-2.463,0.607-4.209-0.964c-2.351-2.118-2.274-5.251-2.586-8.23c-0.312-2.978-2.196-6.189-4.938-6.348
		c-2.741-0.157-3.996,0.863-3.996,0.863s0.704-1.333,0-2.038c-0.705-0.706-1.568-0.627-1.568-0.627s-0.125-1.126-0.099-2.897h4.144
		h0.743c1.283,0,2.323-1.04,2.323-2.325c0-1.283-1.041-2.323-2.323-2.323h-0.743h-3.746c0.301-1.896,0.812-3.974,1.662-6.014
		c2.742-6.582,9.246-10.502,14.889-10.894c5.643-0.391,11.326,1.875,12.225,7.602c1.02,6.506-4.152,7.132-4.152,7.132
		s1.724-0.707,1.332-3.684c-0.318-2.414-3.292-6.088-8.149-4.625c-4.937,1.49-6.35,7.447-3.214,11.68
		c3.134,4.232,11.599,4.623,15.752-0.471c4.152-5.094,3.292-14.576-5.485-18.649c-7.637-3.544-17.633-0.082-22.57,7.053
		c-2.452,3.541-3.789,7.144-4.307,10.871h-2.472c-0.519-3.727-1.855-7.33-4.306-10.871c-4.938-7.135-14.932-10.597-22.57-7.053
		c-8.777,4.074-9.638,13.555-5.486,18.649c4.154,5.094,12.618,4.703,15.753,0.471c3.135-4.233,1.722-10.19-3.214-11.68
		c-4.859-1.463-7.833,2.211-8.15,4.625c-0.391,2.977,1.332,3.684,1.332,3.684s-5.173-0.626-4.153-7.132
		c0.899-5.727,6.583-7.992,12.226-7.602c5.644,0.392,12.147,4.312,14.889,10.894c0.85,2.04,1.361,4.118,1.662,6.014h-3.746h-0.743
		c-1.281,0-2.323,1.04-2.323,2.323c0,1.285,1.042,2.325,2.323,2.325h0.743h4.144c0.027,1.771-0.099,2.897-0.099,2.897
		s-0.864-0.079-1.567,0.627c-0.705,0.705,0,2.038,0,2.038s-1.255-1.02-3.998-0.863c-2.742,0.159-4.625,3.37-4.938,6.348
		c-0.312,2.979-0.234,6.112-2.585,8.23c-1.746,1.572-3.448,1.24-4.209,0.964c0.418,0.127,1.117,0.191,1.937-0.338
		c1.332-0.862,1.567-3.136,0.391-4.31c-1.176-1.173-3.841-1.099-4.859,1.096c-1.018,2.198,1.097,6.349,6.662,5.174
		c5.564-1.178,8.776-7.603,8.776-7.603s-0.783,4.152-7.288,10.029c-4.69,4.237-15.517,6.351-20.455,0.079
		c-4.938-6.269-1.097-11.598-1.097-11.598s-0.236,1.959,1.647,3.762c1.882,1.803,6.347,1.646,8.306-1.41
		c1.937-3.022,1.221-9.389-4.544-10.424c-4.777-0.856-8.925,1.794-10.698,6.204c-0.311-0.562-0.777-1.257-1.487-2.089
		c-2.101-2.462-8.825-6.263-15.284-2.462c-6.156,3.623-6.425,11.732-2.173,15.21c3.984,3.258,8.885,1.058,9.778-2.173
		c0.941-3.404-1.087-6.23-4.274-6.157c-3.186,0.074-3.909,2.391-3.909,2.391s-1.739-5.142,3.186-7.534
		c4.925-2.39,9.923,0.508,12.024,3.549c0.614,0.89,1.026,1.803,1.307,2.652c-0.024,0.225-0.056,0.445-0.069,0.675
		c-0.393,6.818,3.573,14.852,14.812,15.753c12.696,1.017,21.945-9.954,24.687-19.671c1.084-3.843,1.778-7.508,1.879-11.048h1.997
		c0.101,3.54,0.794,7.205,1.878,11.048c2.743,9.717,11.992,20.688,24.688,19.671c11.239-0.901,15.205-8.936,14.812-15.753
		c-0.013-0.23-0.045-0.451-0.069-0.676c0.281-0.849,0.693-1.761,1.309-2.651c2.1-3.041,7.098-5.939,12.023-3.549
		c4.925,2.392,3.187,7.534,3.187,7.534s-0.724-2.317-3.911-2.391c-3.186-0.073-5.215,2.753-4.274,6.157
		c0.894,3.23,5.794,5.431,9.779,2.173C209.705,62.663,209.437,54.553,203.28,50.931z"/>
	<path fill="#363239" d="M287.189,8.414c-3.917-4.192-14.476-7.119-23.226,0.322c-8.484,7.217-14.824,15.842-17.602,19.029
		c-2.572,2.953-4.329,4.699-4.329,4.699s1.616-11.022-5.675-20.117c-7.182-8.958-21.017-9.592-28.384-4.155
		c-8.388,6.194-7.136,16.544-1.881,20.072c5.253,3.527,11.918,1.1,13.33-3.686c1.411-4.782-1.236-9.252-6.508-9.252
		c-5.017,0-6.899,4.314-6.587,6.822c0.284,2.27,1.334,3.292,1.334,3.292s-4.157-3.136-2.432-9.645
		c1.727-6.506,13.096-10.191,21.014-7.133c7.919,3.058,12.39,12.702,11.761,20.856c-0.629,8.154-6.899,11.759-6.899,11.759
		s3.215-2.038,3.371-6.428c0.157-4.391-2.116-6.976-5.174-6.9c-3.059,0.078-3.528,3.059-2.432,4.392
		c1.098,1.333,3.295,1.017,3.843-0.55s-0.629-2.272-0.629-2.272s2.04,0.627,1.804,3.059c-0.234,2.43-3.529,2.899-6.037,3.449
		c-2.509,0.549-4.549,1.493-4.939,3.922c-0.392,2.429,1.254,3.84,1.254,3.84s-5.723,2.039-14.113-1.334
		c-8.686-3.489-15.013-13.312-17.225-24.486C188.739,7.409,189.209,0,189.209,0h-43.997h-0.357h-44.088c0,0,1.059,8.767-1.647,19.17
		c-3.057,11.761-8.417,19.795-17.105,23.284c-8.389,3.373-14.113,1.334-14.113,1.334s1.646-1.411,1.254-3.84
		c-0.39-2.429-2.431-3.373-4.938-3.922c-2.509-0.55-5.804-1.019-6.039-3.449c-0.235-2.432,1.805-3.059,1.805-3.059
		s-1.176,0.705-0.629,2.272s2.746,1.883,3.843,0.55c1.097-1.333,0.626-4.313-2.431-4.392c-3.059-0.076-5.332,2.509-5.176,6.9
		c0.156,4.39,3.373,6.428,3.373,6.428s-6.272-3.605-6.9-11.759c-0.629-8.154,3.842-17.798,11.761-20.856
		c7.919-3.058,19.288,0.627,21.014,7.133c1.725,6.508-2.432,9.645-2.432,9.645s1.051-1.023,1.334-3.292
		c0.312-2.508-1.57-6.822-6.586-6.822c-5.272,0-7.921,4.47-6.51,9.252c1.412,4.786,8.077,7.213,13.331,3.686
		c5.254-3.528,6.507-13.878-1.882-20.072C74.727,2.755,60.892,3.39,53.71,12.347c-7.291,9.094-5.674,20.117-5.674,20.117
		s-1.757-1.747-4.33-4.699c-2.776-3.187-9.434-11.453-17.6-19.029C16.558-0.117,6.444,4.353,2.881,8.414
		c-3.766,4.291-4.1,12.162,0.552,15.94c4.654,3.779,12.396,2.1,13.824-3.362c1.061-4.056-1.01-7.741-5.064-8.34
		c-4.053-0.6-6.39,2.282-6.39,2.282s-0.41-1.271,0.858-3.665c1.659-3.135,7.424-6.229,14.275-2.607
		c6.821,3.607,14.191,12.073,19.993,19.13c1.831,2.227,3.999,5.015,6.62,7.771c-2.342-1.629-6.886-4.303-11.278-4.117
		c-6.288,0.267-6.981,5.647-5.329,8.046c1.651,2.398,6.286,2.13,7.298-0.747c1.013-2.875-0.903-4.474-2.235-4.794
		c-0.987-0.237-1.358-0.152-1.485-0.092c0.376-0.237,2.662-1.456,5.533,1.85c3.144,3.623,3.943,9.057,10.123,11.081
		c4.865,1.595,8.736-0.837,10.166-1.945c2.352,0.982,4.913,1.686,7.708,1.994c-2.417,1.363-8.884,6.216-8.447,14.125
		c0.425,7.662,7.261,9.971,11.616,8.206c3.943-1.599,5.421-6.153,3.623-9.378c-1.812-3.252-6.924-3.677-9.161-1.491
		c-2.236,2.184-1.332,4.793-1.332,4.793s-3.306-4.216,0.32-10.122c2.301-3.747,6.053-5.35,8.821-6.037
		c13.639-0.922,20.925-9.305,25.537-18.635c5.175-10.469,5.645-24.16,5.645-24.16h40.298h0.125h40.298c0,0,0.47,13.691,5.646,24.16
		c4.611,9.331,11.898,17.713,25.538,18.635c2.768,0.688,6.52,2.29,8.82,6.037c3.626,5.906,0.32,10.122,0.32,10.122
		s0.904-2.609-1.332-4.793c-2.237-2.186-7.349-1.761-9.161,1.491c-1.797,3.225-0.32,7.779,3.624,9.378
		c4.355,1.766,11.191-0.544,11.616-8.206c0.437-7.909-6.03-12.762-8.446-14.125c2.795-0.308,5.356-1.012,7.707-1.994
		c1.43,1.108,5.301,3.54,10.166,1.945c6.18-2.024,6.979-7.458,10.123-11.081c2.871-3.306,5.156-2.087,5.533-1.85
		c-0.127-0.061-0.498-0.146-1.484,0.092c-1.332,0.32-3.249,1.918-2.236,4.794c1.013,2.877,5.647,3.146,7.3,0.747
		c1.653-2.399,0.959-7.78-5.33-8.046c-4.392-0.186-8.936,2.487-11.278,4.116c2.621-2.755,4.789-5.543,6.62-7.77
		c5.801-7.058,13.173-15.523,19.994-19.13c6.852-3.622,12.615-0.527,14.274,2.607c1.269,2.394,0.858,3.665,0.858,3.665
		s-2.336-2.882-6.39-2.282c-4.054,0.599-6.126,4.284-5.065,8.34c1.43,5.462,9.171,7.141,13.824,3.362
		C291.288,20.575,291.084,12.584,287.189,8.414z"/>
	<path fill="#363239" d="M250.39,20.951c0,0,4.262-3.197,4.954-8.098c0.692-4.902-2.078-9.432-2.078-9.432s0.238,1.871-2.088,3.992
		c-2.086,1.906-3.382,2.935-3.281,6.619C248.001,17.869,250.39,20.951,250.39,20.951z"/>
</g>
</svg>
