<?xml version="1.0" encoding="utf-8"?>
<!-- Generator: Adobe Illustrator 13.0.0, SVG Export Plug-In . SVG Version: 6.00 Build 14948)  -->
<!DOCTYPE svg PUBLIC "-//W3C//DTD SVG 1.1 Tiny//EN" "http://www.w3.org/Graphics/SVG/1.1/DTD/svg11-tiny.dtd">
<svg version="1.1" baseProfile="tiny" id="Layer_1" xmlns="http://www.w3.org/2000/svg" xmlns:xlink="http://www.w3.org/1999/xlink"
	 x="0px" y="0px" width="21.438px" height="15.5px" viewBox="0 0 21.438 15.5" xml:space="preserve">
<g>
	<circle cx="8.828" cy="7.341" r="1.6"/>
</g>
<path d="M10.717-1.951C8.102-2.096,6.43-0.57,5.34,1.9C4.248,4.371,3.885,7.133,3.885,7.133l0.074-2.107c0,0-0.582-4.141,1.6-6.178
	c2.18-2.033,5.523-2.324,7.193-1.09"/>
<path d="M12.752-2.242c1.672,1.236,2.18,3.562,1.018,5.014c-1.162,1.455-3.416,0.945-3.926-0.727
	c-0.506-1.67,0.871-3.051,2.328-2.832c1.451,0.217,1.379,1.598,1.379,1.598s-0.219-2.615-2.834-2.762"/>
<g>
	<path d="M3.959,10.466c0,0-0.582,4.144,1.6,6.178c2.18,2.035,5.523,2.325,7.193,1.09c1.672-1.235,2.18-3.561,1.018-5.015
		c-1.162-1.452-3.416-0.943-3.926,0.728c-0.506,1.671,0.871,3.052,2.328,2.835c1.451-0.219,1.379-1.6,1.379-1.6
		s-0.219,2.616-2.834,2.761c-2.615,0.147-4.287-1.38-5.377-3.851C4.248,11.12,3.885,8.359,3.885,8.359L3.959,10.466z"/>
</g>
<line x1="14.504" y1="18.488" x2="14.504" y2="-3.008"/>
<polyline points="15.076,-3.008 15.076,18.488 13.93,18.488 13.93,18.488 13.93,-3.008 "/>
<line x1="3.607" y1="-2.982" x2="3.607" y2="18.488"/>
<polyline points="4.18,-2.982 4.18,18.488 3.035,18.488 3.035,18.488 3.035,-2.982 "/>
<polyline points="18.5,-2.982 18.5,18.483 17.357,18.483 17.357,18.483 17.357,-2.982 "/>
</svg>
