<?xml version="1.0" encoding="utf-8"?>
<!-- Generator: Adobe Illustrator 13.0.0, SVG Export Plug-In . SVG Version: 6.00 Build 14948)  -->
<!DOCTYPE svg PUBLIC "-//W3C//DTD SVG 1.1 Tiny//EN" "http://www.w3.org/Graphics/SVG/1.1/DTD/svg11-tiny.dtd">
<svg version="1.1" baseProfile="tiny" id="Layer_1" xmlns="http://www.w3.org/2000/svg" xmlns:xlink="http://www.w3.org/1999/xlink"
	 x="0px" y="0px" width="175px" height="175px" viewBox="-0.123 -0.062 175 175" xml:space="preserve">
<g>
	<path d="M75.238,155.963l-9.436,9.726h15.389c0,0-2.324-0.288-4.646-2.759C74.221,160.461,75.238,155.963,75.238,155.963z
		 M156.835,158.137c-5.082,4.5-9.292,5.811-9.292,5.811h15.971v-16.266C163.514,147.682,161.917,153.639,156.835,158.137z
		 M85.918,87.481L75.861,77.167c0,0,0.844,1.472,1.459,4.521c0.48,2.387,0.32,4.199,0.32,4.199s0.896-0.17,2.901,0.146
		C83.303,86.469,85.918,87.481,85.918,87.481z M116.241,130.531c-1.89,1.393,0.222,3.953,2.483,2.057
		c1.244-1.045,3.711-2.468,3.711-2.468S118.13,129.141,116.241,130.531z M157.125,151.75c0,0,0,0-2.469-0.438
		c-2.467-0.434-5.189-1.777-5.189-1.777s0.736,1.65,1.051,3.993c0.328,2.435,0.365,4.101,0.365,4.101s2.467-0.07,4.209-1.959
		C156.835,153.783,157.125,151.75,157.125,151.75z M97.889,108.774c2.322-0.581,5.664-1.888,5.664-1.888s-4.211-1.89-6.97-1.019
		C93.824,106.74,95.564,109.355,97.889,108.774z M98.905,113.637c3.048-0.361,5.228-3.992,5.228-3.992s-3.486-0.581-5.81,0.871
		C96.002,111.969,97.174,113.844,98.905,113.637z M81.117,122.857c-0.434,1.232,1.527,2.613,4.721,1.888
		c3.196-0.726,7.116-2.612,7.116-2.612s-1.306,0.289-4.937-0.146S81.555,121.624,81.117,122.857z M87.22,126.486
		c0,0-1.817,0.291-4.649,0.22c-2.83-0.071-5.808,0.941-5.591,2.541c0.218,1.595,2.902,1.74,5.519,0.288
		C84.717,128.303,87.22,126.486,87.22,126.486z M76.617,134.329c0.438,1.306,2.613,1.017,4.428-0.292
		c1.816-1.306,3.557-3.63,3.557-3.63s-1.739,0.8-4.063,1.308C78.215,132.221,76.182,133.021,76.617,134.329z M59.195,152.331
		c-1.307-1.308-4.355-1.019-4.719,1.597c-0.363,2.613,1.815,2.541,1.815,2.541s-0.293,0.072-1.307-0.217
		c-1.021-0.289-3.777-2.251-3.414-6.68c0.362-4.43,5.442-8.13,9.364-5.662c3.92,2.469,2.902,7.186,3.121,7.26
		c0.217,0.073,4.271-2.796,6.306-7.586c1.149-2.713,1.674-6.154,1.364-9.398c3.146-2.312,5.021-6.426,4.599-10.891
		c-0.679-7.162-6.533-9.074-6.533-9.074l3.731-3.836c4.515,1.28,9.518-0.623,10.425-5.021c0.942-4.574-2.759-7.84-6.459-6.75
		c-3.703,1.088-4.359,5.009-2.688,6.968c0.308,0.359,0.607,0.604,0.896,0.769l-2.457,2.396c-3.031-1.32-5.575-4.729-5.48-9.406
		c0.062-3.022,1.871-5.394,4.354-6.771c0.808,1.689,2.062,3.245,4.068,4.158c3.011,1.367,7.015,0.961,10.233,0.584
		c1.94,3.842,1.312,7.545,1.312,7.545s3.412-0.871,7.402-0.797c3.994,0.07,5.881,1.017,5.881,1.017l-1.451-1.744
		c0,0-1.672-0.435-4.864-0.579c-3.192-0.146-5.153,0.146-5.153,0.146s-0.072-0.871-0.508-2.978
		c-0.135-0.648-0.477-1.656-1.064-2.787c0.455-0.05,0.887-0.092,1.282-0.117c3.341-0.217,4.79,1.091,4.79,1.091l-2.395-2.25
		c0,0-0.582-0.218-1.959-0.218c-0.584,0-1.395,0.104-2.462,0.229c-1.454-2.231-3.827-4.595-7.413-5.537
		c-2.678-0.702-5.191-0.452-7.315,0.459c-0.108-0.284-0.212-0.582-0.308-0.893c-1.453-4.718,0.145-11.759-2.033-14.954
		c-1.645-2.413-4.891-2.042-5.736-0.073c-0.871,2.033,1.09,3.849,2.76,3.269c1.648-0.574,1.742-2.979,0.219-3.34
		c-1.524-0.363-1.67,1.16-1.67,1.16s-0.508-1.596,0.943-1.887c1.451-0.289,3.049,0.945,3.484,3.413
		c0.436,2.467,0.145,7.259,0.58,10.161c0.16,1.066,0.4,2.332,0.838,3.596c-2.043,1.127-3.645,2.9-4.539,5.047
		c-2.268,5.428-0.043,11.293,5.057,13.578l-4.84,4.717c0,0,5.59,1.161,7.332,5.952s0.219,9.001-3.049,11.906
		c-0.018,0.016-0.039,0.028-0.057,0.044c-0.361-1.854-1.018-3.582-2.025-4.993c-3.182-4.457-9.906-5.077-12-0.567
		c-1.889,4.063,2.23,9.071,8.182,9.205c1.62,0.034,3.135-0.313,4.485-0.963c0.185,1.428,0.163,2.914-0.108,4.389
		c-1.018,5.519-5.082,9.509-5.082,9.509s0.291-0.798-0.653-3.191c-0.943-2.396-4.572-4.792-8.638-3.268s-6.535,7.04-4.647,11.397
		c1.889,4.354,6.024,4.936,7.916,3.557C60.945,156.065,60.502,153.639,59.195,152.331z M83.295,93.376
		c0.992,0.839,1.764,1.741,2.374,2.658c-1.219,0.118-2.688,0.226-4.478,0.253c-3.776,0.062-6.461-1.123-8.1-4.191
		C76.33,90.723,80.38,90.916,83.295,93.376z M74.667,109.209l2.583-2.656c0.461-0.133,0.748-0.393,0.748-0.393
		s-0.508,0.51-1.744-1.016c-1.232-1.523-0.145-5.661,3.412-4.791c3.559,0.871,2.904,6.969-1.598,8.64
		C76.983,109.395,75.814,109.448,74.667,109.209z M59.268,131.497c-2.033-3.121,1.088-6.823,5.229-5.011
		c2.596,1.138,4.503,3.818,5.314,7.021C66.256,135.057,60.99,134.141,59.268,131.497z M76.4,116.686
		c0.881,0,1.598-0.715,1.598-1.596c0-0.884-0.717-1.599-1.598-1.599c-0.883,0-1.598,0.715-1.598,1.599
		C74.803,115.971,75.518,116.686,76.4,116.686z M103.696,133.82c0-0.885-0.716-1.6-1.597-1.6c-0.883,0-1.598,0.715-1.598,1.6
		c0,0.881,0.715,1.595,1.598,1.595C102.98,135.415,103.696,134.701,103.696,133.82z M97.536,165.635c0.882,0,1.597-0.717,1.597-1.6
		s-0.715-1.598-1.597-1.598s-1.597,0.715-1.597,1.598S96.655,165.635,97.536,165.635z M63.26,139.699
		c0,0.882,0.715,1.598,1.599,1.598c0.883,0,1.598-0.716,1.598-1.598c0-0.881-0.715-1.598-1.598-1.598
		C63.975,138.102,63.26,138.818,63.26,139.699z M78.504,121.48c0.643,0,1.164-0.521,1.164-1.163c0-0.64-0.521-1.163-1.164-1.163
		c-0.639,0-1.16,0.523-1.16,1.163C77.344,120.959,77.865,121.48,78.504,121.48z M43.467,152.205c0.523,0,0.949-0.428,0.949-0.953
		c0-0.523-0.426-0.949-0.949-0.949c-0.527,0-0.953,0.426-0.953,0.949C42.514,151.777,42.939,152.205,43.467,152.205z
		 M105.875,129.391c0-0.643-0.521-1.162-1.163-1.162c-0.641,0-1.161,0.521-1.161,1.162c0,0.643,0.521,1.16,1.161,1.16
		C105.354,130.553,105.875,130.033,105.875,129.391z M94.622,139.699c0-0.643-0.521-1.162-1.162-1.162
		c-0.639,0-1.159,0.521-1.159,1.162c0,0.643,0.521,1.161,1.159,1.161C94.102,140.86,94.622,140.342,94.622,139.699z
		 M130.918,142.967c0-0.643-0.52-1.162-1.162-1.162c-0.642,0-1.162,0.521-1.162,1.162c0,0.641,0.521,1.162,1.162,1.162
		C130.398,144.129,130.918,143.607,130.918,142.967z M125.258,142.312c0-0.641-0.521-1.161-1.162-1.161
		c-0.642,0-1.162,0.521-1.162,1.161c0,0.642,0.52,1.162,1.162,1.162C124.737,143.475,125.258,142.954,125.258,142.312z
		 M117.562,143.981c-0.643,0-1.162,0.522-1.162,1.161c0,0.644,0.521,1.162,1.162,1.162c0.641,0,1.16-0.52,1.16-1.162
		C118.723,144.504,118.203,143.981,117.562,143.981z M113.786,152.114c0,0.64,0.521,1.16,1.162,1.16c0.641,0,1.161-0.521,1.161-1.16
		c0-0.644-0.521-1.162-1.161-1.162C114.307,150.952,113.786,151.471,113.786,152.114z M116.977,165.832
		c0.554,0,1.002-0.451,1.002-1.004c0-0.554-0.448-1.004-1.002-1.004c-0.555,0-1.002,0.45-1.002,1.004
		C115.975,165.381,116.422,165.832,116.977,165.832z M112.814,165.379c0-0.568-0.461-1.031-1.03-1.031
		c-0.567,0-1.029,0.463-1.029,1.031c0,0.567,0.462,1.029,1.029,1.029C112.354,166.408,112.814,165.946,112.814,165.379z
		 M108.252,165.002c0-0.656-0.529-1.188-1.188-1.188c-0.655,0-1.188,0.531-1.188,1.188c0,0.655,0.532,1.189,1.188,1.189
		C107.723,166.191,108.252,165.657,108.252,165.002z M103.848,164.555c0-0.656-0.531-1.188-1.188-1.188s-1.188,0.531-1.188,1.188
		c0,0.654,0.531,1.188,1.188,1.188S103.848,165.21,103.848,164.555z M79.014,123.803c-0.358,0-0.653,0.293-0.653,0.651
		c0,0.361,0.295,0.654,0.653,0.654c0.361,0,0.652-0.293,0.652-0.654C79.666,124.096,79.375,123.803,79.014,123.803z M108.85,127.287
		c0-0.359-0.293-0.652-0.653-0.652c-0.361,0-0.653,0.293-0.653,0.652c0,0.36,0.292,0.65,0.653,0.65
		C108.557,127.938,108.85,127.647,108.85,127.287z M95.266,97.887c0,1.367,1.109,2.477,2.478,2.477s2.478-1.107,2.478-2.477
		c0-1.367-1.108-2.478-2.478-2.478C96.375,95.409,95.266,96.518,95.266,97.887z M42.643,145.942c0,0-0.217-0.653,0-2.179
		c0.221-1.523,1.092-3.558,0.727-5.518c-0.361-1.96-3.631-1.96-3.631,1.598C39.738,143.4,42.643,145.942,42.643,145.942z
		 M32.699,146.959c-2.688-0.436-3.195,2.032-2.033,2.832c1.162,0.799,2.615,0.289,4.574,0.145c1.959-0.144,2.539,0.146,2.539,0.146
		S35.383,147.395,32.699,146.959z M40.291,146.926c-0.474,0.277-0.795,0.787-0.795,1.373c0,0.885,0.715,1.598,1.598,1.598
		s1.599-0.713,1.599-1.598c0-0.881-0.716-1.598-1.599-1.598c-0.211,0-0.414,0.043-0.6,0.119c-0.275-0.432-1.952-3.193-2.354-7.121
		c-0.435-4.284-0.869-7.457-2.611-9.146c-2.324-2.252-5.332-1.004-5.59,1.307c-0.291,2.615,2.535,3.416,3.774,2.251
		c1.16-1.088,0.509-2.902-0.727-3.122c-0.357-0.062-0.609-0.061-0.8-0.031c0.572-0.277,1.568-0.516,2.687,0.323
		c1.742,1.308,2.252,4.646,2.613,8.058c0.362,3.411,1.524,5.735,2.032,6.461c0.406,0.578,0.798,0.914,0.944,1.032
		c-0.032,0.015-0.062,0.035-0.096,0.052c-0.175-0.174-0.479-0.447-0.944-0.726c-0.729-0.442-3.039-1.405-6.34-1.53
		c-3.303-0.123-6.545-0.394-7.914-1.982c-0.876-1.018-0.717-1.986-0.488-2.555c-0.015,0.183,0.002,0.424,0.084,0.76
		c0.293,1.173,2.08,1.683,3.049,0.494c1.037-1.271,0.08-3.933-2.409-3.479c-2.201,0.396-3.203,3.371-0.89,5.455
		c1.736,1.563,4.816,1.774,8.959,1.909C36.919,145.344,39.51,146.525,40.291,146.926z M24.277,134.258
		c1.887,2.248,5.371,2.248,5.371,2.248s-1.232-4.719-3.338-5.59C24.204,130.045,22.389,132.004,24.277,134.258z M32.553,141.879
		c1.308,1.379,4.865,2.104,4.865,2.104s-1.816-5.372-4.068-5.444C31.102,138.465,31.246,140.498,32.553,141.879z M19.775,140.354
		c-1.752-0.104-1.379,1.379-1.379,1.379s-4.355-6.604,2.322-13.067c6.375-6.165,13.866-3.267,14.737-2.903
		c0.871,0.364,1.308,1.162,1.308,1.162s-1.308,0.289-1.019,1.596c0.291,1.31,2.502,1.388,2.832-0.144
		c0.437-2.034-2.178-4.866-9.582-4.647c-8.283,0.244-13.344,6.75-12.994,13.722c0.289,5.81,3.123,6.17,4.063,5.59
		C21.469,142.176,21.01,140.424,19.775,140.354z M18.615,124.092c0-0.723-0.584-1.307-1.309-1.307c-0.722,0-1.306,0.584-1.306,1.307
		s0.584,1.308,1.306,1.308C18.031,125.398,18.615,124.812,18.615,124.092z M15.129,128.883c0-0.722-0.584-1.307-1.307-1.307
		c-0.721,0-1.307,0.585-1.307,1.307c0,0.724,0.586,1.308,1.307,1.308C14.545,130.189,15.129,129.605,15.129,128.883z
		 M13.533,134.473c0-0.722-0.584-1.308-1.307-1.308c-0.724,0-1.308,0.586-1.308,1.308c0,0.72,0.584,1.307,1.308,1.307
		C12.949,135.779,13.533,135.192,13.533,134.473z M13.752,140.278c0-0.722-0.586-1.306-1.309-1.306
		c-0.721,0-1.307,0.584-1.307,1.306c0,0.724,0.586,1.308,1.307,1.308C13.166,141.586,13.752,141.002,13.752,140.278z
		 M50.955,140.237c-0.721,0-1.305,0.585-1.305,1.304c0,0.725,0.584,1.309,1.305,1.309c0.725,0,1.309-0.584,1.309-1.309
		C52.264,140.822,51.68,140.237,50.955,140.237z M53.438,148.277c0,0.724,0.586,1.307,1.307,1.307c0.723,0,1.307-0.582,1.307-1.307
		c0-0.721-0.584-1.305-1.307-1.305C54.023,146.973,53.438,147.557,53.438,148.277z M48.168,147.164c0.578,0,1.043-0.468,1.043-1.044
		c0-0.575-0.465-1.043-1.043-1.043c-0.574,0-1.045,0.468-1.045,1.043C47.123,146.696,47.594,147.164,48.168,147.164z
		 M59.631,146.227c0-0.578-0.469-1.045-1.045-1.045c-0.578,0-1.043,0.467-1.043,1.045c0,0.576,0.465,1.043,1.043,1.043
		C59.162,147.27,59.631,146.803,59.631,146.227z M47.852,152.004c0.442,0,0.801-0.356,0.801-0.801c0-0.441-0.357-0.801-0.801-0.801
		c-0.441,0-0.801,0.359-0.801,0.801C47.051,151.646,47.41,152.004,47.852,152.004z M61.611,149.94c0.441,0,0.801-0.356,0.801-0.8
		c0-0.441-0.359-0.801-0.801-0.801c-0.442,0-0.801,0.358-0.801,0.801C60.811,149.584,61.17,149.94,61.611,149.94z M14.623,146.305
		c0.721,0,1.307-0.586,1.307-1.308s-0.586-1.307-1.307-1.307c-0.723,0-1.307,0.585-1.307,1.307S13.9,146.305,14.623,146.305z
		 M23.334,121.334c0-0.722-0.586-1.307-1.309-1.307c-0.721,0-1.305,0.585-1.305,1.307c0,0.721,0.584,1.305,1.305,1.305
		C22.748,122.639,23.334,122.055,23.334,121.334z M27.615,120.971c0.723,0,1.309-0.586,1.309-1.307c0-0.723-0.586-1.307-1.309-1.307
		c-0.721,0-1.305,0.584-1.305,1.307C26.311,120.385,26.895,120.971,27.615,120.971z M34.73,119.881c0-0.723-0.586-1.306-1.308-1.306
		c-0.721,0-1.307,0.583-1.307,1.306s0.586,1.309,1.307,1.309C34.145,121.189,34.73,120.604,34.73,119.881z M37.998,122.274
		c0,0.726,0.584,1.308,1.307,1.308c0.724,0,1.308-0.582,1.308-1.308c0-0.72-0.584-1.304-1.308-1.304
		C38.582,120.971,37.998,121.555,37.998,122.274z M48.924,155.875c0-0.721-0.586-1.307-1.307-1.307c-0.225,0-0.424,0.07-0.607,0.17
		c-0.654-0.938-1.521-2.627-1.826-5.312c-0.383-3.395,1.207-8.229,3.484-10.598c3.703-3.85,6.971-1.962,6.971-1.962
		s-1.524-0.071-1.744,1.744c-0.217,1.813,2.326,3.411,3.994,1.524c1.668-1.89,0.58-6.317-4.862-5.736
		c-5.445,0.58-6.896,7.188-6.896,7.188s1.671-8.64-0.217-11.904c-1.89-3.269-5.375-2.688-6.463-1.09s-0.22,4.354,2.033,4.14
		c2.252-0.22,2.104-2.687,1.231-3.413c-0.871-0.727-1.812-0.217-1.812-0.217s1.448-1.09,3.338,0.217
		c1.889,1.308,1.672,4.938,1.233,9.146c-0.436,4.209-1.307,8.493-0.436,12.123c0.469,1.953,1.318,3.336,1.952,4.161
		c-0.226,0.127-0.41,0.312-0.527,0.542c-0.991-0.88-3.636-2.805-8.394-3.47c-4.115-0.574-11.18,0.364-14.881-0.144
		c-3.703-0.511-4.285-2.326-4.139-3.195c0.143-0.872,1.159-1.016,1.159-1.016s-1.233,0.724-0.146,1.959
		c1.09,1.234,2.978,0.291,2.902-1.235c-0.07-1.522-1.521-2.976-3.844-2.031c-2.324,0.944-2.389,4.458,0.068,6.097
		c2.182,1.454,9.147,0.727,11.691,0.438c2.538-0.292,8.129-0.22,11.178,0.798c2.104,0.702,3.603,1.498,4.34,1.93
		c-0.055,0.144-0.092,0.293-0.092,0.453c0,0.721,0.584,1.307,1.307,1.307C48.338,157.18,48.924,156.596,48.924,155.875z
		 M37.418,155.963c-5.373,0.141-21.256-0.238-26.934-0.727c-6.752-0.583-6.752-2.398-6.752-2.398s2.104,0.801,3.703-1.158
		c1.598-1.961,0.58-5.52-2.178-6.099c-2.759-0.583-5.664,1.813-5.445,5.226c0.252,3.93,3.412,5.951,10.09,5.951
		c6.682,0,36.443,0,36.443,0l-1.019-0.795C45.328,155.963,42.787,155.814,37.418,155.963z M127.651,163.727c0,0,0,0,0.362-0.726
		c0.363-0.726,1.67-0.799,3.123-3.122c1.451-2.32,0-4.717,0-4.717s-3.268,2.686-3.994,4.792
		C126.418,162.057,127.651,163.727,127.651,163.727z M125.846,161.338c0,0-2.617-0.299-3.963,1.271
		c-1.347,1.57-0.824,3.965-0.824,3.965s0.301-1.048,2.319-2.171C125.396,163.283,125.846,161.338,125.846,161.338z M165.279,81.59
		V66.2l-9.729,9.437c0,0,4.502-1.017,6.969,1.306C164.988,79.266,165.279,81.59,165.279,81.59z M75.912,77.217l9.916,10.153
		c0,0-1.02-2.612-1.455-5.371c-0.316-2.008-0.146-2.903-0.146-2.903s-2.022,0.125-4.233-0.42
		C77.168,77.975,75.912,77.217,75.912,77.217z M105.461,96.982c-0.869,2.758,1.018,6.97,1.018,6.97s1.306-3.34,1.887-5.662
		C108.946,95.967,106.332,94.219,105.461,96.982z M113.229,99.307c0.207-1.73-1.67-2.903-3.123-0.582
		c-1.45,2.322-0.87,5.809-0.87,5.809S112.866,102.356,113.229,99.307z M122.448,81.518c-1.234,0.435-1.308,3.266-0.871,6.895
		s0.146,4.934,0.146,4.934s1.888-3.916,2.613-7.108C125.062,83.042,123.682,81.08,122.448,81.518z M128.836,77.381
		c-1.597-0.221-2.613,2.758-2.541,5.588c0.073,2.832-0.218,4.644-0.218,4.644s1.815-2.495,3.048-4.714
		C130.578,80.283,130.434,77.596,128.836,77.381z M133.627,81.445c1.307-1.814,1.598-3.994,0.291-4.43
		c-1.307-0.435-2.104,1.599-2.613,3.92C130.797,83.26,129.998,85,129.998,85S132.321,83.26,133.627,81.445z M89.928,80.209
		c0.83,3.163,2.768,5.383,4.742,6.86c-0.167,1.571-0.338,2.681-0.338,3.43c0,1.378,0.219,1.958,0.219,1.958l2.25,2.401
		c0,0-1.308-1.457-1.09-4.796c0.042-0.639,0.123-1.363,0.215-2.146c1.444,0.867,2.785,1.348,3.584,1.514
		c2.104,0.436,2.976,0.508,2.976,0.508s-0.291,1.959-0.146,5.158c0.146,3.194,0.581,4.863,0.581,4.863l1.742,1.452
		c0,0-0.942-1.889-1.017-5.882c-0.071-3.995,0.8-7.408,0.8-7.408s-4.235,0.715-8.341-1.759c0.334-3.048,0.563-6.618-0.685-9.364
		c-0.812-1.787-2.134-2.974-3.604-3.783c1.299-2.836,3.816-4.988,7.113-5.056c4.676-0.096,8.084,2.449,9.405,5.479l-2.396,2.457
		c-0.164-0.289-0.409-0.59-0.769-0.896c-1.96-1.67-5.881-1.017-6.968,2.685c-1.09,3.703,2.177,7.405,6.75,6.463
		c4.4-0.908,6.305-5.912,5.021-10.428l3.834-3.729c0,0,2.041,6.242,9.201,6.92c4.603,0.436,8.637-1.747,10.821-5.184
		c3.058,0.41,6.323-0.061,9.183-1.272c4.791-2.032,7.818-5.981,7.746-6.2c-0.072-0.217-4.793,0.799-7.26-3.122
		c-2.468-3.92,1.234-9.002,5.662-9.364s6.387,2.396,6.68,3.412c0.291,1.016,0.217,1.307,0.217,1.307s0.074-2.178-2.541-1.813
		c-2.612,0.362-2.903,3.411-1.597,4.718c1.308,1.307,3.735,1.75,5.226-0.289c1.381-1.889,0.8-6.026-3.557-7.914
		c-4.354-1.887-9.871,0.58-11.396,4.646s0.87,7.695,3.266,8.639s3.195,0.652,3.195,0.652s-3.992,4.066-9.511,5.083
		c-1.525,0.281-3.064,0.293-4.536,0.087c0.608-1.371,0.95-2.883,0.95-4.479c0-6.365-4.979-10.057-9.045-8.168
		c-4.508,2.094-2.139,9.476,1.59,11.988c1.252,0.844,2.664,1.434,4.154,1.797c-0.076,0.099-0.146,0.205-0.228,0.297
		c-2.902,3.267-7.113,4.791-11.904,3.05c-4.791-1.743-5.952-7.333-5.952-7.333l-4.717,4.838c-2.287-5.098-8.15-7.322-13.576-5.055
		c-2.359,0.985-4.271,2.824-5.365,5.17c-1.446-0.574-2.937-0.866-4.166-1.051c-2.906-0.435-7.697-0.146-10.166-0.582
		c-2.47-0.436-3.703-2.03-3.41-3.483c0.289-1.452,1.885-0.943,1.885-0.943s-1.525,0.146-1.162,1.669
		c0.363,1.525,2.768,1.43,3.34-0.217c0.58-1.669-1.23-3.629-3.268-2.758c-1.969,0.844-2.34,4.089,0.074,5.732
		c3.192,2.179,10.233,0.582,14.957,2.033c0.549,0.17,1.055,0.361,1.524,0.571C89.436,75.551,89.299,77.814,89.928,80.209z
		 M94.984,82.01c-0.021,1.328-0.088,2.467-0.167,3.473c-0.634-0.501-1.253-1.092-1.839-1.788c-2.27-2.687-2.609-6.341-1.577-9.433
		C94.018,75.922,95.04,78.491,94.984,82.01z M108.583,78.467c-1.671,4.502-7.769,5.155-8.639,1.599
		c-0.87-3.558,3.266-4.646,4.791-3.412c1.524,1.233,1.016,1.741,1.016,1.741s0.261-0.288,0.396-0.752l2.652-2.578
		C109.038,76.213,108.985,77.383,108.583,78.467z M126.078,64.893c-1.814-4.137,1.889-7.26,5.009-5.228
		c2.646,1.724,3.562,6.989,2.011,10.544C129.896,69.396,127.217,67.488,126.078,64.893z M116.278,76.799
		c0-0.883-0.716-1.599-1.599-1.598c-0.883,0-1.598,0.715-1.598,1.598c0,0.881,0.715,1.596,1.598,1.596S116.278,77.68,116.278,76.799
		z M133.409,100.902c-0.881,0-1.597,0.717-1.597,1.598c0,0.883,0.715,1.596,1.597,1.596c0.883,0,1.599-0.713,1.599-1.596
		C135.008,101.619,134.292,100.902,133.409,100.902z M162.029,97.938c0,0.883,0.715,1.598,1.597,1.598
		c0.882-0.001,1.597-0.715,1.597-1.598s-0.713-1.598-1.597-1.598C162.743,96.34,162.029,97.055,162.029,97.938z M139.29,66.854
		c0.882,0,1.597-0.715,1.597-1.598c0-0.882-0.715-1.597-1.597-1.597c-0.883-0.001-1.597,0.714-1.597,1.597
		S138.408,66.854,139.29,66.854z M119.908,80.066c0.641-0.001,1.161-0.521,1.161-1.162c0-0.643-0.521-1.163-1.161-1.163
		c-0.643,0-1.162,0.521-1.162,1.163C118.746,79.545,119.266,80.065,119.908,80.066z M94.614,94.496c0-0.643-0.521-1.166-1.162-1.166
		c-0.64,0-1.16,0.523-1.16,1.166c0,0.645,0.521,1.167,1.16,1.167C94.096,95.663,94.614,95.139,94.614,94.496z M101.43,100.848
		c-0.642,0-1.162,0.519-1.162,1.16c0,0.641,0.521,1.162,1.162,1.162c0.644,0,1.162-0.521,1.162-1.162
		S102.073,100.848,101.43,100.848z M90.963,91.348c0-0.644-0.52-1.162-1.162-1.162c-0.641,0-1.16,0.52-1.16,1.162
		c0,0.641,0.52,1.16,1.16,1.162C90.443,92.508,90.963,91.988,90.963,91.348z M72.139,74.404c0,0.641,0.523,1.161,1.162,1.162
		c0.644-0.001,1.16-0.521,1.16-1.164c0-0.641-0.518-1.16-1.16-1.16C72.66,73.242,72.139,73.762,72.139,74.404z M150.844,44.815
		c0.525,0,0.951-0.427,0.951-0.951c0-0.526-0.426-0.951-0.951-0.951c-0.524,0-0.951,0.425-0.951,0.951
		C149.893,44.389,150.318,44.815,150.844,44.815z M127.82,105.114c0,0.64,0.521,1.161,1.162,1.161c0.642,0,1.16-0.521,1.16-1.161
		c0-0.644-0.52-1.162-1.16-1.162C128.34,103.952,127.82,104.471,127.82,105.114z M140.451,93.855
		c0.001-0.645-0.52-1.161-1.161-1.161s-1.161,0.519-1.161,1.161c0,0.645,0.52,1.167,1.161,1.167S140.452,94.5,140.451,93.855z
		 M141.395,130.158c0,0.643,0.521,1.163,1.162,1.163s1.162-0.521,1.162-1.163s-0.521-1.16-1.162-1.162
		C141.915,128.998,141.395,129.516,141.395,130.158z M140.742,124.496c0,0.641,0.52,1.162,1.161,1.162s1.161-0.521,1.161-1.162
		c0-0.643-0.521-1.162-1.161-1.162C141.262,123.334,140.742,123.854,140.742,124.496z M119.172,117.768
		c0-0.768-0.623-1.391-1.393-1.391c-0.768,0-1.391,0.623-1.391,1.391c0,0.77,0.623,1.391,1.391,1.391
		C118.549,119.159,119.172,118.537,119.172,117.768z M145.896,117.963c0-0.643-0.521-1.162-1.163-1.162
		c-0.64,0-1.161,0.521-1.161,1.162c0,0.641,0.521,1.163,1.162,1.163S145.896,118.604,145.896,117.963z M152.865,115.348
		c0-0.642-0.521-1.16-1.162-1.16s-1.162,0.52-1.162,1.16c0,0.642,0.52,1.162,1.162,1.162
		C152.346,116.512,152.865,115.99,152.865,115.348z M163.416,117.379c0,0.555,0.449,1.002,1.003,1.002
		c0.552,0,1.003-0.447,1.003-1.004c0-0.552-0.451-1.002-1.003-1.002C163.865,116.375,163.416,116.825,163.416,117.379z
		 M163.938,112.188c0,0.566,0.461,1.027,1.031,1.029c0.568-0.002,1.029-0.463,1.029-1.029c-0.001-0.57-0.461-1.031-1.029-1.031
		C164.398,111.156,163.938,111.617,163.938,112.188z M163.405,107.465c0,0.657,0.532,1.188,1.188,1.188
		c0.654,0,1.188-0.531,1.188-1.188c0-0.654-0.533-1.188-1.188-1.188C163.938,106.277,163.405,106.809,163.405,107.465z
		 M162.957,103.062c-0.001,0.654,0.532,1.187,1.188,1.187c0.656,0,1.188-0.53,1.188-1.187c0-0.657-0.532-1.191-1.188-1.191
		C163.489,101.871,162.956,102.405,162.957,103.062z M123.391,79.411c0,0.36,0.293,0.653,0.654,0.653s0.653-0.293,0.652-0.653
		c0-0.36-0.291-0.653-0.652-0.653S123.391,79.051,123.391,79.411z M87.177,88.07c-0.363-0.002-0.654,0.291-0.654,0.65
		c0,0.362,0.291,0.654,0.654,0.654c0.362,0,0.653-0.294,0.653-0.654C87.83,88.361,87.539,88.07,87.177,88.07z M103.534,104.684
		c0,0.363,0.293,0.654,0.653,0.654s0.654-0.293,0.654-0.654c0-0.359-0.294-0.652-0.654-0.652S103.534,104.324,103.534,104.684z
		 M75.746,76.612c0-0.36-0.293-0.653-0.652-0.653c-0.36-0.001-0.654,0.293-0.654,0.653c0,0.362,0.294,0.653,0.654,0.653
		C75.453,77.266,75.746,76.973,75.746,76.612z M72.189,72.184c0-0.36-0.291-0.652-0.654-0.652c-0.361,0-0.654,0.292-0.654,0.652
		c0,0.361,0.293,0.654,0.654,0.654C71.898,72.838,72.189,72.545,72.189,72.184z M126.223,108.598c0,0.36,0.293,0.653,0.653,0.653
		s0.653-0.293,0.653-0.653c0-0.359-0.293-0.652-0.653-0.652S126.223,108.238,126.223,108.598z M139.727,58.287
		c1.887-1.669,0.289-4.211-1.524-3.994c-1.815,0.219-1.743,1.742-1.743,1.742s-1.888-3.266,1.959-6.969
		c2.368-2.278,7.205-3.866,10.6-3.483c2.686,0.304,4.375,1.171,5.312,1.824c-0.099,0.185-0.17,0.386-0.17,0.61
		c0,0.72,0.585,1.305,1.308,1.305c0.721,0,1.305-0.585,1.305-1.307c0-0.721-0.584-1.305-1.305-1.305
		c-0.162,0-0.312,0.037-0.453,0.092c-0.433-0.738-1.229-2.235-1.931-4.34c-1.016-3.05-1.089-8.639-0.798-11.181
		c0.29-2.539,1.016-9.51-0.436-11.687c-1.642-2.459-5.154-2.396-6.099-0.074c-0.944,2.324,0.509,3.775,2.033,3.848
		c1.524,0.073,2.469-1.812,1.233-2.902c-1.233-1.091-1.959,0.145-1.959,0.145s0.146-1.016,1.017-1.161s2.687,0.437,3.194,4.138
		c0.51,3.703-0.43,10.769,0.145,14.883c0.665,4.758,2.59,7.401,3.471,8.394c-0.23,0.118-0.414,0.302-0.541,0.526
		c-0.826-0.633-2.209-1.482-4.162-1.951c-3.631-0.872-7.914,0-12.123,0.435c-4.211,0.437-7.842,0.653-9.147-1.233
		c-1.308-1.889-0.218-3.34-0.218-3.34s-0.51,0.944,0.218,1.816c0.726,0.87,3.192,1.016,3.411-1.234
		c0.218-2.25-2.541-3.123-4.139-2.033c-1.597,1.09-2.178,4.574,1.09,6.461c3.267,1.888,11.904,0.218,11.904,0.218
		s-6.605,1.452-7.187,6.896C133.41,58.868,137.838,59.956,139.727,58.287z M139.436,40.137c-3.558,0-3.558,3.268-1.598,3.631
		s3.992-0.508,5.518-0.727c1.523-0.217,2.178,0,2.178,0S142.992,40.137,139.436,40.137z M146.551,33.098
		c0.435,2.686,3.12,5.08,3.12,5.08s-0.29-0.58-0.145-2.541c0.145-1.961,0.653-3.412-0.146-4.572
		C148.583,29.902,146.113,30.411,146.551,33.098z M137.452,25.805c-0.449,2.492,2.212,3.446,3.479,2.41
		c1.188-0.969,0.68-2.757-0.492-3.047c-0.34-0.084-0.584-0.1-0.767-0.084c0.567-0.229,1.54-0.394,2.562,0.486
		c1.588,1.371,1.857,4.613,1.98,7.915c0.125,3.303,1.09,5.608,1.53,6.342c0.278,0.462,0.554,0.769,0.728,0.942
		c-0.017,0.031-0.037,0.062-0.052,0.096c-0.118-0.148-0.457-0.54-1.032-0.943c-0.728-0.509-3.05-1.67-6.461-2.033
		c-3.412-0.363-6.752-0.871-8.059-2.613c-0.836-1.116-0.602-2.11-0.324-2.684c-0.027,0.188-0.029,0.44,0.034,0.797
		c0.218,1.232,2.032,1.888,3.122,0.726c1.163-1.24,0.361-4.065-2.25-3.774c-2.311,0.256-3.559,3.267-1.309,5.588
		c1.688,1.744,4.865,2.18,9.147,2.615c3.927,0.398,6.688,2.076,7.121,2.352c-0.075,0.187-0.118,0.388-0.118,0.6
		c0,0.881,0.715,1.598,1.598,1.598s1.597-0.717,1.597-1.598c0-0.883-0.716-1.598-1.597-1.598c-0.588,0-1.097,0.32-1.373,0.794
		c-0.399-0.782-1.584-3.371-1.697-6.812c-0.137-4.145-0.348-7.224-1.91-8.959C140.824,22.602,137.852,23.604,137.452,25.805z
		 M133.846,24.676c-2.25-1.888-4.211-0.072-3.34,2.032c0.871,2.106,5.59,3.341,5.59,3.341S136.096,26.564,133.846,24.676z
		 M143.572,37.815c0,0-0.727-3.558-2.105-4.864c-1.378-1.307-3.41-1.452-3.338,0.798S143.572,37.815,143.572,37.815z
		 M127.965,38.977c1.533-0.328,1.451-2.541,0.146-2.832s-1.597,1.018-1.597,1.018s-0.799-0.436-1.162-1.307
		s-3.26-8.364,2.904-14.736c6.461-6.68,13.067-2.324,13.067-2.324s-1.481-0.373-1.38,1.381c0.072,1.233,1.822,1.69,2.685,0.289
		c0.582-0.945,0.218-3.774-5.588-4.065c-6.971-0.349-13.478,4.71-13.721,12.993C123.102,36.799,125.932,39.412,127.965,38.977z
		 M124.988,17.707c0-0.722-0.584-1.308-1.307-1.308c-0.721,0-1.307,0.585-1.307,1.308c0,0.721,0.584,1.305,1.307,1.305
		S124.988,18.428,124.988,17.707z M129.78,14.223c0-0.723-0.584-1.308-1.308-1.308c-0.723,0-1.306,0.584-1.306,1.308
		c0,0.721,0.583,1.306,1.306,1.306C129.196,15.528,129.78,14.943,129.78,14.223z M134.062,13.932c0.722,0,1.307-0.584,1.307-1.307
		s-0.585-1.306-1.307-1.306c-0.721,0-1.308,0.583-1.308,1.306C132.756,13.348,133.342,13.932,134.062,13.932z M138.564,12.844
		c0,0.722,0.584,1.306,1.305,1.306c0.723,0,1.309-0.583,1.309-1.306s-0.586-1.307-1.307-1.307
		C139.148,11.537,138.564,12.123,138.564,12.844z M141.135,52.661c0.721,0,1.307-0.585,1.305-1.306c0-0.723-0.586-1.307-1.307-1.307
		s-1.306,0.584-1.306,1.307C139.827,52.076,140.411,52.661,141.135,52.661z M147.868,53.836c-0.722,0-1.306,0.586-1.306,1.307
		c0,0.722,0.584,1.307,1.306,1.307c0.724,0,1.306-0.585,1.308-1.307C149.176,54.422,148.59,53.836,147.868,53.836z M144.667,48.566
		c0,0.576,0.468,1.044,1.043,1.044c0.578,0,1.043-0.468,1.043-1.044c0.001-0.577-0.467-1.043-1.043-1.043
		C145.135,47.523,144.667,47.989,144.667,48.566z M145.816,57.94c-0.576,0-1.043,0.466-1.043,1.043c0,0.575,0.467,1.043,1.043,1.043
		s1.044-0.468,1.044-1.043C146.86,58.407,146.393,57.94,145.816,57.94z M150.794,49.053c0.442,0,0.802-0.359,0.802-0.801
		s-0.358-0.802-0.803-0.802c-0.441,0-0.8,0.358-0.8,0.802C149.994,48.693,150.354,49.053,150.794,49.053z M147.932,62.012
		c0,0.44,0.357,0.799,0.799,0.799c0.442,0,0.802-0.358,0.802-0.799c0-0.442-0.359-0.801-0.802-0.801
		C148.289,61.211,147.932,61.569,147.932,62.012z M145.896,15.021c0-0.721-0.586-1.307-1.309-1.307
		c-0.721,0-1.305,0.586-1.305,1.307c0,0.722,0.584,1.306,1.305,1.306C145.311,16.326,145.896,15.743,145.896,15.021z M122.23,22.426
		c0-0.722-0.586-1.307-1.307-1.307s-1.307,0.585-1.307,1.307s0.586,1.307,1.307,1.307S122.23,23.147,122.23,22.426z M120.559,28.016
		c0-0.724-0.584-1.307-1.306-1.307c-0.721-0.001-1.307,0.583-1.307,1.307c0,0.722,0.584,1.306,1.307,1.306
		C119.975,29.321,120.559,28.736,120.559,28.016z M120.778,33.823c-0.001-0.724-0.585-1.308-1.308-1.308
		c-0.721,0-1.306,0.586-1.306,1.308s0.584,1.306,1.306,1.308C120.193,35.131,120.778,34.547,120.778,33.823z M123.174,39.702
		c0-0.722-0.585-1.306-1.307-1.306c-0.721,0-1.307,0.584-1.307,1.306s0.586,1.308,1.307,1.308
		C122.589,41.01,123.174,40.424,123.174,39.702z M154.825,10.883c0.489,5.68,0.872,21.562,0.726,26.934
		c-0.146,5.371,0,7.912,0,7.912l0.799,1.017c0,0,0-29.763,0-36.442c0-6.678-2.023-9.838-5.953-10.09
		c-3.411-0.218-5.808,2.687-5.227,5.444s4.139,3.774,6.098,2.179c1.961-1.598,1.162-3.703,1.162-3.703S154.244,4.131,154.825,10.883
		z M154.752,131.537c0,0,2.396,1.451,4.719,0c2.322-1.453,2.396-2.758,3.121-3.121c0.727-0.361,0.727-0.361,0.727-0.361
		s-1.67-1.233-3.775-0.51C157.438,128.272,154.752,131.537,154.752,131.537z M113.044,114.854l-53.503,53.287
		c-0.084,0.08-0.129,0.193-0.129,0.306c0,0.058,0.012,0.114,0.035,0.167c0.066,0.163,0.225,0.27,0.398,0.27h108.18
		c0.127,0,0.26-0.07,0.343-0.164c0.067-0.082,0.104-0.182,0.104-0.285V60.246c0-0.176-0.106-0.335-0.27-0.4
		c-0.163-0.068-0.352-0.031-0.475,0.094l-53.285,53.505L113.044,114.854z M115.741,115.701c0.675-0.459,2.935-1.854,6.218-2.52
		c-0.383,4.015,0.403,8.1,2.446,11.629c-3.517-2.032-7.58-2.819-11.579-2.446c0.885-4.049,2.92-6.657,2.92-6.657L115.741,115.701z
		 M145.314,125.729c1.233,2.759,4.938,2.688,5.953,0.801c1.017-1.887-0.437-3.559-1.888-3.63c-1.452-0.072-1.743,1.305-1.743,1.305
		s-0.652-1.594,0.799-2.757c1.451-1.161,4.865-0.579,5.373,3.193c0.506,3.774-3.123,7.332-7.551,8.203
		c-1.934,0.381-4.339,0.512-6.863,0.199c-0.588-3.105-0.584-6.475,0.113-9.927c1.516-7.515,6.242-12.485,12.559-11.615
		c5.908,0.814,8.783,5.663,7.623,10.744c-1.162,5.081-5.735,7.259-5.735,7.259s0.798-0.652,1.017-2.611
		c0.217-1.963-0.873-6.244-4.718-7.115C146.404,118.907,144.081,122.971,145.314,125.729z M134.838,133.24
		c0.217,1.697,0.446,2.604,0.488,2.762c-0.098-0.037-0.871-0.328-2.436-0.611c-0.451-1.334-1.049-2.631-1.783-3.877
		C132.309,132.221,133.557,132.797,134.838,133.24z M126.128,151.68c1.888-1.019,1.958-4.722-0.799-5.955
		c-2.758-1.231-6.824,1.09-5.952,4.938c0.871,3.848,5.155,4.936,7.115,4.719c1.959-0.218,2.611-1.019,2.611-1.019
		s-2.178,4.571-7.258,5.735c-5.082,1.162-9.93-1.715-10.744-7.623c-0.871-6.314,4.103-11.043,11.615-12.559
		c3.452-0.697,6.821-0.701,9.928-0.113c0.312,2.525,0.181,4.932-0.199,6.865c-0.871,4.428-4.43,8.057-8.204,7.551
		c-3.774-0.508-4.354-3.922-3.193-5.373s2.759-0.797,2.759-0.797s-1.379,0.289-1.308,1.741
		C122.571,151.243,124.241,152.694,126.128,151.68z M133.775,139.061c-0.088-0.59-0.209-1.176-0.348-1.758
		c2.369,0.492,4.063,1.023,4.271,1.09l0.031,0.031c0,0-0.004-0.019-0.006-0.022c0.002,0.001,0.017,0.005,0.017,0.005l-0.021-0.02
		c-0.054-0.201-0.548-2.055-0.986-4.597c0.636,0.154,1.275,0.289,1.918,0.386c0.746,3.219,2.064,6.373,4.113,8.994
		C140.143,141.123,136.992,139.805,133.775,139.061z M126.796,132.58l0.007-0.007c0.012-0.011,0.025-0.019,0.037-0.03l2.135-2.133
		c1.133,1.486,1.972,3.107,2.57,4.771c-1.343-0.18-3.058-0.322-5.199-0.349c-6.315-0.069-10.961,2.181-10.961,2.181
		s-2.324-2.758-2.904-9.584c-0.116-1.361-0.051-2.643,0.121-3.826c5.48-0.479,10.502,1.408,13.951,4.291l-2.221,2.221
		c-0.679,0.68-0.679,1.784,0,2.465C125.014,133.26,126.115,133.26,126.796,132.58z M130.005,129.379l2.173-2.171
		c0.681-0.681,0.681-1.786,0-2.466c-0.607-0.605-1.548-0.667-2.228-0.193c-0.099,0.064-0.192,0.141-0.28,0.228l-2.181,2.182
		c-2.892-3.452-4.781-8.487-4.294-13.983c1.177-0.154,2.456-0.209,3.826-0.094c6.824,0.582,9.582,2.905,9.582,2.905
		s-2.248,4.646-2.178,10.962c0.024,2.086,0.133,3.801,0.266,5.169C133.059,131.319,131.467,130.492,130.005,129.379z
		 M113.004,116.123c-0.665,1.391-1.459,3.557-1.873,6.469c-2.679,0.473-5.27,1.469-7.594,2.959L113.004,116.123z M144.518,99.451
		c2.104-1.018,4.281-1.018,4.281-1.018s-10.346-4.525-18.32,0.145l37.123-37.277v106.711H60.902l37.279-37.127
		c-4.668,7.974-0.147,18.322-0.147,18.322s0-2.177,1.017-4.279c1.016-2.107,2.541-4.431,1.959-6.463
		c-0.582-2.031-3.701-2.105-3.701-2.105s1.086-8.202,9.943-11.542c1.254-0.474,2.501-0.793,3.734-1.005
		c-0.122,1.277-0.174,2.671-0.104,4.199c0.363,7.912,3.92,11.181,3.92,11.181s4.065-2.325,10.019-2.687
		c2.446-0.149,5.06,0.146,7.296,0.545c0.148,0.584,0.279,1.166,0.377,1.746c-3.425-0.635-6.85-0.658-9.706-0.261
		c-6.751,0.945-12.632,5.154-12.923,11.616c-0.014,0.322-0.014,0.63-0.01,0.936c-0.133-0.959-0.213-2.219-0.135-3.84
		c0.219-4.574,1.307-9.221-1.815-10.162c-3.121-0.945-5.517,2.105-4.429,4.646c1.09,2.541,4.066,1.959,4.502,0.146
		c0.436-1.816-1.019-2.324-1.019-2.324s1.38,0,1.888,1.453c0.51,1.449,0,3.627,0,7.549c0,3.021,1.334,6.119,1.947,7.387
		c1.086,2.558,2.862,3.951,4.006,4.592c0.987,0.553,1.45,0.691,1.676,0.709c-0.898,0.219-4.621,0.875-9.66-1.58
		c-4.586-2.234-7.332-4.72-11.905-6.751c-4.572-2.032-7.766-3.994-7.766-6.315c0-1.988,2.708-2.486,3.49-2.59
		c-0.098,0.022-0.234,0.061-0.439,0.121c-0.727,0.219-2.07,1.194-1.451,3.051c0.508,1.522,2.977,2.104,4.282,0.504
		c1.306-1.594,0.29-4.135-1.959-4.57c-2.25-0.438-5.375,1.234-4.938,4.57c0.234,1.803,1.672,3.029,2.947,3.781
		c-0.561-0.142-1.237-0.255-2.074-0.295c-3.053-0.146-6.102,1.088-6.684,4.719c-0.578,3.631,1.889,5.662,4.283,5.734
		c2.399,0.072,4.504-2.031,3.707-4.5c-0.798-2.469-4.504-1.959-5.014-0.074c-0.508,1.887,0.945,2.471,0.945,2.471
		s-2.541,0.289-2.758-2.76c-0.221-3.047,2.322-5.226,6.68-4.572c3.895,0.582,10.018,4.428,10.018,4.428s-3.412-1.309-5.879,0.582
		c-2.468,1.889-1.888,5.152-0.289,6.171c1.594,1.015,2.974-1.019,2.03-2.181c-0.944-1.161-1.885-0.071-1.885-0.071
		s-0.437-0.87,1.085-1.741c1.525-0.871,5.352,0.693,13.213,2.321c8.057,1.672,18.221,1.091,23.593-6.604
		c1.658-2.375,2.806-5.104,3.423-7.968c0.032,0.286,0.062,0.64,0.062,0.998c0,0.8,0.436,3.05,3.268,4.574
		c2.83,1.524,5.008-0.438,4.428-2.396c-0.582-1.961-2.902-2.033-3.484-0.508c-0.581,1.522,0.798,2.104,0.798,2.104
		s-2.468,0.437-3.92-1.67c-1.452-2.104-0.653-5.516-0.653-5.516l-0.173,0.543c0.222-1.709,0.272-3.447,0.097-5.176
		c3.504,0.865,6.625,2.506,9.078,4.775c0.189,0.176,0.361,0.355,0.539,0.537l-1.16,1.158c-0.504,0.508-0.504,1.324,0,1.83
		c0.506,0.504,1.323,0.504,1.828,0l0.998-0.998c2.799,4.021,2.937,8.547,1.207,11.41c-2.104,3.485-6.242,2.469-7.332,1.381
		c-1.089-1.088-1.089-1.525-1.089-1.525s0.728,0.945,1.816,0.146c1.089-0.798,1.017-3.555-1.38-3.702
		c-2.396-0.146-3.709,3.606-1.09,5.881c2.76,2.396,7.043,1.889,9.438-0.871c2.077-2.392,2.837-8.438-0.733-13.553l0.131-0.132
		c5.112,3.567,11.156,2.808,13.547,0.731c2.76-2.396,3.268-6.68,0.873-9.438c-2.276-2.62-6.026-1.305-5.881,1.089
		c0.146,2.397,2.902,2.469,3.703,1.383c0.797-1.092-0.146-1.818-0.146-1.818s0.436,0,1.525,1.09c1.088,1.09,2.104,5.229-1.379,7.332
		c-2.861,1.73-7.387,1.594-11.406-1.203l1.162-1.16c0.504-0.504,0.504-1.324,0-1.83c-0.504-0.504-1.323-0.504-1.828,0l-1.326,1.325
		c-0.182-0.178-0.363-0.351-0.54-0.542c-2.271-2.455-3.911-5.574-4.776-9.078c1.727,0.174,3.46,0.125,5.167-0.097l-0.536,0.172
		c0,0,3.412-0.798,5.518,0.654s1.668,3.92,1.668,3.92s-0.579-1.38-2.104-0.798c-1.525,0.58-1.453,2.902,0.506,3.48
		c1.961,0.584,3.922-1.594,2.397-4.426s-3.774-3.268-4.573-3.268c-0.357,0-0.712-0.028-0.998-0.062
		c2.862-0.618,5.592-1.764,7.967-3.421c7.695-5.374,8.274-15.536,6.606-23.597c-1.63-7.858-3.194-11.687-2.323-13.214
		c0.87-1.525,1.742-1.092,1.742-1.092s-1.09,0.942,0.072,1.89c1.16,0.948,3.193-0.437,2.177-2.035
		c-1.017-1.597-4.282-2.177-6.17,0.292c-1.887,2.475-0.581,5.885-0.581,5.885s-3.844-6.132-4.427-10.021
		c-0.654-4.354,1.522-6.896,4.573-6.678c3.048,0.217,2.758,2.758,2.758,2.758s-0.581-1.451-2.469-0.942
		c-1.887,0.507-2.396,4.209,0.072,5.006c2.469,0.797,4.573-1.304,4.501-3.702c-0.071-2.394-2.104-4.861-5.733-4.281
		c-3.631,0.58-4.864,3.631-4.719,6.679c0.039,0.838,0.153,1.515,0.293,2.075c-0.75-1.274-1.978-2.711-3.778-2.946
		c-3.339-0.435-5.009,2.683-4.573,4.933s2.977,3.272,4.573,1.959c1.598-1.304,1.017-3.773-0.509-4.281
		c-1.854-0.619-2.83,0.729-3.049,1.451c-0.06,0.2-0.097,0.336-0.119,0.435c0.104-0.791,0.605-3.48,2.588-3.48
		c2.322,0,4.283,3.193,6.313,7.772c2.033,4.572,4.519,7.318,6.752,11.904c2.455,5.037,1.8,8.758,1.582,9.657
		c-0.018-0.226-0.159-0.688-0.709-1.672c-0.641-1.146-2.034-2.921-4.593-4.007c-1.266-0.613-4.366-1.945-7.387-1.945
		c-3.92,0-6.098,0.51-7.549,0c-1.453-0.509-1.453-1.889-1.453-1.889s0.509,1.451,2.322,1.016c1.816-0.434,2.396-3.41-0.144-4.5
		c-2.541-1.088-5.59,1.309-4.647,4.428c0.944,3.123,5.59,2.033,10.163,1.816c1.619-0.076,2.878,0.002,3.835,0.135
		c-0.304-0.002-0.609-0.004-0.93,0.01c-6.461,0.289-10.672,6.171-11.615,12.923c-0.398,2.854-0.376,6.278,0.258,9.704
		c-0.617-0.104-1.24-0.243-1.862-0.405c-0.335-2.263-0.574-4.867-0.429-7.269c0.363-5.951,2.688-10.017,2.688-10.017
		s-3.268-3.56-11.18-3.919c-1.533-0.07-2.926-0.025-4.197,0.087c0.211-1.228,0.531-2.47,1.002-3.719
		c3.34-8.854,11.543-9.945,11.543-9.945s0.074,3.122,2.105,3.703C140.089,101.991,142.411,100.467,144.518,99.451z M125.143,103.936
		c-1.487,2.315-2.482,4.9-2.957,7.57c-2.848,0.379-4.952,1.109-6.303,1.728L125.143,103.936z M160.93,126.247
		c0,0,1.943-0.448,3.065-2.468s2.169-2.318,2.169-2.318s-2.395-0.523-3.964,0.822C160.63,123.629,160.93,126.247,160.93,126.247z
		 M121.364,119.566l-2.278-0.266l0.291,2.395l2.794,0.654L121.364,119.566z M122.87,127.266c0,0-2.467-1.894-4.433-1.822
		c-1.967,0.07-1.536,2.502,0.572,2.181C121.119,127.303,122.87,127.266,122.87,127.266z M130.26,123.01c0,0,1.524-2.401,2.621-3.602
		c1.991-2.178-0.476-4.396-1.947-2.566C129.463,118.665,130.26,123.01,130.26,123.01z M125.755,118.815
		c-0.155,1.962,1.632,4.506,1.632,4.506s0.11-1.746,0.524-3.84C128.323,117.387,125.911,116.854,125.755,118.815z M47.684,174.826
		l0.217-0.002h126.928l-0.009-125.598h-1.156l0.008,124.44H47.684V174.826L47.684,174.826z M169.547,49.186l-9.051,8.947
		l0.012-8.914l-1.156-0.002l-0.013,10.061L141.13,77.279c0.354-0.596,0.476-1.157,0.411-1.932c-0.146-1.742-2.322-2.687-3.703-1.742
		c-1.379,0.941-1.089,3.048-0.146,3.701c0.944,0.654,2.105-0.146,2.105-0.146l-20.936,21.65c0.356-0.727,0.667-1.502,0.899-2.336
		c1.742-6.248-1.162-13.07-6.533-13.506c-5.066-0.41-6.387,4.936-4.211,7.258c2.179,2.32,5.3,0.798,5.59-1.525
		c0.291-2.32-1.596-2.756-1.596-2.756s0,0,1.16,0.291c1.161,0.29,4.646,3.482,4.209,9.875c-0.15,2.214-0.951,4.068-1.926,5.562
		l-6.184,6.111c-0.151-1.421-1.34-2.531-2.801-2.531c-1.562,0-2.83,1.269-2.83,2.832c0,1.449,1.094,2.631,2.498,2.797l-6.381,6.31
		c-1.397,0.823-3.085,1.468-5.049,1.603c-6.385,0.434-9.582-3.051-9.873-4.212s-0.291-1.161-0.291-1.161s0.436,1.889,2.762,1.598
		c2.322-0.289,3.849-3.412,1.524-5.59c-2.324-2.178-7.673-0.857-7.263,4.209c0.436,5.373,7.263,8.276,13.504,6.535
		c0.833-0.231,1.607-0.541,2.334-0.897l-21.645,20.933c0,0,0.797-1.16,0.146-2.104c-0.656-0.945-2.761-1.235-3.703,0.145
		c-0.942,1.381,0,3.557,1.742,3.703c0.287,0.023,0.539,0.014,0.78-0.014l-17.645,17.443l-9.461-0.013l-0.002,1.156l8.296,0.01
		l-8.642,8.542l0.75,0.875L171.359,49.201L169.547,49.186z"/>
</g>
<polyline fill="none" stroke="#000000" points="54.654,163.484 48.195,170.151 48.153,159.379 "/>
<line fill="none" stroke="#000000" stroke-width="1.1" x1="159.786" y1="49.742" x2="169.828" y2="49.742"/>
</svg>
