<?xml version="1.0" encoding="utf-8"?>
<!-- Generator: Adobe Illustrator 13.0.0, SVG Export Plug-In . SVG Version: 6.00 Build 14948)  -->
<!DOCTYPE svg PUBLIC "-//W3C//DTD SVG 1.1 Tiny//EN" "http://www.w3.org/Graphics/SVG/1.1/DTD/svg11-tiny.dtd">
<svg version="1.1" baseProfile="tiny" id="Layer_1" xmlns="http://www.w3.org/2000/svg" xmlns:xlink="http://www.w3.org/1999/xlink"
	 x="0px" y="0px" width="175px" height="175px" viewBox="-0.123 -0.062 175 175" xml:space="preserve">
<g>
	<path d="M155.764,99.59l9.726,9.436V93.637c0,0-0.288,2.324-2.759,4.646C160.262,100.607,155.764,99.59,155.764,99.59z
		 M157.938,17.993c4.5,5.082,5.811,9.292,5.811,9.292v-15.97h-16.266C147.482,11.315,153.439,12.911,157.938,17.993z M87.282,88.91
		L76.968,98.967c0,0,1.471-0.844,4.52-1.459c2.387-0.48,4.2-0.32,4.2-0.32s-0.171-0.896,0.146-2.901
		C86.269,91.525,87.282,88.91,87.282,88.91z M130.332,58.587c1.393,1.889,3.953-0.222,2.057-2.484
		c-1.045-1.244-2.468-3.71-2.468-3.71S128.941,56.698,130.332,58.587z M151.551,17.703c0,0,0,0-0.438,2.469
		c-0.434,2.467-1.777,5.189-1.777,5.189s1.65-0.736,3.993-1.051c2.435-0.327,4.101-0.364,4.101-0.364s-0.07-2.468-1.959-4.21
		C153.584,17.993,151.551,17.703,151.551,17.703z M108.575,76.94c-0.581-2.323-1.888-5.664-1.888-5.664s-1.89,4.21-1.019,6.969
		C106.541,81.004,109.156,79.263,108.575,76.94z M113.438,75.923c-0.361-3.048-3.992-5.227-3.992-5.227s-0.581,3.486,0.871,5.809
		C111.77,78.826,113.645,77.654,113.438,75.923z M122.658,93.711c1.232,0.434,2.613-1.527,1.888-4.721
		c-0.726-3.196-2.612-7.116-2.612-7.116s0.289,1.306-0.146,4.936C121.352,90.441,121.425,93.273,122.658,93.711z M126.287,87.608
		c0,0,0.291,1.817,0.22,4.649c-0.071,2.83,0.941,5.808,2.541,5.591c1.595-0.218,1.74-2.902,0.288-5.519
		C128.104,90.111,126.287,87.608,126.287,87.608z M134.13,98.211c1.306-0.438,1.017-2.613-0.292-4.428
		c-1.306-1.816-3.63-3.557-3.63-3.557s0.8,1.739,1.308,4.063C132.021,96.613,132.822,98.646,134.13,98.211z M152.132,115.633
		c-1.308,1.307-1.019,4.355,1.597,4.719c2.613,0.363,2.541-1.815,2.541-1.815s0.072,0.293-0.217,1.307
		c-0.289,1.021-2.251,3.777-6.68,3.414c-4.43-0.362-8.13-5.442-5.662-9.364c2.469-3.92,7.186-2.902,7.26-3.121
		c0.073-0.217-2.796-4.271-7.586-6.306c-2.713-1.149-6.154-1.674-9.398-1.364c-2.312-3.146-6.426-5.021-10.891-4.599
		c-7.162,0.679-9.074,6.533-9.074,6.533l-3.836-3.731c1.28-4.515-0.623-9.518-5.021-10.425c-4.574-0.942-7.84,2.759-6.75,6.459
		c1.088,3.703,5.009,4.359,6.968,2.688c0.359-0.308,0.604-0.607,0.769-0.896l2.396,2.457c-1.32,3.031-4.729,5.575-9.406,5.48
		c-3.022-0.062-5.394-1.871-6.771-4.354c1.689-0.808,3.245-2.062,4.158-4.068c1.367-3.011,0.961-7.015,0.584-10.233
		c3.842-1.941,7.545-1.312,7.545-1.312s-0.871-3.412-0.797-7.402c0.07-3.994,1.017-5.881,1.017-5.881l-1.744,1.452
		c0,0-0.435,1.671-0.579,4.864c-0.146,3.192,0.146,5.153,0.146,5.153s-0.871,0.073-2.978,0.508
		c-0.648,0.135-1.656,0.477-2.787,1.065c-0.05-0.456-0.092-0.888-0.117-1.283c-0.217-3.341,1.091-4.79,1.091-4.79l-2.25,2.394
		c0,0-0.218,0.582-0.218,1.96c0,0.584,0.104,1.394,0.229,2.462c-2.231,1.454-4.595,3.827-5.537,7.413
		c-0.702,2.678-0.452,5.191,0.459,7.315c-0.284,0.108-0.582,0.212-0.893,0.308c-4.718,1.453-11.759-0.145-14.954,2.033
		c-2.413,1.645-2.042,4.891-0.073,5.736c2.033,0.871,3.849-1.09,3.268-2.76c-0.574-1.648-2.978-1.742-3.339-0.219
		c-0.364,1.524,1.16,1.67,1.16,1.67s-1.596,0.508-1.887-0.943c-0.289-1.451,0.945-3.049,3.413-3.484
		c2.467-0.436,7.259-0.145,10.161-0.58c1.066-0.16,2.332-0.4,3.596-0.838c1.127,2.043,2.9,3.645,5.047,4.539
		c5.428,2.268,11.293,0.043,13.578-5.057l4.717,4.84c0,0,1.161-5.59,5.952-7.332s9.001-0.219,11.906,3.049
		c0.016,0.018,0.028,0.039,0.044,0.057c-1.854,0.361-3.582,1.018-4.993,2.025c-4.457,3.182-5.077,9.906-0.567,12
		c4.063,1.889,9.071-2.23,9.205-8.182c0.034-1.62-0.313-3.135-0.963-4.485c1.428-0.185,2.914-0.163,4.389,0.108
		c5.519,1.018,9.509,5.082,9.509,5.082s-0.798-0.291-3.191,0.653c-2.396,0.943-4.792,4.572-3.268,8.638s7.04,6.535,11.397,4.647
		c4.354-1.889,4.936-6.024,3.557-7.916C155.866,113.883,153.439,114.326,152.132,115.633z M93.177,91.533
		c0.839-0.992,1.741-1.764,2.658-2.374c0.118,1.219,0.226,2.688,0.253,4.478c0.062,3.776-1.123,6.461-4.191,8.1
		C90.523,98.498,90.717,94.448,93.177,91.533z M109.01,100.161l-2.656-2.583c-0.133-0.461-0.393-0.748-0.393-0.748
		s0.51,0.508-1.016,1.744c-1.523,1.232-5.661,0.145-4.791-3.412c0.871-3.559,6.969-2.904,8.64,1.598
		C109.195,97.845,109.249,99.014,109.01,100.161z M131.298,115.561c-3.121,2.033-6.823-1.088-5.011-5.229
		c1.138-2.596,3.818-4.503,7.021-5.314C134.857,108.572,133.941,113.838,131.298,115.561z M116.486,98.428
		c0-0.881-0.715-1.598-1.596-1.598c-0.884,0-1.599,0.717-1.599,1.598c0,0.883,0.715,1.598,1.599,1.598
		C115.771,100.025,116.486,99.311,116.486,98.428z M133.621,71.132c-0.885,0-1.6,0.715-1.6,1.597s0.715,1.597,1.6,1.597
		c0.881,0,1.595-0.715,1.595-1.597S134.502,71.132,133.621,71.132z M165.436,77.292c0-0.882-0.717-1.597-1.6-1.597
		s-1.598,0.715-1.598,1.597s0.715,1.597,1.598,1.597S165.436,78.173,165.436,77.292z M139.5,111.568
		c0.882,0,1.598-0.715,1.598-1.599c0-0.883-0.716-1.598-1.598-1.598c-0.881,0-1.598,0.715-1.598,1.598
		C137.902,110.854,138.619,111.568,139.5,111.568z M121.281,96.324c0-0.643-0.521-1.164-1.163-1.164
		c-0.64,0-1.163,0.521-1.163,1.164c0,0.639,0.523,1.16,1.163,1.16C120.76,97.484,121.281,96.963,121.281,96.324z M152.006,131.361
		c0-0.523-0.428-0.949-0.953-0.949c-0.523,0-0.949,0.426-0.949,0.949c0,0.527,0.426,0.953,0.949,0.953
		C151.578,132.314,152.006,131.889,152.006,131.361z M129.191,68.953c-0.643,0-1.162,0.521-1.162,1.163
		c0,0.641,0.521,1.161,1.162,1.161c0.643,0,1.16-0.52,1.16-1.161C130.354,69.475,129.834,68.953,129.191,68.953z M139.5,80.206
		c-0.643,0-1.162,0.521-1.162,1.162c0,0.639,0.521,1.159,1.162,1.159c0.643,0,1.161-0.521,1.161-1.159
		C140.661,80.727,140.143,80.206,139.5,80.206z M142.768,43.91c-0.643,0-1.162,0.52-1.162,1.162c0,0.642,0.521,1.162,1.162,1.162
		c0.641,0,1.162-0.52,1.162-1.162C143.93,44.43,143.408,43.91,142.768,43.91z M142.113,49.571c-0.641,0-1.161,0.521-1.161,1.162
		s0.521,1.162,1.161,1.162c0.642,0,1.162-0.52,1.162-1.162S142.755,49.571,142.113,49.571z M143.782,57.266
		c0,0.642,0.522,1.162,1.161,1.162c0.644,0,1.162-0.521,1.162-1.162s-0.52-1.161-1.162-1.161
		C144.305,56.105,143.782,56.625,143.782,57.266z M151.915,61.042c0.64,0,1.16-0.52,1.16-1.162c0-0.641-0.521-1.161-1.16-1.161
		c-0.644,0-1.162,0.521-1.162,1.161C150.753,60.522,151.271,61.042,151.915,61.042z M165.633,57.852
		c0-0.554-0.451-1.003-1.004-1.003c-0.554,0-1.004,0.449-1.004,1.003s0.45,1.002,1.004,1.002
		C165.182,58.854,165.633,58.406,165.633,57.852z M165.18,62.013c-0.568,0-1.031,0.462-1.031,1.031c0,0.568,0.463,1.029,1.031,1.029
		c0.567,0,1.029-0.461,1.029-1.029C166.209,62.475,165.747,62.013,165.18,62.013z M164.803,66.576c-0.656,0-1.188,0.53-1.188,1.188
		c0,0.655,0.531,1.188,1.188,1.188c0.655,0,1.189-0.532,1.189-1.188C165.992,67.106,165.458,66.576,164.803,66.576z M164.355,70.98
		c-0.656,0-1.188,0.532-1.188,1.188c0,0.656,0.531,1.188,1.188,1.188c0.654,0,1.188-0.532,1.188-1.188
		C165.543,71.512,165.011,70.98,164.355,70.98z M123.604,95.814c0,0.358,0.293,0.653,0.651,0.653c0.361,0,0.654-0.295,0.654-0.653
		c0-0.361-0.293-0.652-0.654-0.652C123.896,95.162,123.604,95.453,123.604,95.814z M127.088,65.979
		c-0.359,0-0.652,0.292-0.652,0.653c0,0.361,0.293,0.653,0.652,0.653c0.36,0,0.65-0.292,0.65-0.653
		C127.738,66.271,127.448,65.979,127.088,65.979z M97.688,79.562c1.367,0,2.477-1.109,2.477-2.477s-1.107-2.478-2.477-2.478
		c-1.367,0-2.478,1.109-2.478,2.478C95.21,78.453,96.318,79.562,97.688,79.562z M145.743,132.186c0,0-0.653,0.217-2.179,0
		c-1.523-0.221-3.558-1.092-5.518-0.727c-1.96,0.361-1.96,3.631,1.598,3.631C143.201,135.09,145.743,132.186,145.743,132.186z
		 M146.76,142.129c-0.436,2.688,2.032,3.195,2.832,2.033c0.799-1.162,0.289-2.615,0.145-4.574c-0.144-1.959,0.146-2.539,0.146-2.539
		S147.195,139.445,146.76,142.129z M146.727,134.537c0.277,0.474,0.787,0.795,1.373,0.795c0.885,0,1.598-0.715,1.598-1.598
		s-0.713-1.599-1.598-1.599c-0.881,0-1.598,0.716-1.598,1.599c0,0.211,0.043,0.414,0.119,0.6c-0.432,0.275-3.193,1.952-7.121,2.354
		c-4.284,0.435-7.457,0.869-9.146,2.611c-2.252,2.324-1.004,5.332,1.307,5.59c2.615,0.291,3.416-2.535,2.251-3.774
		c-1.088-1.16-2.902-0.509-3.122,0.727c-0.062,0.357-0.061,0.609-0.031,0.8c-0.277-0.572-0.516-1.568,0.323-2.687
		c1.308-1.742,4.646-2.252,8.058-2.613c3.411-0.362,5.735-1.524,6.461-2.032c0.578-0.406,0.914-0.798,1.032-0.944
		c0.015,0.032,0.035,0.062,0.052,0.096c-0.174,0.175-0.447,0.479-0.726,0.944c-0.442,0.729-1.405,3.039-1.53,6.34
		c-0.123,3.303-0.394,6.545-1.982,7.914c-1.018,0.876-1.986,0.717-2.555,0.488c0.183,0.015,0.424-0.002,0.76-0.084
		c1.173-0.293,1.683-2.08,0.494-3.049c-1.271-1.037-3.933-0.08-3.479,2.409c0.396,2.201,3.371,3.203,5.455,0.89
		c1.563-1.736,1.774-4.816,1.909-8.959C145.145,137.909,146.326,135.318,146.727,134.537z M134.059,150.551
		c2.248-1.887,2.248-5.371,2.248-5.371s-4.719,1.232-5.59,3.338C129.846,150.624,131.805,152.439,134.059,150.551z M141.68,142.275
		c1.379-1.308,2.104-4.865,2.104-4.865s-5.372,1.816-5.444,4.068C138.266,143.727,140.299,143.582,141.68,142.275z M140.154,155.053
		c-0.104,1.752,1.379,1.379,1.379,1.379s-6.604,4.355-13.067-2.322c-6.165-6.375-3.267-13.866-2.903-14.737
		c0.364-0.871,1.162-1.308,1.162-1.308s0.289,1.308,1.596,1.019c1.31-0.291,1.388-2.502-0.144-2.832
		c-2.034-0.437-4.866,2.178-4.647,9.582c0.244,8.283,6.75,13.344,13.722,12.994c5.81-0.289,6.17-3.123,5.59-4.063
		C141.977,153.359,140.225,153.818,140.154,155.053z M123.893,156.213c-0.723,0-1.307,0.584-1.307,1.309
		c0,0.722,0.584,1.306,1.307,1.306s1.308-0.584,1.308-1.306C125.199,156.797,124.613,156.213,123.893,156.213z M128.684,159.699
		c-0.722,0-1.307,0.584-1.307,1.307c0,0.721,0.585,1.307,1.307,1.307c0.724,0,1.308-0.586,1.308-1.307
		C129.99,160.283,129.406,159.699,128.684,159.699z M134.273,161.295c-0.722,0-1.308,0.584-1.308,1.307
		c0,0.724,0.586,1.308,1.308,1.308c0.72,0,1.307-0.584,1.307-1.308C135.58,161.879,134.993,161.295,134.273,161.295z
		 M140.079,161.076c-0.722,0-1.306,0.586-1.306,1.309c0,0.721,0.584,1.307,1.306,1.307c0.724,0,1.308-0.586,1.308-1.307
		C141.387,161.662,140.803,161.076,140.079,161.076z M140.038,123.873c0,0.721,0.585,1.305,1.304,1.305
		c0.725,0,1.309-0.584,1.309-1.305c0-0.725-0.584-1.309-1.309-1.309C140.623,122.564,140.038,123.148,140.038,123.873z
		 M148.078,121.391c0.724,0,1.307-0.586,1.307-1.307c0-0.723-0.582-1.307-1.307-1.307c-0.721,0-1.305,0.584-1.305,1.307
		C146.773,120.805,147.357,121.391,148.078,121.391z M146.965,126.66c0-0.578-0.468-1.043-1.044-1.043
		c-0.575,0-1.043,0.465-1.043,1.043c0,0.574,0.468,1.045,1.043,1.045C146.497,127.705,146.965,127.234,146.965,126.66z
		 M146.027,115.197c-0.578,0-1.045,0.469-1.045,1.045c0,0.578,0.467,1.043,1.045,1.043c0.576,0,1.043-0.465,1.043-1.043
		C147.07,115.666,146.604,115.197,146.027,115.197z M151.805,126.977c0-0.442-0.356-0.801-0.801-0.801
		c-0.441,0-0.801,0.357-0.801,0.801c0,0.441,0.359,0.801,0.801,0.801C151.447,127.777,151.805,127.418,151.805,126.977z
		 M149.741,113.217c0-0.441-0.356-0.801-0.8-0.801c-0.441,0-0.801,0.359-0.801,0.801c0,0.442,0.358,0.801,0.801,0.801
		C149.385,114.018,149.741,113.658,149.741,113.217z M146.105,160.205c0-0.721-0.586-1.307-1.308-1.307s-1.307,0.586-1.307,1.307
		c0,0.723,0.585,1.307,1.307,1.307S146.105,160.928,146.105,160.205z M121.135,151.494c-0.722,0-1.307,0.586-1.307,1.309
		c0,0.721,0.585,1.305,1.307,1.305c0.721,0,1.305-0.584,1.305-1.305C122.439,152.08,121.855,151.494,121.135,151.494z
		 M120.771,147.213c0-0.723-0.586-1.309-1.307-1.309c-0.723,0-1.307,0.586-1.307,1.309c0,0.721,0.584,1.305,1.307,1.305
		C120.186,148.518,120.771,147.934,120.771,147.213z M119.682,140.098c-0.723,0-1.306,0.586-1.306,1.308
		c0,0.721,0.583,1.307,1.306,1.307s1.309-0.586,1.309-1.307C120.99,140.684,120.404,140.098,119.682,140.098z M122.075,136.83
		c0.726,0,1.308-0.584,1.308-1.307c0-0.724-0.582-1.308-1.308-1.308c-0.72,0-1.304,0.584-1.304,1.308
		C120.771,136.246,121.355,136.83,122.075,136.83z M155.676,125.904c-0.721,0-1.307,0.586-1.307,1.307
		c0,0.225,0.07,0.424,0.17,0.607c-0.938,0.654-2.627,1.521-5.312,1.826c-3.395,0.383-8.229-1.207-10.598-3.484
		c-3.85-3.703-1.962-6.971-1.962-6.971s-0.071,1.524,1.744,1.744c1.813,0.217,3.411-2.326,1.524-3.994
		c-1.89-1.668-6.317-0.58-5.736,4.862c0.58,5.445,7.188,6.896,7.188,6.896s-8.64-1.671-11.904,0.217
		c-3.269,1.89-2.688,5.375-1.09,6.463s4.354,0.22,4.14-2.033c-0.22-2.252-2.687-2.104-3.413-1.231
		c-0.727,0.871-0.217,1.812-0.217,1.812s-1.09-1.448,0.217-3.338c1.308-1.889,4.938-1.672,9.146-1.233
		c4.209,0.436,8.493,1.307,12.123,0.436c1.953-0.469,3.336-1.318,4.161-1.952c0.127,0.226,0.312,0.41,0.542,0.527
		c-0.88,0.991-2.805,3.636-3.47,8.394c-0.574,4.115,0.364,11.18-0.144,14.881c-0.511,3.703-2.326,4.285-3.195,4.139
		c-0.872-0.143-1.016-1.159-1.016-1.159s0.724,1.233,1.959,0.146c1.234-1.09,0.291-2.978-1.235-2.902
		c-1.522,0.07-2.976,1.521-2.031,3.844c0.944,2.324,4.458,2.389,6.097-0.068c1.454-2.182,0.727-9.147,0.438-11.691
		c-0.292-2.538-0.22-8.129,0.798-11.178c0.702-2.104,1.498-3.603,1.93-4.34c0.144,0.055,0.293,0.092,0.453,0.092
		c0.721,0,1.307-0.584,1.307-1.307C156.98,126.49,156.396,125.904,155.676,125.904z M155.764,137.41
		c0.141,5.373-0.238,21.256-0.727,26.934c-0.583,6.752-2.398,6.752-2.398,6.752s0.801-2.104-1.158-3.703
		c-1.961-1.598-5.52-0.58-6.099,2.178c-0.583,2.759,1.813,5.664,5.226,5.445c3.93-0.252,5.951-3.412,5.951-10.09
		c0-6.682,0-36.443,0-36.443l-0.795,1.019C155.764,129.5,155.615,132.041,155.764,137.41z M163.527,47.177c0,0,0,0-0.726-0.363
		s-0.799-1.67-3.122-3.122c-2.32-1.452-4.717,0-4.717,0s2.686,3.267,4.792,3.993C161.857,48.41,163.527,47.177,163.527,47.177z
		 M161.139,48.982c0,0-0.299,2.617,1.271,3.963c1.57,1.347,3.965,0.824,3.965,0.824s-1.048-0.3-2.171-2.319
		C163.084,49.431,161.139,48.982,161.139,48.982z M81.39,9.549H66.001l9.437,9.728c0,0-1.017-4.501,1.305-6.968
		C79.067,9.84,81.39,9.549,81.39,9.549z M77.018,98.916L87.171,89c0,0-2.613,1.02-5.371,1.455c-2.008,0.316-2.904,0.146-2.904,0.146
		s0.125,2.022-0.42,4.233C77.776,97.66,77.018,98.916,77.018,98.916z M96.783,69.367c2.758,0.87,6.97-1.017,6.97-1.017
		s-3.34-1.306-5.662-1.887C95.768,65.882,94.02,68.496,96.783,69.367z M99.107,61.6c-1.73-0.207-2.903,1.669-0.582,3.122
		c2.322,1.451,5.809,0.871,5.809,0.871S102.157,61.962,99.107,61.6z M81.318,52.38c0.435,1.234,3.266,1.307,6.895,0.871
		s4.934-0.145,4.934-0.145s-3.916-1.888-7.108-2.614C82.843,49.766,80.881,51.146,81.318,52.38z M77.181,45.992
		c-0.22,1.597,2.758,2.613,5.589,2.541c2.832-0.073,4.643,0.218,4.643,0.218s-2.495-1.815-4.714-3.048
		C80.084,44.25,77.397,44.395,77.181,45.992z M81.246,41.201c-1.815-1.307-3.994-1.597-4.429-0.291
		c-0.435,1.307,1.598,2.104,3.92,2.614c2.323,0.507,4.064,1.306,4.064,1.306S83.06,42.507,81.246,41.201z M80.01,84.901
		c3.163-0.831,5.382-2.768,6.86-4.743c1.571,0.167,2.681,0.338,3.43,0.338c1.378,0,1.958-0.218,1.958-0.218l2.401-2.25
		c0,0-1.457,1.307-4.796,1.089c-0.639-0.042-1.363-0.123-2.146-0.215c0.867-1.444,1.348-2.785,1.514-3.584
		c0.436-2.104,0.508-2.975,0.508-2.975s1.959,0.291,5.158,0.145c3.194-0.145,4.863-0.581,4.863-0.581l1.452-1.742
		c0,0-1.889,0.942-5.882,1.016c-3.995,0.072-7.408-0.799-7.408-0.799s0.715,4.235-1.759,8.341c-3.048-0.335-6.618-0.564-9.364,0.684
		c-1.787,0.812-2.974,2.134-3.784,3.604c-2.835-1.299-4.987-3.816-5.055-7.113c-0.096-4.677,2.449-8.085,5.479-9.406l2.457,2.396
		c-0.288,0.164-0.589,0.409-0.895,0.768c-1.67,1.96-1.017,5.881,2.685,6.968c3.703,1.09,7.405-2.177,6.462-6.75
		c-0.908-4.4-5.912-6.304-10.428-5.021l-3.728-3.835c0,0,6.242-2.041,6.92-9.201c0.436-4.602-1.747-8.637-5.183-10.821
		c0.41-3.058-0.061-6.323-1.273-9.182c-2.032-4.791-5.982-7.819-6.2-7.746c-0.217,0.072,0.798,4.792-3.122,7.259
		c-3.92,2.468-9.002-1.234-9.365-5.662c-0.362-4.428,2.396-6.387,3.412-6.679c1.016-0.291,1.307-0.218,1.307-0.218
		s-2.178-0.073-1.813,2.541c0.362,2.613,3.411,2.904,4.718,1.597c1.306-1.307,1.75-3.735-0.29-5.226
		c-1.888-1.38-6.026-0.799-7.913,3.557c-1.888,4.355,0.58,9.872,4.646,11.396c4.066,1.524,7.695-0.871,8.638-3.266
		c0.944-2.396,0.653-3.195,0.653-3.195s4.066,3.992,5.083,9.51c0.281,1.526,0.293,3.065,0.087,4.537
		c-1.371-0.609-2.883-0.95-4.478-0.95c-6.366,0-10.057,4.979-8.169,9.044c2.094,4.508,9.476,2.139,11.989-1.589
		c0.844-1.253,1.433-2.665,1.796-4.155c0.099,0.077,0.205,0.146,0.297,0.228c3.267,2.902,4.791,7.113,3.05,11.904
		c-1.743,4.791-7.333,5.952-7.333,5.952l4.838,4.717c-5.098,2.287-7.322,8.151-5.055,13.576c0.986,2.359,2.825,4.271,5.171,5.365
		c-0.575,1.447-0.867,2.937-1.051,4.167c-0.435,2.906-0.146,7.697-0.582,10.166c-0.436,2.47-2.031,3.703-3.484,3.41
		c-1.452-0.289-0.943-1.885-0.943-1.885s0.146,1.525,1.669,1.162c1.525-0.363,1.43-2.768-0.217-3.34
		c-1.669-0.58-3.629,1.23-2.758,3.268c0.844,1.969,4.089,2.34,5.733-0.074c2.178-3.192,0.582-10.233,2.033-14.957
		c0.169-0.549,0.361-1.055,0.571-1.525C75.351,85.392,77.615,85.529,80.01,84.901z M81.81,79.844
		c1.328,0.021,2.467,0.087,3.473,0.167c-0.501,0.633-1.092,1.252-1.788,1.839c-2.687,2.269-6.341,2.609-9.433,1.577
		C75.723,80.811,78.292,79.788,81.81,79.844z M78.268,66.245c4.501,1.671,5.155,7.769,1.598,8.639
		c-3.557,0.87-4.646-3.266-3.412-4.791c1.233-1.525,1.742-1.016,1.742-1.016s-0.289-0.261-0.752-0.395l-2.579-2.653
		C76.014,65.79,77.183,65.843,78.268,66.245z M64.693,48.75c-4.136,1.815-7.259-1.888-5.227-5.009
		c1.724-2.646,6.989-3.561,10.544-2.01C69.197,44.932,67.289,47.612,64.693,48.75z M76.599,58.55c-0.882,0-1.598,0.716-1.597,1.598
		c0,0.883,0.715,1.598,1.597,1.598c0.882,0,1.597-0.715,1.597-1.598C78.196,59.266,77.481,58.55,76.599,58.55z M100.703,41.419
		c0,0.881,0.717,1.596,1.598,1.596c0.883,0,1.596-0.714,1.596-1.596c0-0.883-0.713-1.598-1.596-1.598
		C101.42,39.821,100.703,40.536,100.703,41.419z M97.738,12.799c0.883,0,1.598-0.715,1.598-1.597
		c-0.001-0.882-0.715-1.597-1.598-1.597s-1.598,0.714-1.598,1.597C96.141,12.085,96.855,12.799,97.738,12.799z M66.655,35.538
		c0-0.882-0.716-1.597-1.599-1.597c-0.881,0-1.596,0.715-1.596,1.597c-0.001,0.883,0.714,1.597,1.596,1.597
		C65.939,37.135,66.655,36.42,66.655,35.538z M79.867,54.92c-0.001-0.641-0.521-1.161-1.162-1.161c-0.642,0-1.163,0.52-1.163,1.161
		c0,0.642,0.521,1.162,1.163,1.162C79.346,56.082,79.866,55.562,79.867,54.92z M94.297,80.214c-0.643,0-1.166,0.52-1.166,1.162
		c0,0.639,0.523,1.16,1.166,1.16c0.645,0,1.167-0.521,1.167-1.16C95.464,80.733,94.939,80.214,94.297,80.214z M100.648,73.398
		c0,0.642,0.519,1.162,1.16,1.162c0.641,0,1.162-0.521,1.162-1.162c0-0.643-0.521-1.162-1.162-1.162S100.648,72.755,100.648,73.398z
		 M91.148,83.865c-0.644,0-1.162,0.52-1.162,1.162c0,0.641,0.52,1.161,1.162,1.161c0.641,0,1.16-0.52,1.162-1.161
		C92.309,84.385,91.789,83.865,91.148,83.865z M74.205,102.689c0.641,0,1.161-0.523,1.162-1.162c-0.001-0.644-0.521-1.16-1.164-1.16
		c-0.641,0-1.16,0.518-1.16,1.16C73.043,102.168,73.562,102.689,74.205,102.689z M44.616,23.985c0-0.526-0.426-0.952-0.951-0.952
		c-0.526,0-0.951,0.426-0.951,0.952c0,0.524,0.425,0.95,0.951,0.95C44.19,24.936,44.616,24.51,44.616,23.985z M104.915,47.008
		c0.64,0,1.161-0.521,1.161-1.162c0-0.642-0.521-1.161-1.161-1.161c-0.644,0-1.162,0.52-1.162,1.161
		C103.753,46.488,104.271,47.008,104.915,47.008z M93.656,34.377c-0.645-0.001-1.161,0.519-1.161,1.161
		c0,0.641,0.519,1.161,1.161,1.161c0.645,0,1.167-0.52,1.167-1.161C94.823,34.896,94.301,34.376,93.656,34.377z M129.959,33.433
		c0.643,0,1.163-0.52,1.163-1.161c0-0.642-0.521-1.162-1.163-1.162s-1.16,0.52-1.162,1.161
		C128.799,32.913,129.316,33.433,129.959,33.433z M124.297,34.086c0.641,0,1.162-0.519,1.162-1.161c0-0.642-0.521-1.161-1.162-1.161
		c-0.643,0-1.162,0.52-1.162,1.161C123.135,33.567,123.654,34.086,124.297,34.086z M117.568,55.656
		c-0.768,0-1.391,0.623-1.391,1.393c0,0.767,0.623,1.39,1.391,1.39c0.77,0,1.391-0.623,1.391-1.39
		C118.96,56.279,118.338,55.656,117.568,55.656z M117.764,28.932c-0.643,0-1.162,0.521-1.162,1.163c0,0.64,0.521,1.161,1.162,1.161
		c0.641,0,1.163-0.521,1.163-1.162C118.927,29.453,118.404,28.932,117.764,28.932z M115.148,21.963c-0.642,0-1.16,0.521-1.16,1.162
		s0.52,1.162,1.16,1.162c0.642,0,1.162-0.52,1.162-1.162C116.312,22.483,115.791,21.963,115.148,21.963z M117.18,11.412
		c0.555,0,1.002-0.449,1.002-1.003c0-0.552-0.447-1.003-1.004-1.003c-0.552,0-1.002,0.451-1.002,1.003
		C116.176,10.963,116.626,11.412,117.18,11.412z M111.988,10.89c0.566,0,1.027-0.461,1.029-1.03c-0.002-0.569-0.463-1.03-1.029-1.03
		c-0.57,0.001-1.031,0.461-1.031,1.03C110.957,10.429,111.418,10.89,111.988,10.89z M107.266,11.423
		c0.657,0,1.188-0.533,1.188-1.188c0-0.655-0.531-1.188-1.188-1.188c-0.654,0-1.188,0.533-1.188,1.188
		C106.078,10.891,106.609,11.423,107.266,11.423z M102.863,11.871c0.654,0.001,1.187-0.532,1.187-1.188
		c0-0.656-0.53-1.188-1.187-1.188c-0.657,0-1.191,0.532-1.191,1.188C101.672,11.339,102.206,11.872,102.863,11.871z M79.212,51.437
		c0.36,0,0.653-0.292,0.653-0.654c0-0.361-0.293-0.653-0.653-0.652c-0.36,0-0.653,0.291-0.653,0.652
		C78.559,51.144,78.852,51.437,79.212,51.437z M87.871,87.651c-0.002,0.363,0.291,0.654,0.65,0.654c0.362,0,0.654-0.291,0.654-0.654
		c0-0.362-0.294-0.653-0.654-0.653C88.162,86.998,87.871,87.289,87.871,87.651z M104.484,71.294c0.363,0,0.654-0.293,0.654-0.653
		c0-0.361-0.293-0.655-0.654-0.654c-0.359,0-0.652,0.293-0.652,0.654C103.832,71.001,104.125,71.294,104.484,71.294z M76.413,99.082
		c-0.36,0-0.653,0.293-0.653,0.652c-0.001,0.36,0.293,0.654,0.653,0.654c0.362,0,0.653-0.294,0.653-0.654
		C77.066,99.375,76.773,99.082,76.413,99.082z M71.985,102.639c-0.361,0-0.653,0.291-0.653,0.654c0,0.361,0.292,0.654,0.653,0.654
		c0.36,0,0.654-0.293,0.654-0.654C72.639,102.93,72.345,102.639,71.985,102.639z M108.398,48.605c0.36,0,0.653-0.292,0.653-0.653
		c0-0.36-0.293-0.653-0.653-0.653c-0.359,0-0.652,0.293-0.652,0.653C107.746,48.312,108.039,48.605,108.398,48.605z M58.088,35.102
		c-1.669-1.887-4.211-0.29-3.994,1.524c0.218,1.815,1.742,1.743,1.742,1.743s-3.265,1.888-6.969-1.959
		c-2.278-2.368-3.866-7.205-3.483-10.599c0.303-2.686,1.17-4.376,1.824-5.312c0.185,0.099,0.386,0.17,0.61,0.17
		c0.72,0,1.305-0.585,1.305-1.307c0-0.722-0.585-1.306-1.307-1.306c-0.72,0-1.305,0.584-1.305,1.306
		c0,0.161,0.038,0.311,0.092,0.453c-0.738,0.432-2.235,1.229-4.339,1.93c-3.05,1.016-8.639,1.089-11.181,0.798
		c-2.539-0.29-9.51-1.016-11.687,0.436c-2.459,1.641-2.396,5.154-0.074,6.098c2.324,0.944,3.775-0.508,3.848-2.033
		c0.073-1.525-1.813-2.469-2.903-1.234c-1.09,1.234,0.145,1.959,0.145,1.959s-1.016-0.145-1.161-1.016s0.436-2.686,4.137-3.194
		c3.704-0.51,10.769,0.429,14.883-0.145c4.758-0.665,7.402-2.59,8.394-3.471c0.118,0.231,0.302,0.415,0.527,0.542
		c-0.634,0.826-1.483,2.208-1.952,4.162c-0.872,3.63,0,7.914,0.435,12.123c0.436,4.211,0.653,7.841-1.233,9.147
		c-1.889,1.307-3.34,0.218-3.34,0.218s0.944,0.509,1.816-0.218c0.87-0.726,1.016-3.193-1.235-3.411
		c-2.25-0.218-3.122,2.541-2.033,4.138c1.09,1.597,4.574,2.178,6.461-1.089c1.888-3.267,0.218-11.905,0.218-11.905
		s1.452,6.606,6.896,7.187S59.757,36.99,58.088,35.102z M39.938,35.393c0,3.557,3.267,3.557,3.631,1.597
		c0.362-1.96-0.509-3.992-0.727-5.517c-0.217-1.524,0-2.178,0-2.178S39.938,31.836,39.938,35.393z M32.898,28.278
		c2.686-0.435,5.081-3.121,5.081-3.121s-0.581,0.29-2.541,0.145c-1.961-0.145-3.412-0.653-4.573,0.146
		C29.703,26.245,30.212,28.715,32.898,28.278z M25.606,37.376c2.491,0.449,3.446-2.212,2.409-3.479
		c-0.968-1.188-2.756-0.68-3.046,0.492c-0.084,0.34-0.1,0.583-0.084,0.766c-0.229-0.567-0.394-1.54,0.486-2.562
		c1.371-1.588,4.613-1.857,7.915-1.981c3.303-0.125,5.609-1.089,6.342-1.53c0.462-0.279,0.768-0.554,0.942-0.728
		c0.032,0.017,0.062,0.038,0.096,0.052c-0.148,0.118-0.54,0.457-0.943,1.033c-0.509,0.727-1.67,3.049-2.034,6.461
		c-0.363,3.412-0.87,6.752-2.613,8.058c-1.116,0.836-2.11,0.601-2.683,0.324c0.188,0.028,0.44,0.029,0.796-0.034
		c1.233-0.218,1.888-2.032,0.726-3.122c-1.24-1.163-4.065-0.362-3.774,2.25c0.256,2.31,3.266,3.559,5.588,1.308
		c1.743-1.688,2.179-4.865,2.615-9.147c0.398-3.927,2.076-6.688,2.352-7.121c0.186,0.075,0.387,0.118,0.599,0.118
		c0.881,0,1.598-0.715,1.598-1.597c0-0.883-0.717-1.597-1.598-1.597c-0.883,0-1.598,0.715-1.598,1.597
		c0,0.587,0.321,1.096,0.794,1.373c-0.782,0.399-3.371,1.583-6.812,1.697c-4.144,0.136-7.223,0.347-8.959,1.91
		C22.402,34.004,23.404,36.977,25.606,37.376z M24.476,40.983c-1.887,2.25-0.072,4.21,2.033,3.339c2.106-0.871,3.34-5.59,3.34-5.59
		S26.365,38.732,24.476,40.983z M37.616,31.256c0,0-3.558,0.726-4.864,2.105c-1.307,1.378-1.452,3.41,0.798,3.338
		C35.8,36.627,37.616,31.256,37.616,31.256z M38.777,46.863c-0.328-1.533-2.54-1.451-2.832-0.145
		c-0.29,1.306,1.018,1.597,1.018,1.597s-0.436,0.798-1.307,1.162c-0.871,0.363-8.364,3.26-14.736-2.905
		c-6.68-6.46-2.325-13.067-2.325-13.067s-0.373,1.482,1.381,1.38c1.234-0.072,1.691-1.823,0.29-2.685
		c-0.945-0.582-3.775-0.218-4.066,5.588c-0.349,6.971,4.71,13.478,12.994,13.721C36.6,51.727,39.213,48.896,38.777,46.863z
		 M17.508,49.84c-0.722,0-1.308,0.584-1.308,1.307c0,0.72,0.585,1.306,1.308,1.306c0.721,0,1.305-0.584,1.305-1.306
		C18.813,50.424,18.229,49.84,17.508,49.84z M14.023,45.048c-0.722,0-1.307,0.584-1.307,1.307s0.584,1.306,1.307,1.306
		c0.721,0,1.306-0.583,1.306-1.306S14.744,45.048,14.023,45.048z M13.732,40.766c0-0.722-0.584-1.307-1.306-1.307
		c-0.723,0-1.306,0.585-1.306,1.307c0,0.72,0.583,1.307,1.306,1.307C13.148,42.072,13.732,41.486,13.732,40.766z M12.645,36.264
		c0.721,0,1.305-0.584,1.305-1.305c0-0.722-0.583-1.308-1.305-1.308c-0.723,0-1.307,0.585-1.307,1.306
		C11.338,35.679,11.924,36.264,12.645,36.264z M52.462,33.694c0-0.721-0.585-1.307-1.306-1.306c-0.722,0-1.307,0.586-1.307,1.307
		c0,0.721,0.585,1.306,1.307,1.306C51.877,35.001,52.462,34.417,52.462,33.694z M53.637,26.96c0,0.721,0.585,1.306,1.306,1.306
		c0.722,0,1.307-0.585,1.307-1.306c0-0.723-0.585-1.306-1.307-1.308C54.222,25.653,53.637,26.238,53.637,26.96z M48.367,30.161
		c0.577,0,1.044-0.467,1.044-1.043c0-0.578-0.467-1.043-1.044-1.043c-0.577-0.001-1.043,0.467-1.043,1.043
		C47.324,29.693,47.79,30.161,48.367,30.161z M57.741,29.012c0,0.576,0.466,1.042,1.043,1.042c0.576,0,1.043-0.466,1.043-1.042
		c0-0.576-0.467-1.044-1.043-1.044C58.208,27.968,57.741,28.436,57.741,29.012z M48.853,24.034c0-0.442-0.359-0.801-0.8-0.801
		c-0.442,0-0.802,0.358-0.802,0.802c0,0.441,0.359,0.8,0.802,0.8C48.494,24.834,48.853,24.475,48.853,24.034z M61.813,26.897
		c0.44,0,0.799-0.358,0.799-0.8s-0.359-0.801-0.799-0.801c-0.443,0-0.802,0.359-0.802,0.801S61.37,26.897,61.813,26.897z
		 M14.822,28.932c-0.721,0-1.306,0.585-1.306,1.308c0,0.721,0.585,1.305,1.306,1.305c0.722,0,1.306-0.584,1.306-1.305
		C16.127,29.517,15.544,28.932,14.822,28.932z M22.226,52.597c-0.721,0-1.306,0.586-1.306,1.307c0,0.721,0.585,1.307,1.306,1.307
		c0.722,0,1.307-0.586,1.307-1.307C23.533,53.183,22.948,52.597,22.226,52.597z M27.816,54.269c-0.723,0-1.306,0.584-1.306,1.306
		c-0.001,0.721,0.583,1.307,1.306,1.307c0.722,0,1.306-0.584,1.306-1.307C29.122,54.853,28.537,54.269,27.816,54.269z M33.624,54.05
		c-0.723,0.001-1.308,0.585-1.308,1.308c0,0.72,0.587,1.305,1.308,1.305s1.306-0.584,1.307-1.305
		C34.931,54.635,34.347,54.05,33.624,54.05z M39.503,51.654c-0.722,0-1.306,0.585-1.306,1.307c0,0.721,0.584,1.307,1.306,1.307
		c0.722,0,1.307-0.586,1.307-1.307C40.81,52.239,40.224,51.654,39.503,51.654z M10.684,20.003c5.68-0.489,21.561-0.872,26.933-0.725
		c5.372,0.145,7.913,0,7.913,0l1.016-0.8c0,0-29.763,0-36.442,0c-6.678,0-9.839,2.024-10.091,5.953
		c-0.217,3.412,2.687,5.808,5.445,5.227s3.774-4.139,2.178-6.098c-1.597-1.96-3.702-1.162-3.702-1.162S3.932,20.584,10.684,20.003z
		 M131.338,20.076c0,0,1.451-2.396,0-4.719c-1.453-2.322-2.758-2.395-3.121-3.121c-0.361-0.726-0.361-0.726-0.361-0.726
		s-1.233,1.67-0.51,3.775C128.073,17.39,131.338,20.076,131.338,20.076z M114.654,61.784l53.287,53.503
		c0.08,0.084,0.193,0.129,0.306,0.129c0.058,0,0.114-0.012,0.167-0.035c0.163-0.066,0.27-0.225,0.27-0.398V6.803
		c0-0.127-0.07-0.26-0.164-0.343c-0.082-0.067-0.182-0.105-0.285-0.105H60.047c-0.176,0-0.335,0.107-0.401,0.27
		C59.578,6.788,59.615,6.976,59.74,7.1l53.505,53.285L114.654,61.784z M115.502,59.087c-0.459-0.675-1.854-2.935-2.52-6.218
		c4.015,0.383,8.1-0.403,11.629-2.446c-2.032,3.516-2.819,7.58-2.446,11.579c-4.049-0.885-6.657-2.92-6.657-2.92L115.502,59.087z
		 M125.529,29.514c2.759-1.234,2.688-4.938,0.801-5.953c-1.887-1.017-3.559,0.436-3.63,1.887c-0.072,1.452,1.305,1.743,1.305,1.743
		s-1.594,0.653-2.757-0.799c-1.161-1.451-0.579-4.864,3.193-5.372c3.774-0.507,7.332,3.122,8.203,7.55
		c0.381,1.934,0.512,4.339,0.199,6.864c-3.105,0.588-6.475,0.583-9.927-0.113c-7.515-1.517-12.485-6.243-11.615-12.559
		c0.814-5.908,5.663-8.784,10.744-7.623c5.081,1.162,7.259,5.735,7.259,5.735s-0.652-0.798-2.611-1.016
		c-1.963-0.218-6.244,0.872-7.115,4.717C118.708,28.424,122.771,30.747,125.529,29.514z M133.041,39.99
		c1.697-0.217,2.604-0.446,2.762-0.488c-0.037,0.097-0.328,0.871-0.611,2.436c-1.334,0.45-2.631,1.048-3.877,1.783
		C132.021,42.52,132.598,41.272,133.041,39.99z M151.48,48.7c-1.019-1.887-4.722-1.958-5.955,0.799
		c-1.231,2.758,1.09,6.824,4.938,5.952c3.848-0.871,4.936-5.155,4.719-7.115c-0.218-1.959-1.019-2.612-1.019-2.612
		s4.571,2.178,5.735,7.259c1.162,5.081-1.715,9.929-7.623,10.743c-6.314,0.871-11.043-4.102-12.559-11.614
		c-0.697-3.453-0.701-6.822-0.113-9.928c2.525-0.312,4.932-0.181,6.865,0.199c4.428,0.871,8.057,4.429,7.551,8.204
		c-0.508,3.775-3.922,4.355-5.373,3.193c-1.451-1.161-0.797-2.758-0.797-2.758s0.289,1.379,1.741,1.307
		C151.044,52.257,152.495,50.587,151.48,48.7z M138.861,41.053c-0.59,0.088-1.176,0.209-1.758,0.347
		c0.492-2.369,1.023-4.063,1.09-4.271l0.031-0.032c0,0-0.019,0.005-0.022,0.006c0.001-0.002,0.005-0.016,0.005-0.016l-0.02,0.02
		c-0.201,0.054-2.055,0.548-4.597,0.987c0.154-0.636,0.289-1.275,0.386-1.918c3.219-0.746,6.373-2.064,8.994-4.114
		C140.924,34.685,139.605,37.836,138.861,41.053z M132.381,48.032l-0.007-0.006c-0.011-0.012-0.019-0.026-0.03-0.038l-2.133-2.134
		c1.486-1.133,3.107-1.972,4.771-2.571c-0.18,1.343-0.322,3.058-0.349,5.199c-0.069,6.316,2.181,10.962,2.181,10.962
		s-2.758,2.323-9.584,2.904c-1.361,0.116-2.643,0.05-3.826-0.121c-0.479-5.481,1.408-10.503,4.291-13.951l2.221,2.22
		c0.68,0.679,1.784,0.679,2.465,0C133.061,49.815,133.061,48.713,132.381,48.032z M129.18,44.823l-2.171-2.172
		c-0.681-0.681-1.786-0.681-2.466,0c-0.605,0.607-0.667,1.547-0.193,2.227c0.064,0.099,0.141,0.193,0.228,0.28l2.182,2.181
		c-3.452,2.891-8.487,4.781-13.983,4.294c-0.154-1.177-0.209-2.456-0.094-3.827c0.582-6.824,2.905-9.582,2.905-9.582
		s4.646,2.249,10.962,2.178c2.086-0.024,3.801-0.132,5.169-0.265C131.12,41.77,130.293,43.362,129.18,44.823z M115.924,61.824
		c1.391,0.665,3.557,1.459,6.469,1.873c0.473,2.679,1.469,5.27,2.959,7.594L115.924,61.824z M99.252,30.311
		c-1.018-2.105-1.018-4.282-1.018-4.282s-4.525,10.346,0.145,18.321L61.102,7.227l106.71-0.001v106.7l-37.127-37.279
		c7.974,4.667,18.322,0.147,18.322,0.147s-2.177,0-4.279-1.016c-2.107-1.016-4.431-2.541-6.463-1.96
		c-2.031,0.582-2.105,3.702-2.105,3.702s-8.202-1.087-11.542-9.944c-0.474-1.254-0.793-2.501-1.005-3.734
		c1.277,0.122,2.671,0.173,4.199,0.104c7.912-0.364,11.181-3.92,11.181-3.92s-2.325-4.066-2.687-10.019
		c-0.149-2.447,0.146-5.06,0.545-7.296c0.584-0.149,1.166-0.279,1.746-0.377c-0.635,3.425-0.658,6.849-0.261,9.706
		c0.945,6.751,5.154,12.632,11.616,12.923c0.322,0.014,0.63,0.013,0.936,0.01c-0.959,0.133-2.219,0.212-3.84,0.135
		c-4.574-0.219-9.221-1.307-10.162,1.815c-0.945,3.121,2.105,5.517,4.646,4.428s1.959-4.066,0.146-4.501
		c-1.816-0.436-2.324,1.018-2.324,1.018s0-1.38,1.453-1.888c1.449-0.509,3.627,0,7.549,0c3.021,0,6.119-1.333,7.387-1.947
		c2.558-1.086,3.951-2.862,4.592-4.006c0.553-0.987,0.691-1.45,0.709-1.676c0.219,0.899,0.875,4.622-1.58,9.661
		c-2.234,4.585-4.72,7.332-6.751,11.905c-2.032,4.572-3.994,7.766-6.315,7.766c-1.988,0-2.486-2.708-2.59-3.489
		c0.022,0.097,0.061,0.234,0.121,0.439c0.219,0.726,1.194,2.07,3.051,1.451c1.522-0.508,2.104-2.976,0.504-4.282
		c-1.594-1.306-4.135-0.29-4.57,1.959c-0.438,2.25,1.234,5.375,4.57,4.938c1.803-0.234,3.029-1.672,3.781-2.947
		c-0.142,0.56-0.255,1.237-0.295,2.074c-0.146,3.053,1.088,6.102,4.719,6.684c3.631,0.578,5.662-1.889,5.734-4.283
		c0.072-2.399-2.031-4.504-4.5-3.707s-1.959,4.503-0.074,5.013c1.887,0.508,2.471-0.945,2.471-0.945s0.289,2.541-2.76,2.758
		c-3.047,0.221-5.226-2.322-4.572-6.68c0.582-3.894,4.428-10.017,4.428-10.017s-1.309,3.412,0.582,5.878
		c1.889,2.468,5.152,1.888,6.171,0.29c1.015-1.594-1.019-2.974-2.181-2.031c-1.161,0.945-0.071,1.885-0.071,1.885
		s-0.87,0.437-1.741-1.085c-0.871-1.525,0.693-5.351,2.321-13.213c1.672-8.057,1.091-18.221-6.604-23.593
		c-2.375-1.658-5.104-2.805-7.968-3.423c0.286-0.032,0.64-0.062,0.998-0.062c0.8,0,3.05-0.436,4.574-3.267
		c1.524-2.831-0.438-5.009-2.396-4.429c-1.961,0.582-2.033,2.903-0.508,3.485c1.522,0.581,2.104-0.798,2.104-0.798
		s0.437,2.468-1.67,3.92c-2.104,1.452-5.516,0.653-5.516,0.653l0.543,0.173c-1.709-0.222-3.447-0.272-5.176-0.096
		c0.865-3.505,2.506-6.625,4.775-9.079c0.176-0.189,0.355-0.361,0.537-0.539l1.158,1.16c0.508,0.505,1.324,0.505,1.83,0
		c0.504-0.505,0.504-1.323,0-1.828l-0.998-0.998c4.021-2.798,8.547-2.936,11.41-1.207c3.485,2.105,2.469,6.243,1.381,7.332
		c-1.088,1.089-1.525,1.089-1.525,1.089s0.945-0.727,0.146-1.816c-0.798-1.089-3.555-1.017-3.702,1.38
		c-0.146,2.395,3.606,3.709,5.881,1.089c2.396-2.759,1.889-7.042-0.871-9.438c-2.392-2.077-8.438-2.837-13.553,0.734l-0.132-0.131
		c3.567-5.113,2.808-11.157,0.731-13.548c-2.396-2.759-6.68-3.267-9.438-0.872c-2.62,2.276-1.305,6.026,1.089,5.881
		c2.397-0.146,2.469-2.903,1.383-3.703c-1.092-0.797-1.818,0.146-1.818,0.146s0-0.436,1.09-1.525s5.229-2.105,7.332,1.378
		c1.73,2.862,1.594,7.387-1.203,11.406l-1.16-1.162c-0.504-0.504-1.324-0.504-1.83,0c-0.504,0.505-0.504,1.324,0,1.829l1.325,1.326
		c-0.178,0.181-0.351,0.363-0.542,0.54c-2.455,2.271-5.574,3.911-9.078,4.776c0.174-1.726,0.125-3.46-0.097-5.167l0.172,0.537
		c0,0-0.798-3.413,0.654-5.518c1.452-2.105,3.92-1.668,3.92-1.668s-1.38,0.579-0.798,2.104c0.58,1.525,2.902,1.452,3.48-0.507
		c0.584-1.961-1.594-3.921-4.426-2.397s-3.268,3.775-3.268,4.573c0,0.358-0.028,0.712-0.062,0.998
		c-0.618-2.862-1.764-5.591-3.421-7.966c-5.374-7.696-15.536-8.275-23.597-6.607c-7.858,1.63-11.687,3.194-13.214,2.323
		c-1.525-0.87-1.092-1.742-1.092-1.742s0.942,1.09,1.89-0.072c0.948-1.161-0.437-3.193-2.035-2.177
		c-1.597,1.016-2.177,4.283,0.292,6.17c2.475,1.887,5.885,0.581,5.885,0.581s-6.132,3.844-10.021,4.427
		c-4.354,0.654-6.896-1.523-6.677-4.573c0.217-3.048,2.758-2.758,2.758-2.758s-1.452,0.581-0.943,2.468
		c0.507,1.887,4.209,2.396,5.006-0.072c0.797-2.468-1.304-4.573-3.702-4.501c-2.394,0.072-4.862,2.104-4.281,5.734
		c0.58,3.63,3.63,4.864,6.678,4.719c0.838-0.04,1.515-0.154,2.075-0.294c-1.274,0.751-2.711,1.978-2.946,3.779
		c-0.435,3.338,2.683,5.009,4.933,4.573c2.25-0.435,3.272-2.976,1.959-4.573c-1.304-1.598-3.773-1.017-4.281,0.508
		c-0.619,1.854,0.729,2.83,1.451,3.049c0.2,0.06,0.336,0.097,0.435,0.12c-0.791-0.105-3.48-0.606-3.48-2.588
		c0-2.322,3.193-4.283,7.772-6.314c4.572-2.033,7.318-4.518,11.904-6.752c5.037-2.455,8.758-1.799,9.657-1.582
		c-0.226,0.018-0.688,0.159-1.672,0.709c-1.146,0.641-2.921,2.034-4.007,4.593c-0.613,1.266-1.945,4.366-1.945,7.386
		c0,3.92,0.51,6.098,0,7.55c-0.509,1.452-1.889,1.452-1.889,1.452s1.451-0.508,1.016-2.322c-0.434-1.816-3.41-2.396-4.5,0.144
		c-1.088,2.541,1.309,5.59,4.428,4.647c3.123-0.944,2.033-5.59,1.816-10.163c-0.076-1.619,0.002-2.877,0.135-3.835
		c-0.002,0.304-0.004,0.609,0.01,0.93c0.289,6.461,6.171,10.672,12.923,11.615c2.854,0.399,6.278,0.376,9.704-0.258
		c-0.104,0.618-0.243,1.241-0.405,1.863c-2.263,0.335-4.867,0.574-7.269,0.428c-5.951-0.363-10.017-2.687-10.017-2.687
		s-3.56,3.268-3.919,11.18c-0.07,1.533-0.025,2.925,0.087,4.197c-1.228-0.211-2.47-0.531-3.719-1.002
		c-8.854-3.34-9.945-11.543-9.945-11.543s3.122-0.074,3.703-2.106C101.792,34.739,100.268,32.417,99.252,30.311z M103.736,49.686
		c2.315,1.487,4.9,2.482,7.57,2.957c0.379,2.847,1.109,4.952,1.728,6.303L103.736,49.686z M126.048,13.899
		c0,0-0.448-1.944-2.468-3.066s-2.318-2.169-2.318-2.169s-0.523,2.394,0.822,3.964C123.43,14.198,126.048,13.899,126.048,13.899z
		 M119.367,53.464l-0.266,2.278l2.395-0.291l0.654-2.794L119.367,53.464z M127.066,51.958c0,0-1.894,2.467-1.822,4.433
		c0.07,1.966,2.502,1.536,2.181-0.573S127.066,51.958,127.066,51.958z M122.811,44.569c0,0-2.401-1.525-3.602-2.622
		c-2.178-1.991-4.396,0.476-2.566,1.948C118.466,45.365,122.811,44.569,122.811,44.569z M118.616,49.073
		c1.962,0.155,4.506-1.632,4.506-1.632s-1.746-0.11-3.84-0.524C117.188,46.505,116.654,48.917,118.616,49.073z M174.627,127.145
		l-0.002-0.217V0L49.027,0.009v1.156l124.441-0.008v125.987H174.627L174.627,127.145z M48.986,5.281l8.948,9.051l-8.915-0.011
		l-0.001,1.156l10.06,0.012L77.08,33.698c-0.596-0.354-1.157-0.475-1.932-0.411c-1.742,0.146-2.686,2.323-1.742,3.703
		c0.942,1.379,3.048,1.089,3.702,0.146c0.653-0.944-0.147-2.105-0.147-2.105l21.65,20.936c-0.727-0.356-1.502-0.667-2.336-0.899
		c-6.248-1.743-13.07,1.161-13.506,6.533c-0.41,5.066,4.936,6.387,7.258,4.21c2.32-2.178,0.798-5.299-1.525-5.59
		c-2.32-0.291-2.756,1.597-2.756,1.597s0,0,0.291-1.161c0.29-1.161,3.482-4.646,9.875-4.209c2.214,0.151,4.068,0.951,5.562,1.926
		l6.111,6.183c-1.421,0.152-2.531,1.34-2.531,2.801c0,1.563,1.269,2.831,2.832,2.831c1.449,0,2.631-1.094,2.797-2.499l6.31,6.381
		c0.823,1.398,1.468,3.085,1.603,5.049c0.434,6.385-3.051,9.582-4.212,9.873s-1.161,0.291-1.161,0.291s1.889-0.436,1.598-2.761
		c-0.289-2.323-3.412-3.849-5.59-1.525c-2.178,2.324-0.857,7.673,4.209,7.263c5.373-0.436,8.276-7.263,6.535-13.504
		c-0.231-0.833-0.541-1.608-0.897-2.334l20.933,21.645c0,0-1.16-0.797-2.104-0.146c-0.945,0.656-1.235,2.761,0.145,3.703
		c1.381,0.942,3.557,0,3.703-1.742c0.023-0.287,0.014-0.539-0.014-0.78l17.443,17.645l-0.013,9.461l1.156,0.002l0.01-8.296
		l8.542,8.642l0.875-0.75L49.002,3.469L48.986,5.281z"/>
</g>
<polyline fill="none" stroke="#000000" points="163.285,120.174 169.952,126.633 159.18,126.675 "/>
<line fill="none" stroke="#000000" stroke-width="1.1" x1="49.543" y1="15.042" x2="49.543" y2="5"/>
</svg>
