<?xml version="1.0" encoding="utf-8"?>
<!-- Generator: Adobe Illustrator 13.0.0, SVG Export Plug-In  -->
<!DOCTYPE svg PUBLIC "-//W3C//DTD SVG 1.1 Tiny//EN" "http://www.w3.org/Graphics/SVG/1.1/DTD/svg11-tiny.dtd" [
	<!ENTITY ns_flows "http://ns.adobe.com/Flows/1.0/">
]>
<svg version="1.1" baseProfile="tiny"
	 xmlns="http://www.w3.org/2000/svg" xmlns:xlink="http://www.w3.org/1999/xlink" xmlns:a="http://ns.adobe.com/AdobeSVGViewerExtensions/3.0/"
	 x="0px" y="0px" width="176px" height="76px" viewBox="-0.461 -0.764 176 76" xml:space="preserve">
<defs>
</defs>
<path fill="#363239" d="M86.563,70.555c0,0,1.095-6.677-2.955-10.837c-4.051-4.159-11.713-3.724-11.713-3.724
	s4.16,1.861,8.319,6.239C84.374,66.613,86.563,70.555,86.563,70.555z"/>
<path fill="#363239" d="M75.719,69.723c0,0-8.41-4.84-17.212-6.966c-8.803-2.129-12.112,0.057-11.968,1.832
	c0.146,1.776,2.57,2.8,7.801,2.244c4.546-0.482,9.511-0.438,14.329,0.834C73.489,68.94,75.719,69.723,75.719,69.723z"/>
<path fill="#363239" d="M85.272,59.197c0,0-1.508-11.79-3.457-16.576c-1.951-4.788-4.876-4.522-5.763-3.015
	c-0.886,1.508,0.021,5.2,3.369,8.688C83.633,52.681,85.272,59.197,85.272,59.197z"/>
<path fill="#363239" d="M87.666,56.183c0,0-0.956-8.082-2.127-15.29c-1.197-7.358-2.128-13.562-0.621-16.177
	c1.399-2.428,5.407-1.772,5.407,3.811c0,5.585-1.685,16.045-2.127,21.008C87.755,54.498,87.666,56.183,87.666,56.183z"/>
<path fill="#363239" d="M84.475,71.253c0,0-11.257-8.155-28.897-11.701c-17.639-3.547-27.036-1.864-33.152,1.771
	c-6.116,3.635-10.104,7.269-14.714,7.624C3.102,69.301,0,67.439,0,67.439s1.95,0.8,3.634-0.442c1.685-1.241,3.812-5.23,7.27-5.141
	c3.456,0.089,4.166,2.571,4.166,2.571s9.218-6.827,17.906-7.624c8.686-0.799,13.471,0.443,13.471,0.443s-9.483-1.685-16.397-9.396
	c-4.616-5.148-3.267-12.264,1.417-13.652c4.787-1.417,9.05,2.636,7.535,6.737c-1.507,4.078-6.598,3.622-7.979,1.596
	c-1.329-1.95-0.708-2.658-0.708-2.658s-0.622,5.762,4.786,10.105c5.407,4.344,10.548,5.406,10.548,5.406s-6.115-3.016-4.698-7.89
	c1.418-4.875,7.799-4.788,9.661-1.772c1.86,3.013-0.177,6.646-2.747,6.559c-2.571-0.088-3.9-2.039-3.458-4.167
	c0.443-2.128,2.749-2.747,3.99-2.214c1.241,0.53,1.506,1.152,1.506,1.152s-1.596-2.837-4.875-1.686
	c-3.28,1.152-3.104,5.761,0.531,8.155c3.634,2.394,12.41,4.609,19.501,7.18c7.091,2.569,11.965,5.318,11.965,5.318
	s-2.924-2.659-8.242-5.762c-5.318-3.104-10.829-5.67-11.878-10.105c-1.152-4.874,2.571-7.888,6.383-6.825
	c4.205,1.173,3.633,6.116,1.684,7.18c-1.95,1.064-4.698-0.266-4.255-2.835c0.376-2.184,3.103-1.419,3.103-1.419
	s-3.635-1.507-4.965,1.241c-1.505,3.111,1.685,6.38,7.357,9.926c5.672,3.547,8.333,5.497,12.056,8.156
	C81.992,68.237,84.475,71.253,84.475,71.253z"/>
<path fill="#363239" d="M28.055,66.909c0,0-1.666-1.182-0.641-3.041c0.951-1.726,3.585-1.89,5.122-0.417s1.552,5.311-1.729,6.564
	c-3.104,1.185-6.825-0.967-7.234-4.066c-0.449-3.394,1.665-5.956,3.137-6.722c1.473-0.769,2.017-0.929,2.017-0.929l2.465-0.13
	c0,0-4.67,1.128-5.378,4.548C25.076,66.271,28.055,66.909,28.055,66.909z"/>
<path fill="#363239" d="M21.422,54.041c0,0-0.415,1.396,1.14,2.053c1.443,0.609,3.126-0.423,3.361-2.101
	c0.234-1.675-1.645-4.082-4.31-3.246c-2.524,0.787-3.634,3.893-2.519,6.098c1.229,2.427,3.972,2.901,5.269,2.654
	c1.299-0.243,1.716-0.412,1.716-0.412l1.604-1.133c0,0-3.376,1.476-5.597-0.192C19.581,55.877,21.422,54.041,21.422,54.041z"/>
<path fill="#363239" d="M57.102,34.223c0,0,0.854-1.18,2.323-0.351c1.362,0.772,1.572,2.736,0.387,3.945
	c-1.184,1.208-4.236,1.191-5.203-1.432c-0.917-2.48,0.864-5.089,3.296-5.716c2.634-0.68,5.368,1.259,5.965,2.437
	c0.598,1.176,0.074,1.729,0.074,1.729l0.078,1.961c0,0-0.89-3.576-3.567-4.318C57.432,31.643,57.102,34.223,57.102,34.223z"/>
<path fill="#363239" d="M118.271,34.223c0,0-0.854-1.18-2.322-0.351c-1.363,0.772-1.572,2.736-0.388,3.945
	c1.186,1.208,4.236,1.191,5.203-1.432c0.916-2.48-0.865-5.089-3.297-5.716c-2.635-0.68-5.369,1.259-5.965,2.437
	c-0.599,1.176-0.072,1.729-0.072,1.729l-0.08,1.961c0,0,0.889-3.576,3.567-4.318C117.941,31.643,118.271,34.223,118.271,34.223z"/>
<path fill="#363239" d="M153.893,54.041c0,0,0.415,1.396-1.139,2.053c-1.443,0.609-3.127-0.423-3.362-2.101
	c-0.234-1.675,1.645-4.08,4.311-3.246c2.522,0.787,3.634,3.894,2.518,6.099c-1.229,2.427-3.972,2.9-5.27,2.653
	c-1.297-0.243-1.716-0.412-1.716-0.412l-1.603-1.133c0,0,3.376,1.476,5.597-0.192C155.734,55.877,153.893,54.041,153.893,54.041z"/>
<path fill="#363239" d="M46.312,58.017c0,0-5.315-0.671-7.999,1.161c-2.685,1.834-2.4,5.188-0.336,6.298
	c2.064,1.108,4.542-0.131,4.799-2.4c0.259-2.271-1.909-3.097-3.095-2.839c-1.187,0.26-1.394,0.748-1.394,0.748
	s0.749-1.314,4.594-2.089c3.844-0.774,8.333-0.104,8.333-0.104L46.312,58.017z"/>
<path fill="#363239" d="M78.313,54.277c0,0-1.33-0.996-3.655-3.058c-2.328-2.062-9.587-8.843-10.771-14.693
	c-1.197-5.917,2.459-10.371,7.578-9.175c5.12,1.196,5.385,7.447,1.596,8.977c-2.988,1.206-6.116-1.529-4.919-4.322
	c1.032-2.407,3.523-1.662,3.523-1.662s-3.789-1.927-5.185,2.659c-1.396,4.588,2.859,11.566,6.648,16.021
	C75.962,52.355,78.313,54.277,78.313,54.277z"/>
<path fill="#363239" d="M81.572,34.329c0,0-3.188-2.496-6.375-8.177c-3.189-5.684-2.218-11.991,2.079-13.585
	c3.908-1.453,8.378,0.951,8.455,5.128c0.07,3.744-3.604,5.754-6.169,4.436c-2.564-1.317-2.009-5.129,0.487-5.612
	c2.388-0.466,3.326,1.594,3.326,1.594s-0.237-3.326-4.396-3.326c-4.158,0-5.169,5.681-3.089,10.464
	C77.968,30.031,81.572,34.329,81.572,34.329z"/>
<path fill="#363239" d="M88.737,70.555c0,0-1.094-6.677,2.956-10.837c4.051-4.159,11.714-3.724,11.714-3.724
	s-4.161,1.861-8.32,6.239C90.927,66.613,88.737,70.555,88.737,70.555z"/>
<path fill="#363239" d="M96.918,69.747c0,0,8.628-4.437,17.521-6.148c8.892-1.713,12.095,0.624,11.866,2.392
	c-0.228,1.768-2.696,2.677-7.896,1.876c-4.52-0.695-9.479-0.884-14.354,0.16C99.182,69.073,96.918,69.747,96.918,69.747z"/>
<path fill="#363239" d="M90.03,59.197c0,0,1.508-11.79,3.457-16.576c1.95-4.788,4.874-4.522,5.761-3.015s-0.465,5.284-3.368,8.688
	C91.344,53.612,90.03,59.197,90.03,59.197z"/>
<path fill="#363239" d="M90.828,71.253c0,0,11.257-8.155,28.896-11.701c17.639-3.547,27.036-1.862,33.151,1.771
	c6.116,3.635,10.104,7.271,14.714,7.625c4.609,0.353,7.711-1.509,7.711-1.509s-1.949,0.8-3.633-0.442
	c-1.685-1.241-3.812-5.23-7.27-5.141c-3.456,0.089-4.165,2.571-4.165,2.571s-9.219-6.827-17.905-7.624
	c-8.687-0.799-13.474,0.443-13.474,0.443s9.485-1.685,16.398-9.396c4.615-5.148,3.266-12.264-1.418-13.652
	c-4.787-1.417-9.051,2.636-7.534,6.737c1.506,4.078,6.596,3.622,7.978,1.596c1.329-1.95,0.709-2.658,0.709-2.658
	s0.619,5.763-4.787,10.105c-5.407,4.344-10.548,5.406-10.548,5.406s6.115-3.016,4.697-7.89c-1.417-4.875-7.8-4.788-9.661-1.772
	c-1.862,3.013,0.177,6.646,2.748,6.559s3.899-2.039,3.457-4.167c-0.444-2.128-2.748-2.747-3.989-2.214
	c-1.241,0.53-1.508,1.152-1.508,1.152s1.598-2.837,4.877-1.686c3.279,1.152,3.103,5.761-0.532,8.155
	c-3.635,2.394-12.409,4.609-19.502,7.18c-7.09,2.569-11.966,5.318-11.966,5.318s2.926-2.659,8.244-5.762
	c5.317-3.104,10.828-5.67,11.877-10.105c1.151-4.874-2.57-7.888-6.382-6.825c-4.204,1.173-3.634,6.116-1.685,7.18
	c1.95,1.064,4.698-0.266,4.256-2.835c-0.377-2.184-3.104-1.419-3.104-1.419s3.635-1.507,4.965,1.241
	c1.506,3.111-1.686,6.38-7.358,9.926c-5.672,3.547-8.332,5.497-12.055,8.156S90.828,71.253,90.828,71.253z"/>
<path fill="#363239" d="M147.248,66.909c0,0,1.664-1.182,0.641-3.041c-0.95-1.726-3.585-1.89-5.122-0.417s-1.553,5.311,1.728,6.564
	c3.106,1.185,6.826-0.965,7.236-4.066c0.447-3.393-1.665-5.955-3.139-6.722c-1.472-0.769-2.017-0.929-2.017-0.929l-2.465-0.129
	c0,0,4.67,1.127,5.379,4.547C150.226,66.271,147.248,66.909,147.248,66.909z"/>
<path fill="#363239" d="M128.989,58.017c0,0,5.315-0.671,7.999,1.161c2.684,1.834,2.4,5.188,0.336,6.298
	c-2.064,1.108-4.542-0.131-4.8-2.4c-0.258-2.271,1.91-3.097,3.097-2.839c1.186,0.26,1.393,0.748,1.393,0.748
	s-0.748-1.314-4.593-2.089c-3.844-0.774-8.335-0.104-8.335-0.104L128.989,58.017z"/>
<path fill="#363239" d="M96.987,54.277c0,0,1.33-0.996,3.657-3.058c2.327-2.062,9.586-8.843,10.77-14.693
	c1.197-5.917-2.46-10.371-7.578-9.175c-5.119,1.196-5.386,7.447-1.596,8.977c2.987,1.206,6.116-1.529,4.919-4.322
	c-1.031-2.407-3.522-1.662-3.522-1.662s3.789-1.927,5.185,2.659c1.396,4.588-2.858,11.566-6.647,16.021
	C99.339,52.355,96.987,54.277,96.987,54.277z"/>
<path fill="#363239" d="M93.73,34.329c0,0,3.188-2.496,6.375-8.177c3.189-5.684,2.219-11.991-2.079-13.585
	c-3.909-1.453-8.377,0.951-8.455,5.128c-0.069,3.744,3.604,5.754,6.169,4.436c2.563-1.317,2.01-5.129-0.485-5.612
	c-2.39-0.466-3.327,1.594-3.327,1.594s0.237-3.326,4.396-3.326s5.168,5.681,3.09,10.464C97.334,30.031,93.73,34.329,93.73,34.329z"
	/>
<circle fill="#363239" cx="87.587" cy="72.438" r="1.45"/>
<circle fill="#363239" cx="78.889" cy="72.438" r="2.136"/>
<path fill="#363239" d="M61.796,72.363c0-1.213,0.981-2.195,2.193-2.195c1.209,0,2.192,0.982,2.192,2.195
	c0,1.208-0.983,2.19-2.192,2.19C62.778,74.554,61.796,73.571,61.796,72.363z"/>
<circle fill="#363239" cx="69.84" cy="52.861" r="2.015"/>
<circle fill="#363239" cx="87.447" cy="13.218" r="2.015"/>
<circle fill="#363239" cx="72.232" cy="40.54" r="1.572"/>
<circle fill="#363239" cx="103.611" cy="40.54" r="1.571"/>
<circle fill="#363239" cx="81.106" cy="26.398" r="1.129"/>
<circle fill="#363239" cx="87.577" cy="18.156" r="1.129"/>
<circle fill="#363239" cx="93.782" cy="26.398" r="1.129"/>
<circle fill="#363239" cx="113.017" cy="28.262" r="1.341"/>
<circle fill="#363239" cx="62.227" cy="28.615" r="1.341"/>
<circle fill="#363239" cx="105.127" cy="52.861" r="2.016"/>
<circle fill="#363239" cx="71.832" cy="72.209" r="1.107"/>
<circle fill="#363239" cx="96.264" cy="72.438" r="2.137"/>
<path fill="#363239" d="M113.356,72.363c0-1.213-0.981-2.195-2.194-2.195c-1.209,0-2.191,0.982-2.191,2.195
	c0,1.208,0.982,2.19,2.191,2.19C112.375,74.554,113.356,73.571,113.356,72.363z"/>
<circle fill="#363239" cx="153.525" cy="71.938" r="2.193"/>
<circle fill="#363239" cx="103.321" cy="72.209" r="1.107"/>
<path fill="#363239" d="M36.724,55.479c0,0-1.566-0.181-4.505-0.167c-2.955,0.011-5.195-1.292-4.422-3.17
	c0.584-1.42,3.087-1.254,4.755,0.082C34.35,53.662,36.724,55.479,36.724,55.479z"/>
<path fill="#363239" d="M138.588,55.479c0,0,1.567-0.181,4.506-0.167c2.955,0.011,5.195-1.292,4.422-3.17
	c-0.584-1.419-3.087-1.254-4.756,0.082C140.962,53.662,138.588,55.479,138.588,55.479z"/>
<path fill="#363239" d="M88.72,10.534c0,0-0.367-0.583-1.54-0.583c-1.095,0-1.368,0.686-1.368,0.686l-1.621-3.004L87.18,0
	l3.044,7.696L88.72,10.534z"/>
</svg>
